<svg width="228" height="174" viewBox="0 0 228 174" fill="none" xmlns="http://www.w3.org/2000/svg">
<g clip-path="url(#clip0)">
<path d="M207.088 86.9999C207.088 88.2551 204.818 91.8948 204.818 91.8948C204.818 91.8948 202.548 88.2551 202.548 86.9999C202.548 86.397 202.788 85.8188 203.214 85.3926C203.639 84.9663 204.217 84.7268 204.82 84.7268C205.422 84.7268 206 84.9663 206.425 85.3926C206.851 85.8188 207.091 86.397 207.091 86.9999H207.088Z" fill="#000066"/>
<path d="M210.841 93.9604C210.153 95.0137 206.276 96.8335 206.276 96.8335C206.276 96.8335 206.347 92.5421 207.028 91.4888C207.19 91.2382 207.4 91.022 207.645 90.8526C207.891 90.6831 208.167 90.5637 208.459 90.5011C208.75 90.4386 209.051 90.4342 209.345 90.488C209.638 90.5419 209.918 90.6531 210.168 90.8153C210.419 90.9774 210.635 91.1873 210.804 91.433C210.973 91.6787 211.092 91.9553 211.155 92.2472C211.217 92.539 211.222 92.8403 211.168 93.1339C211.114 93.4274 211.003 93.7075 210.841 93.9581V93.9604Z" fill="#000066"/>
<path d="M210.676 105.843C209.558 106.407 205.288 106.017 205.288 106.017C205.288 106.017 207.512 102.345 208.633 101.783C209.171 101.512 209.795 101.465 210.367 101.654C210.939 101.843 211.413 102.251 211.684 102.79C211.955 103.328 212.002 103.952 211.813 104.525C211.625 105.097 211.217 105.571 210.679 105.843H210.676Z" fill="#000066"/>
<path d="M208.53 114.804C207.521 115.55 203.256 115.888 203.256 115.888C203.256 115.888 204.829 111.897 205.838 111.149C206.077 110.971 206.35 110.843 206.639 110.77C206.928 110.698 207.229 110.684 207.524 110.728C207.819 110.772 208.102 110.874 208.358 111.027C208.613 111.181 208.836 111.384 209.013 111.624C209.191 111.864 209.319 112.136 209.391 112.426C209.463 112.715 209.478 113.016 209.434 113.311C209.39 113.606 209.288 113.89 209.134 114.146C208.981 114.402 208.778 114.625 208.539 114.802L208.53 114.804Z" fill="#000066"/>
<path d="M201.509 97.0789C202.407 97.9532 206.599 98.8597 206.599 98.8597C206.599 98.8597 205.572 94.6923 204.673 93.811C204.459 93.6031 204.206 93.4394 203.929 93.3292C203.652 93.219 203.356 93.1646 203.058 93.1689C202.759 93.1733 202.465 93.2364 202.191 93.3547C201.917 93.4729 201.669 93.644 201.462 93.8581C201.254 94.0722 201.09 94.3252 200.98 94.6026C200.87 94.88 200.816 95.1764 200.82 95.4748C200.824 95.7732 200.887 96.0679 201.006 96.3419C201.124 96.616 201.295 96.8641 201.509 97.072V97.0789Z" fill="#000066"/>
<path d="M199.131 107.589C200.25 108.154 204.52 107.764 204.52 107.764C204.52 107.764 202.296 104.092 201.174 103.53C200.636 103.258 200.013 103.212 199.441 103.401C198.869 103.589 198.395 103.998 198.124 104.536C197.852 105.074 197.806 105.699 197.995 106.271C198.183 106.844 198.591 107.318 199.129 107.589H199.131Z" fill="#000066"/>
<path d="M198.221 118.125C199.23 118.871 203.495 119.208 203.495 119.208C203.495 119.208 201.931 115.227 200.92 114.472C200.68 114.294 200.408 114.166 200.119 114.093C199.829 114.021 199.529 114.007 199.234 114.051C198.939 114.095 198.656 114.197 198.4 114.35C198.144 114.504 197.922 114.707 197.744 114.947C197.567 115.187 197.438 115.459 197.366 115.749C197.294 116.038 197.28 116.339 197.324 116.634C197.368 116.929 197.47 117.213 197.623 117.469C197.777 117.724 197.979 117.947 198.219 118.125H198.221Z" fill="#000066"/>
<path opacity="0.25" d="M207.088 86.9999C207.088 88.2551 204.818 91.8948 204.818 91.8948C204.818 91.8948 202.548 88.2551 202.548 86.9999C202.548 86.397 202.788 85.8188 203.214 85.3926C203.639 84.9663 204.217 84.7268 204.82 84.7268C205.422 84.7268 206 84.9663 206.425 85.3926C206.851 85.8188 207.091 86.397 207.091 86.9999H207.088Z" fill="black"/>
<path opacity="0.25" d="M210.841 93.9604C210.153 95.0137 206.276 96.8335 206.276 96.8335C206.276 96.8335 206.347 92.5421 207.028 91.4888C207.19 91.2382 207.4 91.022 207.645 90.8526C207.891 90.6831 208.167 90.5637 208.459 90.5011C208.75 90.4386 209.051 90.4342 209.345 90.488C209.638 90.5419 209.918 90.6531 210.168 90.8153C210.419 90.9774 210.635 91.1873 210.804 91.433C210.973 91.6787 211.092 91.9553 211.155 92.2472C211.217 92.539 211.222 92.8403 211.168 93.1339C211.114 93.4274 211.003 93.7075 210.841 93.9581V93.9604Z" fill="black"/>
<path opacity="0.25" d="M210.676 105.843C209.558 106.407 205.288 106.017 205.288 106.017C205.288 106.017 207.512 102.345 208.633 101.783C209.171 101.512 209.795 101.465 210.367 101.654C210.939 101.843 211.413 102.251 211.684 102.79C211.955 103.328 212.002 103.952 211.813 104.525C211.625 105.097 211.217 105.571 210.679 105.843H210.676Z" fill="black"/>
<path opacity="0.25" d="M208.53 114.804C207.521 115.55 203.256 115.888 203.256 115.888C203.256 115.888 204.829 111.897 205.838 111.149C206.077 110.971 206.35 110.843 206.639 110.77C206.928 110.698 207.229 110.684 207.524 110.728C207.819 110.772 208.102 110.874 208.358 111.027C208.613 111.181 208.836 111.384 209.013 111.624C209.191 111.864 209.319 112.136 209.391 112.426C209.463 112.715 209.478 113.016 209.434 113.311C209.39 113.606 209.288 113.89 209.134 114.146C208.981 114.402 208.778 114.625 208.539 114.802L208.53 114.804Z" fill="black"/>
<path opacity="0.25" d="M201.509 97.0789C202.407 97.9532 206.599 98.8597 206.599 98.8597C206.599 98.8597 205.572 94.6923 204.673 93.811C204.459 93.6031 204.206 93.4394 203.929 93.3292C203.652 93.219 203.356 93.1646 203.058 93.1689C202.759 93.1733 202.465 93.2364 202.191 93.3547C201.917 93.4729 201.669 93.644 201.462 93.8581C201.254 94.0722 201.09 94.3252 200.98 94.6026C200.87 94.88 200.816 95.1764 200.82 95.4748C200.824 95.7732 200.887 96.0679 201.006 96.3419C201.124 96.616 201.295 96.8641 201.509 97.072V97.0789Z" fill="black"/>
<path opacity="0.25" d="M199.131 107.589C200.25 108.154 204.52 107.764 204.52 107.764C204.52 107.764 202.296 104.092 201.174 103.53C200.636 103.258 200.013 103.212 199.441 103.401C198.869 103.589 198.395 103.998 198.124 104.536C197.852 105.074 197.806 105.699 197.995 106.271C198.183 106.844 198.591 107.318 199.129 107.589H199.131Z" fill="black"/>
<path opacity="0.25" d="M198.221 118.125C199.23 118.871 203.495 119.208 203.495 119.208C203.495 119.208 201.931 115.227 200.92 114.472C200.68 114.294 200.408 114.166 200.119 114.093C199.829 114.021 199.529 114.007 199.234 114.051C198.939 114.095 198.656 114.197 198.4 114.35C198.144 114.504 197.922 114.707 197.744 114.947C197.567 115.187 197.438 115.459 197.366 115.749C197.294 116.038 197.28 116.339 197.324 116.634C197.368 116.929 197.47 117.213 197.623 117.469C197.777 117.724 197.979 117.947 198.219 118.125H198.221Z" fill="black"/>
<path d="M41.6965 86.5409C41.6965 87.8146 39.3921 91.5093 39.3921 91.5093C39.3921 91.5093 37.0854 87.8031 37.0854 86.5409C37.0854 85.9293 37.3282 85.3426 37.7604 84.9101C38.1925 84.4776 38.7787 84.2346 39.3898 84.2346C40.001 84.2346 40.5871 84.4776 41.0193 84.9101C41.4515 85.3426 41.6942 85.9293 41.6942 86.5409H41.6965Z" fill="#000066"/>
<path d="M45.5053 93.5862C44.8174 94.6556 40.8735 96.5029 40.8735 96.5029C40.8735 96.5029 40.9446 92.1427 41.6371 91.0802C41.7984 90.8193 42.0101 90.5933 42.2598 90.4153C42.5095 90.2373 42.7922 90.111 43.0913 90.0437C43.3904 89.9764 43.6999 89.9695 44.0017 90.0235C44.3035 90.0774 44.5915 90.1911 44.8488 90.3578C45.1062 90.5245 45.3277 90.7409 45.5004 90.9944C45.6731 91.2479 45.7936 91.5333 45.8547 91.834C45.9158 92.1346 45.9164 92.4444 45.8564 92.7453C45.7964 93.0462 45.677 93.3321 45.5053 93.5862Z" fill="#000066"/>
<path d="M45.3378 105.643C44.1913 106.217 39.8691 105.82 39.8691 105.82C39.8691 105.82 42.1277 102.098 43.2627 101.524C43.8085 101.249 44.4412 101.202 45.0217 101.393C45.6022 101.585 46.083 101.999 46.3581 102.545C46.6333 103.092 46.6804 103.725 46.489 104.306C46.2977 104.887 45.8836 105.368 45.3378 105.643Z" fill="#000066"/>
<path d="M43.166 114.738C42.1434 115.495 37.8052 115.837 37.8052 115.837C37.8052 115.837 39.4102 111.787 40.426 111.018C40.6693 110.837 40.9458 110.706 41.2397 110.632C41.5336 110.558 41.8392 110.543 42.139 110.587C42.4388 110.632 42.7269 110.735 42.9869 110.89C43.247 111.046 43.4738 111.252 43.6544 111.495C43.8351 111.739 43.9661 112.015 44.0399 112.31C44.1137 112.604 44.1289 112.91 44.0846 113.21C44.0403 113.51 43.9374 113.798 43.7818 114.058C43.6261 114.318 43.4208 114.545 43.1775 114.726L43.166 114.738Z" fill="#000066"/>
<path d="M36.0328 96.7487C36.95 97.6368 41.1988 98.5548 41.1988 98.5548C41.1988 98.5548 40.1578 94.3277 39.2452 93.4395C39.0291 93.2238 38.7723 93.0532 38.4898 92.9376C38.2073 92.822 37.9046 92.7637 37.5994 92.7662C37.2941 92.7686 36.9924 92.8318 36.7118 92.9519C36.4311 93.072 36.1771 93.2467 35.9645 93.4659C35.7519 93.6851 35.5849 93.9444 35.4732 94.2287C35.3616 94.513 35.3074 94.8167 35.314 95.1221C35.3206 95.4275 35.3877 95.7286 35.5115 96.0078C35.6353 96.2871 35.8133 96.5389 36.0351 96.7487H36.0328Z" fill="#000066"/>
<path d="M33.6211 107.424C34.7676 107.998 39.0898 107.601 39.0898 107.601C39.0898 107.601 36.8312 103.879 35.6962 103.305C35.1504 103.03 34.5177 102.983 33.9372 103.174C33.3567 103.366 32.8759 103.78 32.6008 104.326C32.3256 104.873 32.2785 105.506 32.4699 106.087C32.6612 106.668 33.0753 107.149 33.6211 107.424Z" fill="#000066"/>
<path d="M32.6968 118.109C33.7194 118.866 38.0576 119.208 38.0576 119.208C38.0576 119.208 36.4526 115.158 35.4368 114.389C34.9455 114.024 34.3293 113.869 33.7238 113.958C33.1184 114.048 32.5732 114.374 32.2084 114.866C31.8435 115.358 31.6888 115.975 31.7782 116.581C31.8676 117.187 32.1939 117.732 32.6853 118.097L32.6968 118.109Z" fill="#000066"/>
<path opacity="0.5" d="M41.6965 86.5409C41.6965 87.8146 39.3921 91.5093 39.3921 91.5093C39.3921 91.5093 37.0854 87.8031 37.0854 86.5409C37.0854 85.9293 37.3282 85.3426 37.7604 84.9101C38.1925 84.4776 38.7787 84.2346 39.3898 84.2346C40.001 84.2346 40.5871 84.4776 41.0193 84.9101C41.4515 85.3426 41.6942 85.9293 41.6942 86.5409H41.6965Z" fill="white"/>
<path opacity="0.5" d="M45.5053 93.5862C44.8174 94.6556 40.8735 96.5029 40.8735 96.5029C40.8735 96.5029 40.9446 92.1427 41.6371 91.0802C41.7984 90.8193 42.0101 90.5933 42.2598 90.4153C42.5095 90.2373 42.7922 90.111 43.0913 90.0437C43.3904 89.9764 43.6999 89.9695 44.0017 90.0235C44.3035 90.0774 44.5915 90.1911 44.8488 90.3578C45.1062 90.5245 45.3277 90.7409 45.5004 90.9944C45.6731 91.2479 45.7936 91.5333 45.8547 91.834C45.9158 92.1346 45.9164 92.4444 45.8564 92.7453C45.7964 93.0462 45.677 93.3321 45.5053 93.5862Z" fill="white"/>
<path opacity="0.5" d="M45.3378 105.643C44.1913 106.217 39.8691 105.82 39.8691 105.82C39.8691 105.82 42.1277 102.098 43.2627 101.524C43.8085 101.249 44.4412 101.202 45.0217 101.393C45.6022 101.585 46.083 101.999 46.3581 102.545C46.6333 103.092 46.6804 103.725 46.489 104.306C46.2977 104.887 45.8836 105.368 45.3378 105.643Z" fill="white"/>
<path opacity="0.5" d="M43.166 114.738C42.1434 115.495 37.8052 115.837 37.8052 115.837C37.8052 115.837 39.4102 111.787 40.426 111.018C40.6693 110.837 40.9458 110.706 41.2397 110.632C41.5336 110.558 41.8392 110.543 42.139 110.587C42.4388 110.632 42.7269 110.735 42.9869 110.89C43.247 111.046 43.4738 111.252 43.6544 111.495C43.8351 111.739 43.9661 112.015 44.0399 112.31C44.1137 112.604 44.1289 112.91 44.0846 113.21C44.0403 113.51 43.9374 113.798 43.7818 114.058C43.6261 114.318 43.4208 114.545 43.1775 114.726L43.166 114.738Z" fill="white"/>
<path opacity="0.5" d="M36.0328 96.7487C36.95 97.6368 41.1988 98.5548 41.1988 98.5548C41.1988 98.5548 40.1578 94.3277 39.2452 93.4395C39.0291 93.2238 38.7723 93.0532 38.4898 92.9376C38.2073 92.822 37.9046 92.7637 37.5994 92.7662C37.2941 92.7686 36.9924 92.8318 36.7118 92.9519C36.4311 93.072 36.1771 93.2467 35.9645 93.4659C35.7519 93.6851 35.5849 93.9444 35.4732 94.2287C35.3616 94.513 35.3074 94.8167 35.314 95.1221C35.3206 95.4275 35.3877 95.7286 35.5115 96.0078C35.6353 96.2871 35.8133 96.5389 36.0351 96.7487H36.0328Z" fill="white"/>
<path opacity="0.5" d="M33.6211 107.424C34.7676 107.998 39.0898 107.601 39.0898 107.601C39.0898 107.601 36.8312 103.879 35.6962 103.305C35.1504 103.03 34.5177 102.983 33.9372 103.174C33.3567 103.366 32.8759 103.78 32.6008 104.326C32.3256 104.873 32.2785 105.506 32.4699 106.087C32.6612 106.668 33.0753 107.149 33.6211 107.424Z" fill="white"/>
<path opacity="0.5" d="M32.6968 118.109C33.7194 118.866 38.0576 119.208 38.0576 119.208C38.0576 119.208 36.4526 115.158 35.4368 114.389C34.9455 114.024 34.3293 113.869 33.7238 113.958C33.1184 114.048 32.5732 114.374 32.2084 114.866C31.8435 115.358 31.6888 115.975 31.7782 116.581C31.8676 117.187 32.1939 117.732 32.6853 118.097L32.6968 118.109Z" fill="white"/>
<path d="M23.6031 95.3164C23.6031 96.2872 21.8467 99.103 21.8467 99.103C21.8467 99.103 20.0903 96.2872 20.0903 95.3164C20.0903 94.8502 20.2754 94.4031 20.6048 94.0735C20.9341 93.7438 21.3809 93.5586 21.8467 93.5586C22.3125 93.5586 22.7593 93.7438 23.0887 94.0735C23.418 94.4031 23.6031 94.8502 23.6031 95.3164Z" fill="#000066"/>
<path d="M26.5062 100.693C25.9788 101.508 22.9751 102.917 22.9751 102.917C22.9751 102.917 23.0301 99.5988 23.5575 98.7864C23.6829 98.5927 23.8452 98.4255 24.0352 98.2945C24.2252 98.1635 24.439 98.0712 24.6646 98.023C24.8902 97.9747 25.1231 97.9714 25.35 98.0132C25.5768 98.055 25.7933 98.1411 25.9869 98.2666C26.1805 98.3922 26.3475 98.5546 26.4784 98.7447C26.6093 98.9349 26.7015 99.1489 26.7497 99.3747C26.7979 99.6005 26.8012 99.8335 26.7595 100.061C26.7177 100.288 26.6316 100.504 26.5062 100.698V100.693Z" fill="#000066"/>
<path d="M26.38 109.882C25.5132 110.318 22.2114 110.017 22.2114 110.017C22.2114 110.017 23.9311 107.181 24.7979 106.743C25.2138 106.533 25.6961 106.497 26.1385 106.642C26.581 106.788 26.9475 107.104 27.1573 107.521C27.3671 107.937 27.4031 108.419 27.2573 108.862C27.1115 109.305 26.7959 109.672 26.38 109.882Z" fill="#000066"/>
<path d="M24.7198 116.815C23.9402 117.393 20.6338 117.652 20.6338 117.652C20.6338 117.652 21.8513 114.566 22.6309 113.981C23.0055 113.703 23.4748 113.587 23.9356 113.656C24.3963 113.725 24.8108 113.974 25.0878 114.349C25.3648 114.724 25.4816 115.194 25.4126 115.655C25.3436 116.116 25.0944 116.531 24.7198 116.808V116.815Z" fill="#000066"/>
<path d="M19.2876 103.105C19.9754 103.782 23.2245 104.482 23.2245 104.482C23.2245 104.482 22.4312 101.269 21.7341 100.581C21.5685 100.42 21.3729 100.293 21.1584 100.208C20.9439 100.123 20.7148 100.081 20.4841 100.085C20.2534 100.088 20.0256 100.137 19.8139 100.229C19.6021 100.32 19.4104 100.453 19.2497 100.619C19.0891 100.784 18.9626 100.98 18.8776 101.195C18.7926 101.409 18.7506 101.639 18.7541 101.87C18.7576 102.101 18.8065 102.328 18.8981 102.54C18.9896 102.752 19.122 102.944 19.2876 103.105Z" fill="#000066"/>
<path d="M17.4489 111.236C18.3156 111.672 21.6175 111.371 21.6175 111.371C21.6175 111.371 19.8978 108.535 19.031 108.097C18.6151 107.887 18.1328 107.851 17.6903 107.996C17.2479 108.142 16.8814 108.458 16.6716 108.875C16.4618 109.291 16.4258 109.773 16.5716 110.216C16.7174 110.659 17.033 111.026 17.4489 111.236Z" fill="#000066"/>
<path d="M16.7449 119.383C17.5245 119.961 20.8309 120.22 20.8309 120.22C20.8309 120.22 19.6134 117.134 18.8338 116.549C18.6483 116.411 18.4376 116.312 18.2138 116.256C17.9899 116.2 17.7573 116.189 17.5291 116.223C17.301 116.258 17.0818 116.337 16.8841 116.456C16.6864 116.574 16.5141 116.731 16.3769 116.917C16.2398 117.103 16.1405 117.313 16.0848 117.537C16.029 117.762 16.0179 117.994 16.0521 118.223C16.0863 118.451 16.165 118.67 16.2839 118.868C16.4028 119.066 16.5595 119.239 16.7449 119.376V119.383Z" fill="#000066"/>
<path opacity="0.25" d="M23.6031 95.3164C23.6031 96.2872 21.8467 99.103 21.8467 99.103C21.8467 99.103 20.0903 96.2872 20.0903 95.3164C20.0903 94.8502 20.2754 94.4031 20.6048 94.0735C20.9341 93.7438 21.3809 93.5586 21.8467 93.5586C22.3125 93.5586 22.7593 93.7438 23.0887 94.0735C23.418 94.4031 23.6031 94.8502 23.6031 95.3164Z" fill="black"/>
<path opacity="0.25" d="M26.5062 100.693C25.9788 101.508 22.9751 102.917 22.9751 102.917C22.9751 102.917 23.0301 99.5988 23.5575 98.7864C23.6829 98.5927 23.8452 98.4255 24.0352 98.2945C24.2252 98.1635 24.439 98.0712 24.6646 98.023C24.8902 97.9747 25.1231 97.9714 25.35 98.0132C25.5768 98.055 25.7933 98.1411 25.9869 98.2666C26.1805 98.3922 26.3475 98.5546 26.4784 98.7447C26.6093 98.9349 26.7015 99.1489 26.7497 99.3747C26.7979 99.6005 26.8012 99.8335 26.7595 100.061C26.7177 100.288 26.6316 100.504 26.5062 100.698V100.693Z" fill="black"/>
<path opacity="0.25" d="M26.38 109.882C25.5132 110.318 22.2114 110.017 22.2114 110.017C22.2114 110.017 23.9311 107.181 24.7979 106.743C25.2138 106.533 25.6961 106.497 26.1385 106.642C26.581 106.788 26.9475 107.104 27.1573 107.521C27.3671 107.937 27.4031 108.419 27.2573 108.862C27.1115 109.305 26.7959 109.672 26.38 109.882Z" fill="black"/>
<path opacity="0.25" d="M24.7198 116.815C23.9402 117.393 20.6338 117.652 20.6338 117.652C20.6338 117.652 21.8513 114.566 22.6309 113.981C23.0055 113.703 23.4748 113.587 23.9356 113.656C24.3963 113.725 24.8108 113.974 25.0878 114.349C25.3648 114.724 25.4816 115.194 25.4126 115.655C25.3436 116.116 25.0944 116.531 24.7198 116.808V116.815Z" fill="black"/>
<path opacity="0.25" d="M19.2876 103.105C19.9754 103.782 23.2245 104.482 23.2245 104.482C23.2245 104.482 22.4312 101.269 21.7341 100.581C21.5685 100.42 21.3729 100.293 21.1584 100.208C20.9439 100.123 20.7148 100.081 20.4841 100.085C20.2534 100.088 20.0256 100.137 19.8139 100.229C19.6021 100.32 19.4104 100.453 19.2497 100.619C19.0891 100.784 18.9626 100.98 18.8776 101.195C18.7926 101.409 18.7506 101.639 18.7541 101.87C18.7576 102.101 18.8065 102.328 18.8981 102.54C18.9896 102.752 19.122 102.944 19.2876 103.105Z" fill="black"/>
<path opacity="0.25" d="M17.4489 111.236C18.3156 111.672 21.6175 111.371 21.6175 111.371C21.6175 111.371 19.8978 108.535 19.031 108.097C18.6151 107.887 18.1328 107.851 17.6903 107.996C17.2479 108.142 16.8814 108.458 16.6716 108.875C16.4618 109.291 16.4258 109.773 16.5716 110.216C16.7174 110.659 17.033 111.026 17.4489 111.236Z" fill="black"/>
<path opacity="0.25" d="M16.7449 119.383C17.5245 119.961 20.8309 120.22 20.8309 120.22C20.8309 120.22 19.6134 117.134 18.8338 116.549C18.6483 116.411 18.4376 116.312 18.2138 116.256C17.9899 116.2 17.7573 116.189 17.5291 116.223C17.301 116.258 17.0818 116.337 16.8841 116.456C16.6864 116.574 16.5141 116.731 16.3769 116.917C16.2398 117.103 16.1405 117.313 16.0848 117.537C16.029 117.762 16.0179 117.994 16.0521 118.223C16.0863 118.451 16.165 118.67 16.2839 118.868C16.4028 119.066 16.5595 119.239 16.7449 119.376V119.383Z" fill="black"/>
<g opacity="0.7">
<path d="M227.289 18.3589H0.288574V134.249H227.289V18.3589Z" fill="#F9BF64"/>
<path opacity="0.2" d="M0.288574 18.3589V134.478H227.289V18.3589H0.288574ZM10.3775 28.4562H108.744V71.3699H10.3775V28.4562ZM10.3775 81.4672H108.744V124.381H10.3775V81.4672ZM217.2 124.381H118.833V81.4672H217.2V124.381ZM217.2 71.3699H118.833V28.4562H217.2V71.3699Z" fill="#000066"/>
</g>
<g opacity="0.7">
<path opacity="0.7" d="M83.5473 139.27C83.5473 139.27 63.6813 132 60.9619 142.233L68.5813 161.617L69.3976 174.009H85.9961V163.501C85.9961 163.501 83.5473 153 89.807 146.54L83.5473 139.27Z" fill="url(#paint0_linear)"/>
<g opacity="0.1">
<path opacity="0.1" d="M86.8741 81.582C86.0303 81.3021 85.0145 81.0519 84.3266 81.6096C83.9277 81.9332 83.7557 82.4541 83.4461 82.8626C82.4166 84.2142 80.3415 83.9618 78.7021 84.446C76.2922 85.1574 74.8041 87.5463 73.9511 89.8871C70.1769 100.214 74.3845 112.025 71.0987 122.513C70.1311 125.6 68.549 129.026 70.1127 131.864C70.6332 132.812 71.4885 133.602 71.7407 134.648C72.0938 136.069 71.4128 137.932 72.6029 138.797C72.9743 139.066 73.4444 139.151 73.8892 139.256C76.5673 139.963 78.5966 142.049 80.6373 143.903C82.678 145.757 85.1314 147.552 87.899 147.43C88.7934 147.357 89.6765 147.181 90.5313 146.907L104.266 143.079C105.642 142.696 107.137 142.233 107.935 141.058C108.423 140.339 108.577 139.451 108.7 138.598C109.174 135.335 109.399 132.042 109.372 128.746C109.372 127.658 109.322 126.545 108.914 125.533C108.455 124.365 107.538 123.431 106.871 122.364C105.582 120.298 105.236 117.818 104.917 115.415C104.41 111.589 103.904 107.688 104.605 103.893C104.906 102.263 105.424 100.68 105.768 99.0619C106.325 96.4261 106.414 93.7126 106.029 91.046C105.708 88.8315 105.02 86.5848 103.507 84.9187C102.517 83.8086 101.171 83.0783 99.7007 82.8534C97.8434 82.6239 96.9194 83.6933 95.2639 84.0926C92.8151 84.7053 89.2289 82.36 86.8741 81.582Z" fill="url(#paint1_linear)"/>
</g>
<path opacity="0.7" d="M86.8741 81.0335C86.0303 80.7535 85.0145 80.5033 84.3266 81.061C83.9277 81.3846 83.7557 81.9055 83.4461 82.314C82.4166 83.6656 80.3415 83.4132 78.7021 83.8974C76.2922 84.6088 74.8041 86.9978 73.9511 89.3385C70.1769 99.6653 74.3845 111.477 71.0987 121.964C70.1311 125.051 68.549 128.477 70.1127 131.316C70.6332 132.264 71.4885 133.053 71.7407 134.099C72.0938 135.52 71.4128 137.383 72.6029 138.249C72.9743 138.517 73.4444 138.602 73.8892 138.708C76.5673 139.414 78.5966 141.5 80.6373 143.355C82.678 145.209 85.1269 147.024 87.899 146.896C88.7934 146.822 89.6765 146.646 90.5313 146.372L104.266 142.545C105.642 142.161 107.137 141.698 107.935 140.523C108.423 139.804 108.577 138.916 108.7 138.063C109.174 134.801 109.399 131.507 109.372 128.211C109.372 127.123 109.322 126.01 108.914 124.998C108.455 123.83 107.538 122.896 106.871 121.829C105.582 119.764 105.236 117.283 104.917 114.88C104.41 111.055 103.904 107.153 104.605 103.358C104.906 101.728 105.424 100.145 105.768 98.5271C106.325 95.8913 106.414 93.1777 106.029 90.5112C105.708 88.2966 105.02 86.05 103.507 84.3839C102.517 83.2738 101.171 82.5435 99.7007 82.3186C97.8434 82.0891 96.9194 83.1585 95.2639 83.5578C92.8151 84.1545 89.2289 81.8229 86.8741 81.0335Z" fill="url(#paint2_linear)"/>
<path opacity="0.7" d="M83.0037 60.653C83.0037 60.653 83.2766 70.8835 80.0115 70.615C76.7463 70.3465 89.2543 87.5762 89.2543 87.5762L99.8659 81.9217C99.8659 81.9217 93.6108 71.962 97.9674 65.7682C102.324 59.5744 83.0037 60.653 83.0037 60.653Z" fill="url(#paint3_linear)"/>
<g opacity="0.1">
<path opacity="0.1" d="M64.77 147.616C64.77 147.616 62.594 162.425 57.1506 158.386C51.7071 154.347 52.5234 147.616 52.5234 147.616C52.5234 147.616 63.1374 119.078 62.594 114.768C62.0506 110.458 80.7081 76.9717 80.7081 76.9717L87.619 132C87.619 132 66.9459 139.538 64.77 147.616Z" fill="url(#paint4_linear)"/>
</g>
<path opacity="0.7" d="M64.2265 147.616C64.2265 147.616 62.0505 162.425 56.6071 158.386C51.1637 154.347 51.98 147.616 51.98 147.616C51.98 147.616 62.594 119.078 62.0482 114.768C61.5025 110.458 80.1624 76.9717 80.1624 76.9717L87.0733 132C87.0733 132 66.4025 139.538 64.2265 147.616Z" fill="url(#paint5_linear)"/>
<path opacity="0.7" d="M83.547 67.1152C83.547 67.1152 72.933 74.3784 68.847 74.1145L65.6759 74.9774C62.5403 75.819 59.7023 77.5216 57.4827 79.8927C55.2631 82.2638 53.7503 85.209 53.1153 88.3954L53.0648 88.6524C51.4368 97.2696 50.8911 120.964 50.8911 120.964C50.8911 120.964 51.164 127.16 53.8834 128.766L71.3096 140.612C71.3096 140.612 70.7662 127.69 77.2965 126.343C83.8267 124.996 75.6639 125.804 75.6639 125.804L63.6902 118.804C63.6902 118.804 63.9631 108.303 67.2282 104.806C70.4934 101.308 81.9236 83.0048 81.9236 83.0048L78.6585 71.698L83.547 67.1152Z" fill="url(#paint6_linear)"/>
<g opacity="0.1">
<path opacity="0.1" d="M95.2477 74.1145C95.2477 74.1145 101.932 75.8655 106.611 76.7214C107.341 76.8519 108.029 77.1526 108.62 77.5992C109.211 78.0458 109.689 78.6256 110.014 79.2917C111.427 82.2084 113.58 87.4843 113.208 91.8835L117.29 107.768L128.984 121.767L118.374 126.616L106.405 113.423L116.201 138.462L97.9672 139.27C97.9672 139.27 92.5237 98.8805 93.8857 92.1543L95.2477 74.1145Z" fill="url(#paint7_linear)"/>
</g>
<path opacity="0.7" d="M95.7913 74.1145C95.7913 74.1145 102.475 75.8655 107.155 76.7214C107.884 76.8519 108.572 77.1526 109.164 77.5992C109.755 78.0458 110.233 78.6256 110.558 79.2917C111.97 82.2084 114.123 87.4843 113.752 91.8835L117.833 107.768L129.527 121.767L118.916 126.614L106.942 113.421L116.746 138.462L98.5131 139.27C98.5131 139.27 93.0696 98.8805 94.4316 92.1543L95.7913 74.1145Z" fill="url(#paint8_linear)"/>
<path opacity="0.7" d="M82.6527 66.2568L86.4039 84.4802L80.2818 87.5759L76.9272 71.1609L82.6527 66.2568Z" fill="url(#paint9_linear)"/>
<path opacity="0.7" d="M92.9346 85.8274L95.7916 74.1145L99.4671 80.9807L97.5617 86.6352L92.9346 85.8274Z" fill="url(#paint10_linear)"/>
<path opacity="0.1" d="M103.275 89.3269C103.275 89.3269 103.275 107.635 105.724 108.98L103.275 89.3269Z" fill="url(#paint11_linear)"/>
<path opacity="0.1" d="M68.1706 93.9031C68.1706 93.9031 62.5231 111.934 64.1213 113.822L68.1706 93.9031Z" fill="url(#paint12_linear)"/>
<path opacity="0.1" d="M67.0835 118.669C67.0835 118.669 77.9703 125.712 79.4653 125.824L67.0835 118.669Z" fill="url(#paint13_linear)"/>
<g opacity="0.1">
<path opacity="0.1" d="M83.2739 61.7292C83.2739 61.7292 83.3152 63.3057 83.1685 65.2036C84.139 67.4573 85.7493 69.3762 87.7996 70.7225C89.8498 72.0687 92.2498 72.7829 94.7019 72.7766C95.3739 72.776 96.0447 72.7223 96.7082 72.6159C96.6371 70.601 97.0246 68.5793 98.2399 66.8536C102.594 60.6529 83.2739 61.7292 83.2739 61.7292Z" fill="url(#paint14_linear)"/>
</g>
<path opacity="0.7" d="M94.4316 71.6935C101.345 71.6935 106.949 66.1484 106.949 59.3082C106.949 52.4679 101.345 46.9229 94.4316 46.9229C87.5186 46.9229 81.9146 52.4679 81.9146 59.3082C81.9146 66.1484 87.5186 71.6935 94.4316 71.6935Z" fill="url(#paint15_linear)"/>
<g opacity="0.1">
<path opacity="0.1" d="M102.374 54.1011C103.89 54.303 105.814 53.8028 106.114 52.3157C106.483 50.4385 103.945 49.2177 103.553 47.3428C103.406 46.6405 103.58 45.9062 103.495 45.1925C103.326 43.7559 102.152 42.6498 100.957 41.8145C97.1641 39.1862 92.5693 37.9744 87.9746 38.3906C87.406 38.4433 86.8075 38.5351 86.3696 38.8954C85.8697 39.3016 85.6817 39.9625 85.3355 40.5018C84.1615 42.379 81.5246 42.5993 79.6329 43.7697C77.4203 45.1466 76.3242 47.8247 76.2256 50.4041C76.127 52.9835 76.87 55.5147 77.6014 57.9932C78.2274 60.0998 78.8832 62.2639 80.2566 63.9896C81.6301 65.7153 83.9093 66.9201 86.0669 66.4015C85.0786 65.697 85.7963 64.0607 86.8671 63.487C87.9379 62.9133 89.2678 62.8146 90.1827 62.0229C91.0976 61.2312 91.3727 59.9346 91.6708 58.7551C92.0469 57.268 92.588 55.758 93.6886 54.6725C95.8462 52.5475 99.7327 53.75 102.374 54.1011Z" fill="url(#paint16_linear)"/>
</g>
<path opacity="0.7" d="M102.095 53.8326C103.61 54.0346 105.534 53.5343 105.834 52.0472C106.203 50.17 103.665 48.9492 103.273 47.0743C103.126 46.3721 103.301 45.6377 103.216 44.924C103.046 43.4874 101.872 42.3813 100.678 41.546C96.8872 38.919 92.296 37.7064 87.7041 38.1198C87.1355 38.1726 86.537 38.2644 86.0991 38.6246C85.5992 39.0308 85.4112 39.6917 85.0649 40.231C83.891 42.1082 81.2541 42.3285 79.3624 43.4989C77.1497 44.8758 76.0537 47.5539 75.9551 50.1333C75.8565 52.7127 76.5994 55.2439 77.3309 57.7224C77.9569 59.8291 78.6126 61.9931 79.9861 63.7188C81.3596 65.4445 83.6387 66.6493 85.7964 66.1307C84.8081 65.4262 85.5258 63.79 86.5966 63.2162C87.6674 62.6425 88.9973 62.5439 89.9122 61.7521C90.8271 60.9604 91.1022 59.6638 91.4003 58.4843C91.7763 56.9972 92.3175 55.4872 93.4181 54.4017C95.5734 52.279 99.46 53.4792 102.095 53.8326Z" fill="url(#paint17_linear)"/>
<g opacity="0.1">
<path opacity="0.1" d="M92.2672 60.9789C92.0837 62.2595 91.6756 64.4763 90.9075 65.8761C89.8917 67.6979 89.0229 69.5979 88.3096 71.5582C88.3096 71.5582 93.3219 75.3975 95.8762 78.0205C96.6626 78.8443 97.6688 79.4248 98.7752 79.6929C99.8817 79.961 101.042 79.9054 102.118 79.5328C103.445 79.0554 104.608 78.1329 104.917 76.4026C105.403 73.674 104.826 71.6155 104.28 70.397C104.017 69.8213 103.879 69.1961 103.876 68.5631C103.873 67.93 104.004 67.3036 104.261 66.7252C104.449 66.3122 104.67 65.9886 104.915 65.9083C104.915 65.9083 100.017 64.832 99.7444 66.1768C99.4715 67.5215 95.663 68.8686 94.8467 66.4453L94.6174 61.1029C94.6032 60.8001 94.4727 60.5145 94.253 60.3058C94.0334 60.0971 93.7417 59.9814 93.4388 59.983C93.1565 59.9802 92.8827 60.0794 92.6675 60.2623C92.4523 60.4452 92.3102 60.6997 92.2672 60.9789Z" fill="url(#paint18_linear)"/>
</g>
<path opacity="0.7" d="M92.2672 61.2494C92.0837 62.53 91.6756 64.7468 90.9075 66.1466C89.8917 67.9684 89.0229 69.8684 88.3096 71.8287C88.3096 71.8287 93.3219 75.668 95.8762 78.291C96.6626 79.1148 97.6688 79.6953 98.7752 79.9634C99.8817 80.2315 101.042 80.1759 102.118 79.8033C103.445 79.326 104.608 78.4034 104.917 76.6731C105.403 73.9445 104.826 71.8861 104.28 70.6675C104.017 70.0918 103.879 69.4666 103.876 68.8336C103.873 68.2005 104.004 67.5741 104.261 66.9957C104.449 66.5827 104.67 66.2591 104.915 66.1788C104.915 66.1788 100.017 65.1025 99.7444 66.4473C99.4715 67.792 95.663 69.1391 94.8467 66.7158L94.6174 61.3734C94.6032 61.0706 94.4727 60.785 94.253 60.5763C94.0334 60.3676 93.7417 60.252 93.4388 60.2535C93.1565 60.2507 92.8827 60.3499 92.6675 60.5328C92.4523 60.7157 92.3102 60.9702 92.2672 61.2494Z" fill="url(#paint19_linear)"/>
</g>
<path d="M83.8133 139.093C83.8133 139.093 64.743 132.034 62.1313 141.969L69.4458 160.786L70.2231 172.827H86.159V162.627C86.159 162.627 83.8087 152.431 89.8276 146.154L83.8133 139.093Z" fill="#535461"/>
<path opacity="0.1" d="M87.0072 83.0736C86.1978 82.8028 85.221 82.5596 84.563 83.1012C84.18 83.4156 84.015 83.9204 83.7169 84.3174C82.7286 85.6301 80.7361 85.3845 79.1631 85.855C76.8496 86.5434 75.4234 88.8658 74.6025 91.1331C70.9797 101.159 75.0175 112.634 71.8647 122.816C70.9476 125.813 69.4182 129.14 70.9177 131.897C71.4176 132.814 72.2316 133.583 72.4815 134.6C72.8209 135.977 72.1674 137.79 73.3093 138.63C73.6647 138.891 74.1164 138.972 74.5429 139.089C77.1132 139.777 79.0622 141.801 81.0204 143.603C82.9785 145.404 85.3357 147.146 87.9909 147.029C88.8483 146.957 89.6945 146.787 90.5131 146.522L103.697 142.804C105.02 142.43 106.449 141.98 107.222 140.84C107.68 140.151 107.838 139.284 107.958 138.451C108.413 135.282 108.628 132.084 108.602 128.883C108.602 127.828 108.554 126.747 108.166 125.765C107.708 124.631 106.846 123.725 106.204 122.685C104.968 120.684 104.633 118.27 104.328 115.936C103.842 112.22 103.356 108.432 104.028 104.746C104.317 103.165 104.814 101.627 105.144 100.056C105.68 97.4952 105.765 94.861 105.397 92.2714C105.089 90.1211 104.427 87.9387 102.977 86.3208C102.031 85.2451 100.738 84.5354 99.3225 84.3151C97.5386 84.0856 96.6513 85.1321 95.0623 85.5199C92.712 86.0959 89.2681 83.8309 87.0072 83.0736Z" fill="black"/>
<path d="M87.0072 82.5504C86.1978 82.2796 85.221 82.0364 84.563 82.578C84.1801 82.8924 84.015 83.3972 83.7169 83.7942C82.7286 85.1069 80.7361 84.8613 79.1631 85.3318C76.8496 86.0202 75.4234 88.3426 74.6025 90.6099C70.9797 100.636 75.0175 112.11 71.8647 122.293C70.9476 125.29 69.4182 128.617 70.9177 131.373C71.4176 132.291 72.2316 133.06 72.4815 134.077C72.8209 135.454 72.1674 137.267 73.3093 138.106C73.6647 138.368 74.1164 138.448 74.5429 138.565C77.1132 139.254 79.0622 141.278 81.0204 143.079C82.9786 144.881 85.3357 146.623 87.9909 146.506C88.8483 146.434 89.6946 146.264 90.5131 145.998L103.7 142.283C105.023 141.909 106.451 141.459 107.224 140.319C107.683 139.63 107.841 138.763 107.96 137.93C108.415 134.761 108.63 131.563 108.604 128.362C108.604 127.307 108.556 126.226 108.169 125.244C107.71 124.11 106.848 123.204 106.206 122.164C104.97 120.163 104.635 117.749 104.33 115.415C103.844 111.7 103.358 107.911 104.03 104.225C104.319 102.644 104.816 101.107 105.147 99.5346C105.682 96.9743 105.767 94.3401 105.399 91.7505C105.092 89.6002 104.429 87.4178 102.98 85.7999C102.036 84.7231 100.745 84.011 99.3317 83.7874C97.5478 83.5579 96.6605 84.6043 95.0715 84.9922C92.712 85.575 89.2681 83.3077 87.0072 82.5504Z" fill="#E0E0E0"/>
<path d="M83.2925 62.7503C83.2925 62.7503 83.5539 72.6847 80.4195 72.4231C77.2851 72.1615 89.3023 88.8955 89.3023 88.8955L99.4898 83.4039C99.4898 83.4039 93.4823 73.7311 97.6554 67.7163C101.829 61.7015 83.2925 62.7503 83.2925 62.7503Z" fill="#FDA57D"/>
<path opacity="0.1" d="M65.7884 147.201C65.7884 147.201 63.6995 161.58 58.4739 157.658C53.2483 153.736 54.0325 147.201 54.0325 147.201C54.0325 147.201 64.22 119.486 63.6972 115.302C63.1744 111.119 81.0959 78.5962 81.0959 78.5962L87.7294 132.034C87.7294 132.034 67.8772 139.357 65.7884 147.201Z" fill="black"/>
<path d="M65.2654 147.201C65.2654 147.201 63.1766 161.58 57.951 157.658C52.7254 153.736 53.5096 147.201 53.5096 147.201C53.5096 147.201 63.6971 119.486 63.1743 115.302C62.6515 111.119 80.573 78.5962 80.573 78.5962L87.2065 132.034C87.2065 132.034 67.3543 139.357 65.2654 147.201Z" fill="#4D8AF0"/>
<path d="M83.813 69.0244C83.813 69.0244 73.6255 76.0834 69.7069 75.8218L66.6618 76.6594C63.6384 77.491 60.9073 79.1517 58.7767 81.454C56.646 83.7564 55.2005 86.6088 54.6033 89.6895L54.5552 89.9396C52.9868 98.3067 52.4663 121.315 52.4663 121.315C52.4663 121.315 52.7277 127.327 55.3393 128.888L72.0571 140.403C72.0571 140.403 71.5343 127.853 77.8055 126.547C84.0766 125.241 76.2371 126.024 76.2371 126.024L64.7427 119.224C64.7427 119.224 65.0041 109.028 68.1385 105.63C71.2729 102.231 82.2446 84.4527 82.2446 84.4527L79.1102 73.4604L83.813 69.0244Z" fill="#4D8AF0"/>
<path opacity="0.1" d="M95.0463 75.8242C95.0463 75.8242 101.466 77.5247 105.956 78.3486C106.658 78.4774 107.321 78.7708 107.888 79.2048C108.455 79.6387 108.912 80.2009 109.221 80.8453C110.576 83.6795 112.642 88.7993 112.287 93.0723L116.205 108.498L127.441 122.093L117.251 126.807L105.763 113.997L115.164 138.322L97.6602 139.093C97.6602 139.093 92.4346 99.8742 93.7416 93.3385L95.0463 75.8242Z" fill="black"/>
<path d="M95.569 75.8242C95.569 75.8242 101.989 77.5247 106.479 78.3486C107.181 78.4774 107.843 78.7708 108.411 79.2048C108.978 79.6387 109.435 80.2009 109.744 80.8453C111.099 83.6795 113.165 88.7993 112.81 93.0723L116.728 108.498L127.964 122.093L117.776 126.8L106.282 113.988L115.683 138.313L98.1807 139.093C98.1807 139.093 92.9551 99.8742 94.2621 93.3385L95.569 75.8242Z" fill="#4D8AF0"/>
<path d="M82.9556 68.1938L86.5578 85.8894L80.6787 88.8957L77.4595 72.9557L82.9556 68.1938Z" fill="#E0E0E0"/>
<path d="M92.8267 87.1975L95.569 75.8242L99.0955 82.4907L97.2681 87.9823L92.8267 87.1975Z" fill="#E0E0E0"/>
<path opacity="0.1" d="M102.752 90.5959C102.752 90.5959 102.752 108.374 105.103 109.682L102.752 90.5959Z" fill="black"/>
<path opacity="0.1" d="M69.0536 95.032C69.0536 95.032 63.6308 112.542 65.1556 114.375L69.0536 95.032Z" fill="black"/>
<path opacity="0.1" d="M68.0083 119.094C68.0083 119.094 78.4595 125.932 79.8948 126.042L68.0083 119.094Z" fill="black"/>
<path opacity="0.1" d="M83.5516 63.7968C83.5516 63.7968 83.5928 65.3275 83.4507 67.1702C84.4993 69.6529 86.3506 71.7111 88.7077 73.0148C91.0648 74.3186 93.7911 74.7923 96.4493 74.36C96.3805 72.4025 96.7542 70.4404 97.9191 68.7629C102.094 62.7504 83.5516 63.7968 83.5516 63.7968Z" fill="black"/>
<path d="M94.2619 73.4719C100.899 73.4719 106.279 68.087 106.279 61.4445C106.279 54.802 100.899 49.4172 94.2619 49.4172C87.6249 49.4172 82.2446 54.802 82.2446 61.4445C82.2446 68.087 87.6249 73.4719 94.2619 73.4719Z" fill="#FDA57D"/>
<path opacity="0.1" d="M101.886 56.3891C103.342 56.5842 105.197 56.0977 105.477 54.6565C105.832 52.8321 103.395 51.6479 103.019 49.8373C102.877 49.1488 103.046 48.442 102.964 47.7513C102.801 46.356 101.673 45.282 100.526 44.4719C96.8961 41.9235 92.4804 40.7461 88.0644 41.149C87.5187 41.2018 86.9431 41.289 86.5212 41.6378C86.042 42.0325 85.8563 42.6728 85.5284 43.2029C84.4003 45.025 81.8597 45.2407 80.0552 46.3767C77.9296 47.7054 76.8795 50.3146 76.7832 52.8206C76.6869 55.3266 77.4023 57.7844 78.1085 60.1894C78.7092 62.2364 79.3398 64.3362 80.6582 66.0114C81.9767 67.6867 84.1664 68.857 86.2346 68.3522C85.2853 67.6637 85.9755 66.078 87.0028 65.5226C88.03 64.9673 89.2957 64.8709 90.1876 64.0998C91.0796 63.3287 91.3341 62.0712 91.6161 60.926C91.9784 59.4803 92.5012 58.0162 93.5537 56.9605C95.6219 54.8722 99.3433 56.0472 101.886 56.3891Z" fill="black"/>
<path d="M101.636 56.1276C103.092 56.3227 104.947 55.8362 105.227 54.395C105.582 52.5706 103.145 51.3865 102.769 49.5758C102.627 48.8874 102.796 48.1806 102.714 47.4898C102.539 46.0831 101.407 45.0045 100.26 44.199C96.6321 41.6514 92.2191 40.4732 87.8051 40.8738C87.2594 40.9266 86.6839 41.0138 86.262 41.3626C85.7827 41.7573 85.597 42.3976 85.2691 42.9277C84.141 44.7498 81.6004 44.9655 79.7959 46.1014C77.6703 47.4301 76.6202 50.0394 76.5239 52.5454C76.4276 55.0513 77.143 57.5091 77.8492 59.9141C78.4499 61.9611 79.0805 64.0609 80.3989 65.7361C81.7174 67.4114 83.9071 68.5818 85.9753 68.0769C85.0261 67.3884 85.7162 65.8027 86.7435 65.2473C87.7707 64.692 89.0364 64.5956 89.9284 63.8245C90.8203 63.0535 91.0748 61.7959 91.3569 60.6508C91.7191 59.205 92.2419 57.7409 93.2944 56.6853C95.3603 54.6176 99.0909 55.7903 101.636 56.1276Z" fill="#72351C"/>
<path opacity="0.1" d="M92.1845 63.067C92.0079 64.3108 91.6158 66.4634 90.8775 67.822C89.902 69.5891 89.0678 71.4307 88.3828 73.3296C88.3828 73.3296 93.1979 77.0587 95.6399 79.606C96.3896 80.4047 97.3546 80.9685 98.4181 81.2292C99.4816 81.4899 100.598 81.4362 101.631 81.0747C102.906 80.6157 104.023 79.7139 104.319 78.0363C104.777 75.3858 104.232 73.387 103.709 72.2028C103.458 71.6429 103.328 71.0365 103.326 70.423C103.325 69.8095 103.452 69.2024 103.7 68.6412C103.881 68.2396 104.092 67.9275 104.328 67.8472C104.328 67.8472 99.625 66.8008 99.3636 68.1088C99.1022 69.4169 95.445 70.7227 94.6608 68.3704L94.4453 63.1818C94.4335 62.8891 94.3089 62.6125 94.0978 62.4097C93.8866 62.2069 93.6052 62.0938 93.3126 62.094C93.0387 62.0919 92.7733 62.1894 92.5658 62.3683C92.3583 62.5473 92.2228 62.7956 92.1845 63.067Z" fill="black"/>
<path d="M92.1845 63.3286C92.0079 64.5724 91.6158 66.725 90.8775 68.0835C89.902 69.8506 89.0678 71.6922 88.3828 73.5911C88.3828 73.5911 93.1979 77.3203 95.6399 79.8676C96.3896 80.6662 97.3546 81.2301 98.4181 81.4908C99.4816 81.7515 100.598 81.6978 101.631 81.3363C102.906 80.8773 104.023 79.9754 104.319 78.2979C104.777 75.6473 104.232 73.6485 103.709 72.4644C103.456 71.9037 103.323 71.2959 103.321 70.6807C103.318 70.0655 103.445 69.4565 103.693 68.8936C103.874 68.492 104.085 68.1799 104.321 68.0996C104.321 68.0996 99.6181 67.0531 99.3567 68.3612C99.0954 69.6693 95.445 70.9865 94.654 68.6412L94.4384 63.4525C94.4266 63.1599 94.302 62.8832 94.0909 62.6804C93.8797 62.4776 93.5984 62.3645 93.3057 62.3648C93.0344 62.364 92.7718 62.4609 92.5659 62.6379C92.36 62.8148 92.2247 63.06 92.1845 63.3286Z" fill="#72351C"/>
<path d="M185.557 137.716C185.557 137.716 180.836 132.986 179.1 126.701H179.506L179.311 126.155H179.506L178.891 124.406C180.632 122.694 181.918 121.035 182.127 120.092C182.48 118.504 182.831 109.912 183.044 103.941L183.232 103.986C183.69 103.202 183.787 102.213 183.755 101.315C183.772 100.307 183.642 99.3024 183.369 98.332L182.519 89.8066C182.437 89.0223 182.197 88.2628 181.812 87.5744C181.428 86.886 180.908 86.283 180.283 85.8021L171.662 79.108C172.116 78.4955 172.692 77.9844 173.354 77.6072C173.847 77.3456 174.42 77.1666 174.753 76.7191C175.353 75.909 174.842 74.7019 175.253 73.7794C175.56 73.091 176.316 72.7054 176.759 72.0881C177.665 70.8236 177.009 69.0773 176.332 67.6774L172.402 59.5468C171.313 57.2955 170.215 55.0259 168.692 53.0432C164.031 46.9664 155.061 43.9441 147.749 46.5786C145.665 47.329 143.745 48.7702 142.856 50.7988C142.546 51.5056 142.36 52.2767 141.911 52.9032C140.909 54.3007 138.953 54.5647 137.554 55.5698C135.768 56.8618 135.106 59.2943 135.356 61.4859C135.605 63.6775 136.61 65.7016 137.6 67.682C138.641 69.7474 139.717 71.8747 141.425 73.4398C142.223 74.1718 143.2 74.8511 143.454 75.9044C143.672 76.8086 143.287 77.7403 143.367 78.6766C143.401 79.0661 143.515 79.4443 143.702 79.7873C139.843 80.2715 137.105 83.4797 135.878 88.253C135.803 88.5491 135.773 88.712 135.773 88.712L135.229 93.6551C135.218 93.8685 135.229 94.075 135.229 94.2793C135.18 95.3915 135.417 96.4978 135.917 97.4921V114.848L119.408 125.308C116.932 126.409 117.482 135.219 122.435 136.869C127.388 138.519 131.792 128.078 131.792 128.078C134.808 127.876 139.879 123.851 142.606 120.734C142.974 121.33 143.464 121.84 144.043 122.233C142.076 126.671 138.185 135.853 138.806 137.716C139.18 138.841 148.843 138.944 159.287 138.724C159.554 138.872 159.834 138.996 160.124 139.093C161.238 139.465 162.325 139.222 163.334 138.623C174.633 138.299 185.557 137.716 185.557 137.716ZM171.614 104.062C171.843 103.427 172.595 103.08 173.602 102.915V109.609L171.614 104.062ZM170.653 80.54L170.685 80.4918L170.653 80.54Z" fill="url(#paint20_linear)"/>
<path d="M145.857 95.6951C145.857 95.6951 145.335 114.258 144.812 116.613C144.289 118.967 136.718 126.012 132.794 126.285C132.794 126.285 128.614 136.22 123.912 134.652C119.209 133.085 118.686 124.718 121.039 123.672L136.718 113.735V93.8638L145.857 95.6951Z" fill="#FDB797"/>
<path d="M145.466 118.439C145.466 118.439 138.674 133.081 139.458 135.435C140.242 137.79 183.868 135.435 183.868 135.435C183.868 135.435 175.769 127.33 177.337 118.439H145.466Z" fill="#3AD29F"/>
<path d="M150.691 75.0392C150.691 75.0392 151.737 85.2352 149.907 87.5897C148.077 89.9442 157.221 91.2614 158.006 91.2614C158.79 91.2614 167.15 88.386 168.716 87.5897C170.282 86.7934 171.589 81.054 171.589 81.054C171.589 81.054 163.752 82.6236 161.401 73.481L150.691 75.0392Z" fill="#FDB797"/>
<path d="M147.953 48.8826C145.975 49.5963 144.149 50.964 143.306 52.8917C143.012 53.5618 142.836 54.2939 142.409 54.8905C141.457 56.2169 139.6 56.4671 138.282 57.4148C136.585 58.6426 135.957 60.9512 136.193 63.0349C136.429 65.1187 137.383 67.0394 138.323 68.912C139.311 70.8787 140.334 72.8936 141.955 74.3807C142.712 75.0691 143.64 75.7208 143.881 76.7214C144.087 77.5797 143.723 78.477 143.799 79.3559C143.987 81.5291 146.582 82.5411 148.749 82.7821C149.691 82.8877 150.769 82.8922 151.434 82.2153C151.773 81.8664 151.945 81.3937 152.159 80.9577C152.652 79.959 153.411 79.1166 154.354 78.524C155.296 77.9313 156.384 77.6115 157.497 77.6001C158.61 77.5887 159.704 77.8861 160.659 78.4593C161.613 79.0326 162.39 79.8592 162.903 80.8475C163.412 81.8251 163.708 83.0139 164.632 83.6014C166.047 84.5193 167.941 83.443 168.989 82.1166C170.036 80.7902 170.789 79.1333 172.277 78.337C172.735 78.0868 173.29 77.9193 173.607 77.4925C174.178 76.7237 173.691 75.5763 174.081 74.7019C174.375 74.0433 175.092 73.683 175.512 73.0955C176.372 71.8953 175.741 70.2362 175.106 68.9074L171.373 61.1853C170.339 59.0465 169.296 56.8916 167.851 55.0076C163.415 49.2521 154.896 46.3812 147.953 48.8826Z" fill="#000066"/>
<path opacity="0.1" d="M157.483 89.4189C157.483 89.4189 167.67 89.4189 170.284 80.01L178.86 86.6651C179.452 87.1245 179.944 87.6998 180.307 88.3559C180.669 89.0121 180.895 89.7353 180.969 90.4814L181.778 98.5776C181.778 98.5776 182.696 101.584 181.648 103.415C181.648 103.415 170.807 100.661 170.545 103.808L178.112 124.984C178.112 124.984 166.356 125.246 163.222 123.149C163.222 123.149 150.42 125.762 147.286 122.887C144.151 120.012 141.017 120.273 143.617 113.735C143.617 113.735 138.392 108.505 140.744 101.185C143.097 93.864 140.875 101.315 140.875 101.315C140.875 101.315 135.801 98.8324 136.062 94.1141L136.585 89.4074C136.585 89.4074 136.612 89.2514 136.686 88.9714C138.279 82.7753 142.558 79.333 148.575 81.5269C150.333 82.1649 152.131 81.4328 152.131 81.4328C152.131 81.4328 150.168 89.9421 157.483 89.4189Z" fill="black"/>
<path d="M157.483 88.8955C157.483 88.8955 167.67 88.8955 170.284 79.4866L178.86 86.1416C179.452 86.6011 179.944 87.1764 180.307 87.8325C180.669 88.4886 180.895 89.2118 180.969 89.958L181.778 98.0542C181.778 98.0542 182.696 101.06 181.648 102.892C181.648 102.892 170.807 100.138 170.545 103.284L178.112 124.461C178.112 124.461 166.356 124.723 163.222 122.625C163.222 122.625 150.42 125.239 147.286 122.364C144.151 119.488 141.017 119.75 143.617 113.212C143.617 113.212 138.392 107.982 140.744 100.661C143.097 93.3406 140.875 100.792 140.875 100.792C140.875 100.792 135.801 98.3089 136.062 93.6022L136.585 88.8955C136.585 88.8955 136.612 88.7394 136.686 88.4594C138.279 82.2633 142.558 78.8211 148.575 81.0149C150.333 81.6529 152.131 80.9209 152.131 80.9209C152.131 80.9209 150.168 89.4187 157.483 88.8955Z" fill="#252A62"/>
<path d="M181.648 97.7858C181.648 97.7858 181.125 116.349 180.602 118.703C180.079 121.058 172.504 128.112 168.585 128.376C168.585 128.376 164.405 138.311 159.702 136.743C154.999 135.176 154.477 126.809 156.829 125.762L172.504 115.828V95.95L181.648 97.7858Z" fill="#FDB797"/>
<path opacity="0.1" d="M170.424 98.4399C170.424 98.4399 176.431 102.52 181.659 102.181C181.659 102.181 182.182 95.172 180.614 94.7796C179.045 94.3872 172.242 94.7796 170.424 98.4399Z" fill="black"/>
<path d="M170.424 98.1782C170.424 98.1782 176.431 102.258 181.659 101.919C181.659 101.919 182.182 94.9103 180.614 94.5179C179.045 94.1255 172.242 94.5179 170.424 98.1782Z" fill="#252A62"/>
<path opacity="0.1" d="M161.924 73.9929L151.214 75.5626C151.214 75.5626 151.455 77.9217 151.503 80.6319C153.585 81.5108 155.873 81.7845 158.103 81.4217C160.334 81.0588 162.417 80.074 164.114 78.5803C163.21 77.4765 162.438 75.9849 161.924 73.9929Z" fill="black"/>
<path d="M155.655 81.0541C162.292 81.0541 167.673 75.6693 167.673 69.0268C167.673 62.3843 162.292 56.9995 155.655 56.9995C149.018 56.9995 143.638 62.3843 143.638 69.0268C143.638 75.6693 149.018 81.0541 155.655 81.0541Z" fill="#FDB797"/>
<path opacity="0.1" d="M158.822 66.7136C158.31 66.9062 157.762 66.9845 157.217 66.9431C155.092 66.9293 152.968 66.8528 150.845 66.7136C149.239 66.6057 147.52 66.4152 146.279 65.3849C144.61 64.0079 144.346 61.3987 145.209 59.4068C146.071 57.4148 147.829 55.9461 149.687 54.8171C150.736 54.1548 151.872 53.642 153.062 53.2933C156.501 52.357 160.317 53.5067 163.052 55.8015C165.788 58.0964 167.532 61.4102 168.457 64.8616C168.775 66.0549 169.186 67.4778 170.367 67.8449C169.58 69.153 167.661 69.3618 166.285 68.7055C164.254 67.7394 163.213 64.0401 161.39 63.4572C159.356 62.8031 160.539 65.9241 158.822 66.7136Z" fill="black"/>
<path d="M158.822 66.4519C158.31 66.6445 157.762 66.7228 157.217 66.6814C155.092 66.6676 152.968 66.5911 150.845 66.4519C149.239 66.344 147.52 66.1536 146.279 65.1232C144.61 63.7463 144.346 61.137 145.209 59.1451C146.071 57.1532 147.829 55.6845 149.687 54.5554C150.735 53.895 151.87 53.3837 153.059 53.0362C156.499 52.0999 160.314 53.2496 163.05 55.5445C165.785 57.8393 167.53 61.1531 168.454 64.6045C168.773 65.7979 169.183 67.2207 170.364 67.5879C169.578 68.8959 167.659 69.1047 166.283 68.4484C164.251 67.4823 163.21 63.783 161.387 63.2001C159.356 62.5415 160.539 65.6579 158.822 66.4519Z" fill="#000066"/>
<path opacity="0.1" d="M143.507 113.081C147.425 112.033 151.464 111.505 155.52 111.511L143.507 113.081Z" fill="black"/>
<path opacity="0.1" d="M170.424 98.9631C170.424 98.9631 166.505 101.839 167.551 103.408L170.424 98.9631Z" fill="black"/>
<g opacity="0.7">
<path opacity="0.7" d="M197.322 127.46H69.0537V138.687H76.5195V140.876V174H190.123V140.876V138.687H197.322V127.46Z" fill="url(#paint21_linear)"/>
</g>
<path d="M188.962 133.999H77.6748V174.002H188.962V133.999Z" fill="#E0E0E0"/>
<path opacity="0.1" d="M188.962 136.089H77.6748V142.363H188.962V136.089Z" fill="black"/>
<path d="M196.015 129.553H70.3604V140.272H196.015V129.553Z" fill="#E0E0E0"/>
<path d="M110.913 126.914H89.8595C89.0364 126.914 88.3691 127.582 88.3691 128.406V128.821C88.3691 129.645 89.0364 130.313 89.8595 130.313H110.913C111.736 130.313 112.404 129.645 112.404 128.821V128.406C112.404 127.582 111.736 126.914 110.913 126.914Z" fill="#535461"/>
<g opacity="0.7">
<path opacity="0.7" d="M156.263 89.0195H109.469C105.895 89.0195 102.998 91.919 102.998 95.4956V123.881C102.998 127.457 105.895 130.357 109.469 130.357H156.263C159.836 130.357 162.733 127.457 162.733 123.881V95.4956C162.733 91.919 159.836 89.0195 156.263 89.0195Z" fill="url(#paint22_linear)"/>
</g>
<path d="M154.495 89.7815H110.216C106.817 89.7815 104.062 92.5391 104.062 95.9409V124.195C104.062 127.597 106.817 130.354 110.216 130.354H154.495C157.894 130.354 160.649 127.597 160.649 124.195V95.9409C160.649 92.5391 157.894 89.7815 154.495 89.7815Z" fill="#3E3F49"/>
<path d="M155.279 89.7815H111C107.602 89.7815 104.846 92.5391 104.846 95.9409V124.195C104.846 127.597 107.602 130.354 111 130.354H155.279C158.678 130.354 161.433 127.597 161.433 124.195V95.9409C161.433 92.5391 158.678 89.7815 155.279 89.7815Z" fill="#535461"/>
<path d="M135.782 111.622C136.792 111.622 137.612 110.802 137.612 109.79C137.612 108.779 136.792 107.959 135.782 107.959C134.771 107.959 133.952 108.779 133.952 109.79C133.952 110.802 134.771 111.622 135.782 111.622Z" fill="#E0E0E0"/>
<path opacity="0.1" d="M60.9546 134.781C60.9546 134.781 62.5 137.051 67.0836 137.746L60.9546 134.781Z" fill="black"/>
</g>
<defs>
<linearGradient id="paint0_linear" x1="60.9596" y1="155.382" x2="89.807" y2="155.382" gradientUnits="userSpaceOnUse">
<stop stop-color="#808080" stop-opacity="0.25"/>
<stop offset="0.54" stop-color="#808080" stop-opacity="0.12"/>
<stop offset="1" stop-color="#808080" stop-opacity="0.1"/>
</linearGradient>
<linearGradient id="paint1_linear" x1="16303.4" y1="37741.5" x2="23254.5" y2="37741.5" gradientUnits="userSpaceOnUse">
<stop stop-color="#808080" stop-opacity="0.25"/>
<stop offset="0.54" stop-color="#808080" stop-opacity="0.12"/>
<stop offset="1" stop-color="#808080" stop-opacity="0.1"/>
</linearGradient>
<linearGradient id="paint2_linear" x1="16303.4" y1="37593.6" x2="23254.5" y2="37593.6" gradientUnits="userSpaceOnUse">
<stop stop-color="#808080" stop-opacity="0.25"/>
<stop offset="0.54" stop-color="#808080" stop-opacity="0.12"/>
<stop offset="1" stop-color="#808080" stop-opacity="0.1"/>
</linearGradient>
<linearGradient id="paint3_linear" x1="9264.96" y1="10688.3" x2="11080.6" y2="10688.3" gradientUnits="userSpaceOnUse">
<stop stop-color="#808080" stop-opacity="0.25"/>
<stop offset="0.54" stop-color="#808080" stop-opacity="0.12"/>
<stop offset="1" stop-color="#808080" stop-opacity="0.1"/>
</linearGradient>
<linearGradient id="paint4_linear" x1="11740.4" y1="48129.1" x2="17126.9" y2="48129.1" gradientUnits="userSpaceOnUse">
<stop stop-color="#808080" stop-opacity="0.25"/>
<stop offset="0.54" stop-color="#808080" stop-opacity="0.12"/>
<stop offset="1" stop-color="#808080" stop-opacity="0.1"/>
</linearGradient>
<linearGradient id="paint5_linear" x1="11655.8" y1="48129.1" x2="17042" y2="48129.1" gradientUnits="userSpaceOnUse">
<stop stop-color="#808080" stop-opacity="0.25"/>
<stop offset="0.54" stop-color="#808080" stop-opacity="0.12"/>
<stop offset="1" stop-color="#808080" stop-opacity="0.1"/>
</linearGradient>
<linearGradient id="paint6_linear" x1="10686.6" y1="38542.1" x2="15337.4" y2="38542.1" gradientUnits="userSpaceOnUse">
<stop stop-color="#808080" stop-opacity="0.25"/>
<stop offset="0.54" stop-color="#808080" stop-opacity="0.12"/>
<stop offset="1" stop-color="#808080" stop-opacity="0.1"/>
</linearGradient>
<linearGradient id="paint7_linear" x1="18184.6" y1="34985" x2="23625.1" y2="34985" gradientUnits="userSpaceOnUse">
<stop stop-color="#808080" stop-opacity="0.25"/>
<stop offset="0.54" stop-color="#808080" stop-opacity="0.12"/>
<stop offset="1" stop-color="#808080" stop-opacity="0.1"/>
</linearGradient>
<linearGradient id="paint8_linear" x1="18268" y1="34985" x2="23708.2" y2="34985" gradientUnits="userSpaceOnUse">
<stop stop-color="#808080" stop-opacity="0.25"/>
<stop offset="0.54" stop-color="#808080" stop-opacity="0.12"/>
<stop offset="1" stop-color="#808080" stop-opacity="0.1"/>
</linearGradient>
<linearGradient id="paint9_linear" x1="3244.41" y1="7211.78" x2="3636.09" y2="7211.78" gradientUnits="userSpaceOnUse">
<stop stop-color="#808080" stop-opacity="0.25"/>
<stop offset="0.54" stop-color="#808080" stop-opacity="0.12"/>
<stop offset="1" stop-color="#808080" stop-opacity="0.1"/>
</linearGradient>
<linearGradient id="paint10_linear" x1="2732.41" y1="4459.36" x2="2918.52" y2="4459.36" gradientUnits="userSpaceOnUse">
<stop stop-color="#808080" stop-opacity="0.25"/>
<stop offset="0.54" stop-color="#808080" stop-opacity="0.12"/>
<stop offset="1" stop-color="#808080" stop-opacity="0.1"/>
</linearGradient>
<linearGradient id="paint11_linear" x1="1460.3" y1="9974.05" x2="1486.46" y2="9974.05" gradientUnits="userSpaceOnUse">
<stop stop-color="#808080" stop-opacity="0.25"/>
<stop offset="0.54" stop-color="#808080" stop-opacity="0.12"/>
<stop offset="1" stop-color="#808080" stop-opacity="0.1"/>
</linearGradient>
<linearGradient id="paint12_linear" x1="1720.14" y1="10521.2" x2="1802.05" y2="10521.2" gradientUnits="userSpaceOnUse">
<stop stop-color="#808080" stop-opacity="0.25"/>
<stop offset="0.54" stop-color="#808080" stop-opacity="0.12"/>
<stop offset="1" stop-color="#808080" stop-opacity="0.1"/>
</linearGradient>
<linearGradient id="paint13_linear" x1="4974.12" y1="4437.71" x2="5642.73" y2="4437.71" gradientUnits="userSpaceOnUse">
<stop stop-color="#808080" stop-opacity="0.25"/>
<stop offset="0.54" stop-color="#808080" stop-opacity="0.12"/>
<stop offset="1" stop-color="#808080" stop-opacity="0.1"/>
</linearGradient>
<linearGradient id="paint14_linear" x1="7411.67" y1="4106.48" x2="8488.01" y2="4106.48" gradientUnits="userSpaceOnUse">
<stop stop-color="#808080" stop-opacity="0.25"/>
<stop offset="0.54" stop-color="#808080" stop-opacity="0.12"/>
<stop offset="1" stop-color="#808080" stop-opacity="0.1"/>
</linearGradient>
<linearGradient id="paint15_linear" x1="8993.84" y1="6448.64" x2="11727.1" y2="6448.64" gradientUnits="userSpaceOnUse">
<stop stop-color="#808080" stop-opacity="0.25"/>
<stop offset="0.54" stop-color="#808080" stop-opacity="0.12"/>
<stop offset="1" stop-color="#808080" stop-opacity="0.1"/>
</linearGradient>
<linearGradient id="paint16_linear" x1="13131.2" y1="8482.94" x2="17039.4" y2="8482.94" gradientUnits="userSpaceOnUse">
<stop stop-color="#808080" stop-opacity="0.25"/>
<stop offset="0.54" stop-color="#808080" stop-opacity="0.12"/>
<stop offset="1" stop-color="#808080" stop-opacity="0.1"/>
</linearGradient>
<linearGradient id="paint17_linear" x1="13091.3" y1="8449.07" x2="16998.3" y2="8449.07" gradientUnits="userSpaceOnUse">
<stop stop-color="#808080" stop-opacity="0.25"/>
<stop offset="0.54" stop-color="#808080" stop-opacity="0.12"/>
<stop offset="1" stop-color="#808080" stop-opacity="0.1"/>
</linearGradient>
<linearGradient id="paint18_linear" x1="8296.79" y1="7525.59" x2="9525.68" y2="7525.59" gradientUnits="userSpaceOnUse">
<stop stop-color="#808080" stop-opacity="0.25"/>
<stop offset="0.54" stop-color="#808080" stop-opacity="0.12"/>
<stop offset="1" stop-color="#808080" stop-opacity="0.1"/>
</linearGradient>
<linearGradient id="paint19_linear" x1="8296.79" y1="7549.12" x2="9525.68" y2="7549.12" gradientUnits="userSpaceOnUse">
<stop stop-color="#808080" stop-opacity="0.25"/>
<stop offset="0.54" stop-color="#808080" stop-opacity="0.12"/>
<stop offset="1" stop-color="#808080" stop-opacity="0.1"/>
</linearGradient>
<linearGradient id="paint20_linear" x1="51864.6" y1="63513.9" x2="51864.6" y2="25301.3" gradientUnits="userSpaceOnUse">
<stop stop-color="#808080" stop-opacity="0.25"/>
<stop offset="0.54" stop-color="#808080" stop-opacity="0.12"/>
<stop offset="1" stop-color="#808080" stop-opacity="0.1"/>
</linearGradient>
<linearGradient id="paint21_linear" x1="74413.6" y1="35414.7" x2="74413.6" y2="25976.4" gradientUnits="userSpaceOnUse">
<stop stop-color="#808080" stop-opacity="0.25"/>
<stop offset="0.54" stop-color="#808080" stop-opacity="0.12"/>
<stop offset="1" stop-color="#808080" stop-opacity="0.1"/>
</linearGradient>
<linearGradient id="paint22_linear" x1="34642" y1="23570.1" x2="34642" y2="16124.1" gradientUnits="userSpaceOnUse">
<stop stop-color="#808080" stop-opacity="0.25"/>
<stop offset="0.54" stop-color="#808080" stop-opacity="0.12"/>
<stop offset="1" stop-color="#808080" stop-opacity="0.1"/>
</linearGradient>
<clipPath id="clip0">
<rect width="227" height="174" fill="white" transform="translate(0.288574)"/>
</clipPath>
</defs>
</svg>
