<svg width="252" height="404" viewBox="0 0 252 404" fill="none" xmlns="http://www.w3.org/2000/svg">
<rect width="252" height="404" rx="16" fill="#F9BF64"/>
<path d="M141.393 315.552L49.118 315.101L39.9492 293.549L72.3701 291.191L66.7195 267.561L130.844 259.232L69.4397 237.84L74.8638 236.548L173.601 252.691L168.164 289.567L160.391 309.833L141.393 315.552Z" fill="#6C63FF"/>
<path d="M50.5322 306.074C50.5322 306.074 56.1936 305.166 59.5904 309.176C59.5904 309.176 57.0994 311.142 51.74 308.419L50.5322 306.074Z" fill="#6C63FF"/>
<path d="M49.9401 305.985C49.9401 305.985 46.3276 310.44 48.1069 315.4C48.1069 315.4 51.0508 314.22 51.3716 308.206L49.9401 305.985Z" fill="#6C63FF"/>
<path d="M46.6943 298.661C46.6943 298.661 48.9589 294.498 58.0171 300.325C58.0171 300.325 56.8094 303.124 52.8086 302.897C48.8079 302.67 47.7511 300.855 46.6943 298.661Z" fill="#6C63FF"/>
<path d="M46.1096 298.361C46.1096 298.361 41.4107 297.821 40.9551 308.6C40.9551 308.6 43.934 309.219 46.0503 305.81C48.1666 302.4 47.2985 300.487 46.1096 298.361Z" fill="#6C63FF"/>
<path d="M43.3721 289.761C43.3721 289.761 46.0141 282.423 55.6007 287.643C55.6007 287.643 53.4116 294.376 44.3534 292.258L43.3721 289.761Z" fill="#6C63FF"/>
<path d="M40.4287 278.792C40.4287 278.792 45.4107 271.379 54.2425 278.252C54.2425 278.252 51.1476 285.211 41.1836 281.429L40.4287 278.792Z" fill="#6C63FF"/>
<path d="M39.3721 268.353C39.3721 268.353 45.1844 261.542 53.9299 268.353C53.9299 268.353 48.4195 274.33 39.3721 270.093V268.353Z" fill="#6C63FF"/>
<path d="M38.4658 258.214C38.4658 258.214 44.3537 251.103 52.7325 257.835C52.7325 257.835 46.0898 264.114 38.4658 259.878V258.214Z" fill="#6C63FF"/>
<path d="M38.9951 249.211C38.9951 249.211 45.1957 240.058 53.0354 246.261C53.0354 246.261 46.3927 254.128 38.9951 250.951V249.211Z" fill="#6C63FF"/>
<path d="M40.4287 238.696C40.4287 238.696 46.9959 229.618 54.6199 236.578C54.6199 236.578 46.845 244.445 40.4287 240.36V238.696Z" fill="#6C63FF"/>
<path d="M42.618 229.296C42.618 229.296 50.393 220.764 57.1759 224.163C57.1759 224.163 49.0747 233.225 42.2783 231.561L42.618 229.296Z" fill="#6C63FF"/>
<path d="M45.3355 220.387C45.3355 220.387 54.3074 209.936 59.5267 213.427C59.5267 213.427 52.9163 221.532 44.6992 222.343L45.3355 220.387Z" fill="#6C63FF"/>
<path d="M49.2582 210.053C49.2582 210.053 57.1114 201.521 62.8482 203.639C62.8482 203.639 56.13 212.49 48.2041 212.717L49.2582 210.053Z" fill="#6C63FF"/>
<path d="M52.8081 200.385C52.8081 200.385 61.4889 192.215 65.2631 193.653C65.2631 193.653 58.9979 202.73 52.4307 202.201L52.8081 200.385Z" fill="#6C63FF"/>
<path d="M56.2803 191.459C56.2803 191.459 63.7533 181.698 67.8322 182.454C67.8322 182.454 63.3004 191.157 56.2803 192.451V191.459Z" fill="#6C63FF"/>
<path d="M60.0496 179.423C60.0496 179.423 66.6546 171.942 70.224 171.958C70.224 171.958 65.0101 181.954 59.7773 181.863L60.0496 179.423Z" fill="#6C63FF"/>
<path d="M62.2812 171.41L68.6624 155.826C68.6624 155.826 68.9805 169.913 61.4697 174.301L62.2812 171.41Z" fill="#6C63FF"/>
<path d="M64.8722 154.224C64.8722 154.224 65.929 141.21 65.2497 140.151C65.2497 140.151 69.8111 150.971 64.8291 159.973L64.8722 154.224Z" fill="#6C63FF"/>
<path d="M43.1251 289.588C43.1251 289.588 36.5094 285.479 32.2256 295.532C32.2256 295.532 38.1134 299.45 43.9042 292.152L43.1251 289.588Z" fill="#6C63FF"/>
<path d="M40.2157 278.374C40.2157 278.374 32.1011 274.664 28.165 285.161C28.165 285.161 34.433 289.483 40.9544 281.027L40.2157 278.374Z" fill="#6C63FF"/>
<path d="M38.9954 268.977C38.9954 268.977 33.183 262.166 24.4375 268.977C24.4375 268.977 29.9479 274.954 38.9954 270.717V268.977Z" fill="#6C63FF"/>
<path d="M38.2667 258.214C38.2667 258.214 32.3789 251.103 24 257.835C24 257.835 30.6427 264.114 38.2667 259.878V258.214Z" fill="#6C63FF"/>
<path d="M38.9942 249.471C38.9942 249.471 34.8641 239.218 25.8867 243.627C25.8867 243.627 30.7393 252.718 38.6275 251.173L38.9942 249.471Z" fill="#6C63FF"/>
<path d="M40.9492 238.645C40.9492 238.645 36.8433 228.213 27.7393 233.049C27.7393 233.049 33.3144 242.611 40.5448 240.255L40.9492 238.645Z" fill="#6C63FF"/>
<path d="M43.4952 229.349C43.4952 229.349 41.8776 217.912 34.3291 216.888C34.3291 216.888 35.9305 228.949 42.4788 231.41L43.4952 229.349Z" fill="#6C63FF"/>
<path d="M45.5261 220.409C45.5261 220.409 44.8953 206.63 38.6543 206.149C38.6543 206.149 38.8646 216.607 44.8225 222.359L45.5261 220.409Z" fill="#6C63FF"/>
<path d="M49.905 209.667C49.905 209.667 48.0449 198.209 42.0869 196.809C42.0869 196.809 42.8256 207.905 49.3146 212.479L49.905 209.667Z" fill="#6C63FF"/>
<path d="M53.5146 200.481C53.5146 200.481 53.4526 188.544 49.8132 186.791C49.8132 186.791 47.5567 197.598 52.4606 202.004L53.5146 200.481Z" fill="#6C63FF"/>
<path d="M56.5582 191.324C56.5582 191.324 56.0487 179.034 52.2798 177.302C52.2798 177.302 50.9912 187.028 55.9947 192.129L56.5582 191.324Z" fill="#6C63FF"/>
<path d="M60.5753 180.404C60.5753 180.404 60.5537 170.408 57.8632 168.062C57.8632 168.062 55.1889 179.013 59.1707 182.414L60.5753 180.404Z" fill="#6C63FF"/>
<path d="M61.9665 170.918L59.3488 154.281C59.3488 154.281 55.7929 167.914 62.0906 173.922L61.9665 170.918Z" fill="#6C63FF"/>
<path d="M62.4763 154.381C62.4763 154.381 55.7581 143.196 55.8956 141.953C55.8956 141.953 56.61 153.676 65.0617 159.514L62.4763 154.381Z" fill="#6C63FF"/>
<path d="M63.2629 151.077C63.2629 151.077 56.9221 135.191 54.0537 133.905C54.0537 133.905 63.1119 138.519 63.7913 150.623L63.2629 151.077Z" fill="#6C63FF"/>
<path d="M59.7446 181.957L59.3105 181.825C64.6619 164.336 65.9964 153.186 63.0713 150.39L63.3814 150.061C66.4843 153.011 65.2254 164.039 59.7446 181.957Z" fill="#444053"/>
<path d="M45.0088 222.904L44.3672 222.675C44.936 221.073 45.548 219.446 46.1896 217.844C51.7755 203.892 56.5311 190.913 59.5801 180.949L60.1382 180.679C57.0837 190.662 52.4117 204.138 46.8205 218.109C46.1815 219.681 45.5723 221.3 45.0088 222.904Z" fill="#444053"/>
<path d="M58.5097 319.161C58.4235 319.067 49.7508 309.278 43.7039 292.568C40.1607 282.785 38.1889 272.5 37.8619 262.098C37.4467 249.095 40.1696 234.576 44.8335 221.386L45.3403 221.98C34.8694 251.583 39.0292 276.949 44.5477 292.225C50.5299 308.784 59.1055 318.464 59.1891 318.561L58.5097 319.161Z" fill="#444053"/>
<path d="M194.039 298.38C194.039 298.38 187.927 305.856 192.78 317.157L143.984 338.365L139.301 339.349L137.145 329.893L138.587 317.959V311.437L194.039 298.38Z" fill="#D5D6DB"/>
<path d="M39.9492 293.549L107.487 281.21L196.977 295.497L141.393 315.552L39.9492 293.549Z" fill="#6C63FF"/>
<path d="M39.9492 293.549L107.487 281.21L196.977 295.497L141.393 315.552L39.9492 293.549Z" fill="#6C63FF"/>
<path d="M39.9488 293.547C39.9488 293.547 33.6323 305.54 40.9112 316.617L141.064 338.366C141.064 338.366 134.847 328.812 141.385 315.552L39.9488 293.547Z" fill="#6C63FF"/>
<path opacity="0.1" d="M39.9488 293.547C39.9488 293.547 33.6323 305.54 40.9112 316.617L141.064 338.366C141.064 338.366 134.847 328.812 141.385 315.552L39.9488 293.547Z" fill="black"/>
<path opacity="0.1" d="M42.9335 297.705C42.9335 297.705 39.3237 306.48 42.9335 312.159V297.705Z" fill="black"/>
<path d="M141.064 338.366L196.977 314.456C196.977 314.456 200.104 315.131 198.082 317.427C196.06 319.724 142.142 340.662 142.142 340.662L40.9111 316.617L141.064 338.366Z" fill="#6C63FF"/>
<path opacity="0.1" d="M141.064 338.366L196.977 314.456C196.977 314.456 200.104 315.131 198.082 317.427C196.06 319.724 142.142 340.662 142.142 340.662L40.9111 316.617L141.064 338.366Z" fill="black"/>
<path opacity="0.1" d="M136.481 317.968C136.481 317.968 131.09 324.452 136.481 334.178V317.968Z" fill="black"/>
<path opacity="0.1" d="M162.585 317.858L138.4 325.944L138.486 326.2L162.67 318.114L162.585 317.858Z" fill="black"/>
<path opacity="0.1" d="M167.429 317.053L138.393 328.119L138.488 328.371L167.525 317.306L167.429 317.053Z" fill="black"/>
<path opacity="0.1" d="M171.877 317.015L138.554 330.684L138.656 330.934L171.979 317.265L171.877 317.015Z" fill="black"/>
<path opacity="0.1" d="M176.715 315.844L138.943 332.943L139.054 333.19L176.826 316.09L176.715 315.844Z" fill="black"/>
<path opacity="0.1" d="M180.779 315.85L139.242 334.044L139.35 334.292L180.887 316.097L180.779 315.85Z" fill="black"/>
<path opacity="0.1" d="M189.67 314.336L139.869 335.892L139.976 336.14L189.776 314.584L189.67 314.336Z" fill="black"/>
<path opacity="0.3" d="M65.0391 294.867L112.487 284.871L141.392 290.41L102.512 302.973L65.0391 294.867Z" fill="white"/>
<path d="M196.977 295.497C196.977 295.497 199.43 296.489 197.991 298.02C196.551 299.552 141.385 315.552 141.385 315.552L196.977 295.497Z" fill="#6C63FF"/>
<path d="M220.807 272.395C220.807 272.395 214.698 279.868 219.55 291.172L170.755 312.381L166.072 313.369L163.915 303.913L165.379 291.983V285.452L220.807 272.395Z" fill="#D5D6DB"/>
<path d="M66.7188 267.561L134.254 255.225L223.747 269.512L168.163 289.567L66.7188 267.561Z" fill="#3A3768"/>
<path d="M66.7084 267.561C66.7084 267.561 60.3893 279.554 67.6682 290.631L167.821 312.38C167.821 312.38 161.607 302.818 168.152 289.564L66.7084 267.561Z" fill="#3A3768"/>
<path opacity="0.1" d="M66.7084 267.561C66.7084 267.561 60.3893 279.554 67.6682 290.631L167.821 312.38C167.821 312.38 161.607 302.818 168.152 289.564L136.481 282.693L66.7084 267.561Z" fill="black"/>
<path opacity="0.1" d="M69.7008 271.719C69.7008 271.719 66.0937 280.492 69.7008 286.173V271.719Z" fill="black"/>
<path d="M167.832 312.38L223.748 288.47C223.748 288.47 226.873 289.146 224.851 291.442C222.829 293.739 168.911 314.677 168.911 314.677L67.6797 290.632L167.832 312.38Z" fill="#3A3768"/>
<path opacity="0.1" d="M167.832 312.38L223.748 288.47C223.748 288.47 226.873 289.146 224.851 291.442C222.829 293.739 168.911 314.677 168.911 314.677L67.6797 290.632L167.832 312.38Z" fill="black"/>
<path opacity="0.1" d="M163.249 291.982C163.249 291.982 157.857 298.467 163.249 308.193V291.982Z" fill="black"/>
<path opacity="0.1" d="M189.355 291.875L165.17 299.961L165.255 300.218L189.44 292.132L189.355 291.875Z" fill="black"/>
<path opacity="0.1" d="M194.201 291.069L165.165 302.135L165.261 302.387L194.297 291.322L194.201 291.069Z" fill="black"/>
<path opacity="0.1" d="M198.646 291.027L165.323 304.696L165.425 304.946L198.748 291.277L198.646 291.027Z" fill="black"/>
<path opacity="0.1" d="M203.488 289.857L165.716 306.956L165.827 307.202L203.599 290.103L203.488 289.857Z" fill="black"/>
<path opacity="0.1" d="M207.548 289.859L166.011 308.054L166.119 308.302L207.656 290.107L207.548 289.859Z" fill="black"/>
<path opacity="0.1" d="M216.439 288.347L166.639 309.902L166.746 310.15L216.546 288.595L216.439 288.347Z" fill="black"/>
<path opacity="0.45" d="M91.8096 268.883L139.257 258.886L168.163 264.425L129.283 276.988L91.8096 268.883Z" fill="white"/>
<path d="M223.747 269.512C223.747 269.512 226.198 270.504 224.761 272.033C223.324 273.562 168.163 289.564 168.163 289.564L223.747 269.512Z" fill="#3A3768"/>
<path d="M223.341 242.667C223.341 242.667 217.229 256.087 222.082 267.388L173.286 282.653L168.614 283.644L166.457 274.188L167.899 262.255V255.725L223.341 242.667Z" fill="#D5D6DB"/>
<path d="M69.0215 237.788L136.559 225.45L226.052 239.736L170.465 259.791L69.0215 237.788Z" fill="#000066"/>
<path d="M69.2619 237.834C69.2619 237.834 62.9347 249.827 70.2136 260.904L170.366 282.653C170.366 282.653 164.15 273.092 170.695 259.84L69.2619 237.834Z" fill="#000066"/>
<path opacity="0.1" d="M169.969 260.194C166.917 266.683 166.853 272.284 167.584 276.306C167.96 278.373 168.545 280.019 169.039 281.152C169.167 281.447 169.29 281.708 169.401 281.932L70.5206 260.459C67.0752 255.107 66.8497 249.549 67.5024 245.291C67.8322 243.14 68.3855 241.328 68.856 240.055C69.0911 239.419 69.3052 238.918 69.4595 238.578C69.4881 238.515 69.5146 238.458 69.5389 238.406L169.969 260.194Z" fill="#7C7CFF" stroke="black"/>
<path opacity="0.1" d="M72.246 241.992C72.246 241.992 68.6362 250.767 72.246 256.446V241.992Z" fill="black"/>
<path d="M170.377 282.653L226.29 264.687C226.29 264.687 229.417 265.362 227.396 267.659C225.374 269.955 171.456 284.95 171.456 284.95L70.2246 260.904L170.377 282.653Z" fill="#000066"/>
<path opacity="0.1" d="M170.377 282.653L226.29 264.687C226.29 264.687 229.417 265.362 227.396 267.659C225.374 269.955 171.456 284.95 171.456 284.95L70.2246 260.904L170.377 282.653Z" fill="#000066"/>
<path opacity="0.1" d="M165.793 262.255C165.793 262.255 160.401 268.739 165.793 278.465V262.255Z" fill="black"/>
<path opacity="0.1" d="M191.9 262.148L167.715 270.234L167.8 270.49L191.985 262.404L191.9 262.148Z" fill="black"/>
<path opacity="0.1" d="M196.745 261.343L167.709 272.409L167.805 272.661L196.841 261.596L196.745 261.343Z" fill="black"/>
<path opacity="0.1" d="M201.187 261.302L167.864 274.971L167.966 275.221L201.289 261.552L201.187 261.302Z" fill="black"/>
<path opacity="0.1" d="M206.033 260.13L168.262 277.229L168.373 277.476L206.144 260.376L206.033 260.13Z" fill="black"/>
<path opacity="0.1" d="M210.095 260.134L168.558 278.329L168.666 278.577L210.203 260.382L210.095 260.134Z" fill="black"/>
<path opacity="0.1" d="M218.985 258.623L169.185 280.179L169.291 280.427L219.092 258.872L218.985 258.623Z" fill="black"/>
<path opacity="0.3" d="M94.3516 239.156L141.799 229.16L170.705 234.698L131.825 247.261L94.3516 239.156Z" fill="white"/>
<path d="M226.29 239.785C226.29 239.785 228.743 240.776 227.304 242.308C225.864 243.84 170.706 259.84 170.706 259.84L226.29 239.785Z" fill="#000066"/>
<path d="M107.687 157.772C107.687 157.772 97.4423 157.153 98.6393 164.356C98.6393 164.356 98.3993 165.628 99.5505 166.206C99.5505 166.206 99.5694 165.666 100.602 165.852C100.97 165.916 101.345 165.934 101.718 165.906C102.221 165.872 102.698 165.675 103.079 165.345C103.079 165.345 105.961 164.15 107.083 159.428C107.083 159.428 107.913 158.398 107.892 158.134L106.155 158.874C106.155 158.874 106.746 160.125 106.282 161.165C106.282 161.165 106.226 158.92 105.891 158.971C105.824 158.971 104.994 159.406 104.994 159.406C104.994 159.406 106.01 161.586 105.242 163.17C105.242 163.17 105.533 160.484 104.675 159.563L103.457 160.276C103.457 160.276 104.646 162.527 103.84 164.364C103.84 164.364 104.047 161.546 103.201 160.449L102.095 161.314C102.095 161.314 103.214 163.532 102.532 165.055C102.532 165.055 102.443 161.776 101.858 161.527C101.858 161.527 100.89 162.381 100.745 162.732C100.745 162.732 101.51 164.353 101.033 165.193C101.033 165.193 100.745 163.008 100.494 162.997C100.494 162.997 99.5316 164.445 99.4319 165.428C99.4785 164.511 99.7638 163.623 100.26 162.851C99.7048 162.956 99.1931 163.222 98.7875 163.615C98.7875 163.615 98.9358 162.591 100.499 162.502C100.499 162.502 101.295 161.403 101.508 161.338C101.508 161.338 99.9522 161.205 99.0113 161.624C99.0113 161.624 99.8416 160.66 101.791 161.084L102.869 160.192C102.869 160.192 100.826 159.922 99.9576 160.222C99.9576 160.222 100.958 159.368 103.163 159.99L104.352 159.279C104.352 159.279 102.608 158.904 101.57 159.039C101.57 159.039 102.664 158.447 104.7 159.087L105.546 158.706C105.546 158.706 104.271 158.455 103.896 158.415C103.522 158.374 103.503 158.271 103.503 158.271C104.312 158.138 105.142 158.232 105.902 158.542C105.902 158.542 107.722 157.885 107.687 157.772Z" fill="#F9BF64"/>
<path opacity="0.5" d="M251.808 187.377C251.808 187.377 241.563 186.758 242.76 193.961C242.76 193.961 242.52 195.234 243.672 195.812C243.672 195.812 243.69 195.271 244.723 195.458C245.092 195.52 245.466 195.538 245.839 195.512C246.337 195.475 246.81 195.278 247.187 194.95C247.187 194.95 250.072 193.756 251.19 189.033C251.19 189.033 252.021 188.004 251.999 187.739L250.268 188.479C250.268 188.479 250.859 189.73 250.395 190.77C250.395 190.77 250.339 188.525 250.007 188.577C249.94 188.577 249.107 189.012 249.107 189.012C249.107 189.012 250.123 191.192 249.357 192.775C249.357 192.775 249.648 190.09 248.788 189.168L247.57 189.882C247.57 189.882 248.759 192.132 247.953 193.969C247.953 193.969 248.16 191.151 247.314 190.054L246.211 190.919C246.211 190.919 247.327 193.137 246.645 194.661C246.645 194.661 246.556 191.381 245.971 191.132C245.971 191.132 245.006 191.986 244.858 192.337C244.858 192.337 245.623 193.958 245.149 194.799C245.149 194.799 244.858 192.613 244.61 192.602C244.61 192.602 243.647 194.05 243.548 195.034C243.594 194.117 243.881 193.228 244.378 192.456C243.823 192.562 243.31 192.827 242.903 193.221C242.903 193.221 243.054 192.197 244.615 192.108C244.615 192.108 245.41 191.008 245.623 190.941C245.623 190.941 244.071 190.811 243.127 191.23C243.127 191.23 243.957 190.265 245.906 190.689L246.985 189.798C246.985 189.798 244.939 189.528 244.073 189.828C244.073 189.828 245.071 188.974 247.279 189.595L248.465 188.885C248.465 188.885 246.721 188.509 245.683 188.644C245.683 188.644 246.777 188.052 248.813 188.693L249.662 188.312C249.662 188.312 248.384 188.061 248.009 188.02C247.635 187.98 247.616 187.877 247.616 187.877C248.425 187.742 249.256 187.836 250.015 188.147C250.015 188.147 251.84 187.491 251.808 187.377Z" fill="#F9BF64"/>
<path opacity="0.5" d="M124.94 202.269C124.94 202.269 120.475 192.994 114.792 197.565C114.792 197.565 113.566 197.976 113.625 199.265C113.625 199.265 114.097 199.019 114.434 200.013C114.56 200.364 114.726 200.7 114.93 201.013C115.206 201.436 115.612 201.759 116.086 201.931C116.086 201.931 118.532 203.871 123.193 202.547C123.193 202.547 124.495 202.771 124.708 202.615L123.22 201.461C123.22 201.461 122.411 202.588 121.284 202.688C121.284 202.688 123.214 201.545 123.007 201.28C122.964 201.226 122.198 200.705 122.198 200.705C122.198 200.705 120.794 202.658 119.041 202.758C119.041 202.758 121.521 201.704 121.904 200.502L120.691 199.783C120.691 199.783 119.308 201.923 117.316 202.112C117.316 202.112 119.872 200.921 120.413 199.646L119.125 199.105C119.125 199.105 117.736 201.164 116.076 201.312C116.076 201.312 118.89 199.635 118.82 199C118.82 199 117.604 198.573 117.227 198.613C117.227 198.613 116.197 200.07 115.226 200.07C115.226 200.07 116.987 198.749 116.879 198.535C116.879 198.535 115.148 198.4 114.237 198.805C115.058 198.396 115.972 198.21 116.887 198.265C116.524 197.831 116.042 197.513 115.501 197.349C115.501 197.349 116.467 196.982 117.305 198.303C117.305 198.303 118.653 198.462 118.812 198.616C118.812 198.616 118.168 197.195 117.345 196.576C117.345 196.576 118.591 196.828 119.16 198.738L120.467 199.256C120.467 199.256 119.715 197.333 119.022 196.725C119.022 196.725 120.252 197.182 120.788 199.427L121.985 200.118C121.985 200.118 121.465 198.408 120.839 197.568C120.839 197.568 121.888 198.238 122.322 200.329L123.069 200.886C123.069 200.886 122.664 199.646 122.53 199.3C122.395 198.954 122.462 198.884 122.462 198.884C122.975 199.525 123.3 200.297 123.4 201.113C123.4 201.113 124.843 202.35 124.94 202.269Z" fill="#F9BF64"/>
<path opacity="0.5" d="M228.403 174.274C228.403 174.274 223.942 164.999 218.256 169.57C218.256 169.57 217.032 169.981 217.089 171.269C217.089 171.269 217.563 171.026 217.898 172.018C218.023 172.371 218.191 172.707 218.396 173.02C218.671 173.443 219.076 173.765 219.55 173.936C219.55 173.936 221.998 175.876 226.657 174.555C226.657 174.555 227.959 174.776 228.174 174.62L226.694 173.463C226.694 173.463 225.886 174.593 224.761 174.693C224.761 174.693 226.689 173.547 226.481 173.282C226.438 173.228 225.673 172.707 225.673 172.707C225.673 172.707 224.271 174.66 222.516 174.76C222.516 174.76 224.999 173.706 225.381 172.507L224.149 171.794C224.149 171.794 222.769 173.931 220.774 174.122C220.774 174.122 223.33 172.928 223.874 171.653L222.583 171.113C222.583 171.113 221.195 173.174 219.537 173.32C219.537 173.32 222.349 171.642 222.278 171.01C222.278 171.01 221.065 170.581 220.688 170.624C220.688 170.624 219.658 172.077 218.685 172.077C218.685 172.077 220.448 170.756 220.34 170.543C220.34 170.543 218.609 170.408 217.695 170.813C218.516 170.404 219.43 170.217 220.345 170.273C219.984 169.838 219.503 169.52 218.962 169.357C218.962 169.357 219.928 168.989 220.766 170.31C220.766 170.31 222.114 170.472 222.273 170.626C222.273 170.626 221.629 169.203 220.804 168.584C220.804 168.584 222.049 168.838 222.618 170.759L223.928 171.278C223.928 171.278 223.176 169.351 222.483 168.743C222.483 168.743 223.713 169.2 224.246 171.445L225.446 172.137C225.446 172.137 224.923 170.429 224.298 169.586C224.298 169.586 225.349 170.256 225.78 172.347L226.527 172.904C226.527 172.904 226.125 171.664 225.988 171.318C225.85 170.972 225.921 170.905 225.921 170.905C226.432 171.547 226.756 172.318 226.856 173.134C226.856 173.134 228.32 174.36 228.403 174.274Z" fill="#F9BF64"/>
<path opacity="0.5" d="M242.662 220.151C242.662 220.151 238.2 210.873 232.506 215.445C232.506 215.445 231.282 215.855 231.339 217.144C231.339 217.144 231.813 216.901 232.148 217.893C232.272 218.245 232.439 218.582 232.644 218.895C232.918 219.318 233.324 219.64 233.797 219.811C233.797 219.811 236.245 221.753 240.907 220.429C240.907 220.429 242.206 220.654 242.422 220.494L240.934 219.341C240.934 219.341 240.125 220.47 238.998 220.57C238.998 220.57 240.925 219.424 240.718 219.16C240.675 219.106 239.909 218.584 239.909 218.584C239.909 218.584 238.507 220.538 236.752 220.64C236.752 220.64 239.235 219.584 239.618 218.384L238.402 217.666C238.402 217.666 237.022 219.805 235.027 219.994C235.027 219.994 237.583 218.8 238.127 217.525L236.836 216.985C236.836 216.985 235.447 219.043 233.789 219.192C233.789 219.192 236.604 217.514 236.534 216.879C236.534 216.879 235.318 216.45 234.941 216.493C234.941 216.493 233.911 217.947 232.937 217.947C232.937 217.947 234.701 216.625 234.593 216.412C234.593 216.412 232.862 216.277 231.948 216.682C232.77 216.273 233.685 216.087 234.601 216.142C234.239 215.707 233.757 215.388 233.215 215.226C233.215 215.226 234.18 214.856 235.019 216.18C235.019 216.18 236.367 216.339 236.526 216.493C236.526 216.493 235.881 215.072 235.059 214.451C235.059 214.451 236.305 214.705 236.874 216.625L238.181 217.144C238.181 217.144 237.429 215.218 236.736 214.613C236.736 214.613 237.965 215.067 238.499 217.314L239.699 218.003C239.699 218.003 239.176 216.296 238.55 215.453C238.55 215.453 239.602 216.123 240.036 218.217L240.783 218.757C240.783 218.757 240.378 217.517 240.243 217.171C240.109 216.825 240.176 216.758 240.176 216.758C240.689 217.399 241.013 218.171 241.111 218.987C241.111 218.987 242.578 220.232 242.662 220.151Z" fill="#F9BF64"/>
<path d="M216.746 230.931C214.983 226.13 205.278 225.679 201.067 226.903C198.074 227.776 191.766 228.759 188.396 229.253L188.178 229.045C188.614 228.916 188.625 228.597 188.571 228.124C188.54 227.501 188.549 226.876 188.598 226.255C190.663 226.898 192.502 225.376 192.502 225.376C194.928 224.296 194.276 219.67 194.739 218.406C195.087 217.46 195.462 211.889 195.629 209.112H195.664L195.683 208.18C195.707 207.777 195.718 207.542 195.718 207.542C195.718 207.542 195.955 200.75 196.419 199.375C196.85 198.111 197.201 191.74 197.255 190.73C197.255 190.643 197.255 190.597 197.255 190.597L197.22 190.008C197.244 189.579 197.255 189.1 197.252 188.598C197.252 186.288 197.012 183.378 196.982 182.908C196.982 182.841 196.982 182.76 196.982 182.662C197.001 181.676 196.877 176.737 192.685 174.87C191.14 174.179 189.283 173.355 187.485 172.552C187.021 168.54 185.962 164.55 186.053 160.508C186.053 159.9 186.107 159.292 186.166 158.687C186.166 158.863 186.148 159.041 186.145 159.228C186.145 159.619 186.145 160.014 186.145 160.405C186.304 155.351 188.21 150.269 188.032 145.322C188.016 145.805 187.981 146.292 187.935 146.778C188.028 145.105 187.853 143.427 187.417 141.81C187.256 141.239 187.037 140.65 186.571 140.27C186.13 139.963 185.624 139.762 185.093 139.683C183.818 139.356 182.522 139.114 181.214 138.959C181.015 138.35 180.72 137.776 180.341 137.26C177.607 133.499 173.558 129.965 168.77 129.155C166.368 128.749 163.604 129.087 161.971 130.808C161.8 130.959 161.64 131.122 161.491 131.294C160.612 132.345 160.235 133.726 159.334 134.774C159.275 134.844 159.207 134.909 159.143 134.977C157.38 136.557 154.633 136.887 152.673 138.305C152.327 138.56 152.004 138.843 151.705 139.151C150.915 139.935 150.207 140.798 149.591 141.726C148.71 142.969 147.804 144.263 147.523 145.746C146.96 148.718 148.979 151.536 149.354 154.527C150.19 161.219 142.8 167.157 144.199 173.76C144.573 175.382 145.397 176.865 146.577 178.037C143.695 180.652 141.242 183.189 141.242 183.189V183.34H140.786L140.832 183.881H140.786L141.037 186.812L140.786 191.081C140.786 191.081 140.786 191.127 140.786 191.213V191.235V191.351C140.786 191.351 140.786 191.397 140.786 191.483H140.803C140.886 193.048 141.218 198.673 141.611 199.859C142.075 201.234 142.31 208.026 142.31 208.026C142.31 208.026 142.822 217.625 143.291 218.895C143.76 220.165 143.094 224.777 145.528 225.865C146.241 226.413 147.084 226.763 147.974 226.881C147.85 227.892 147.928 228.624 148.33 228.854C148.501 228.955 148.696 229.011 148.896 229.016C148.73 229.261 148.584 229.519 148.456 229.786C147.49 229.685 146.541 229.46 145.631 229.118C143.016 228.038 134.338 225.606 131.817 227.316C129.296 229.027 123.231 230.577 126.032 237.461C128.833 244.345 130.138 244.518 130.138 244.518C131 245.145 131.756 245.907 132.378 246.774C133.219 248.041 141.056 250.94 143.016 250.94C143.849 250.927 144.682 250.969 145.51 251.064C145.51 251.064 143.383 252.934 143.666 254.02C143.949 255.106 143.019 263.8 143.019 263.8C143.019 263.8 145.175 265.978 146.097 263.122L146.13 263.165C146.302 263.401 147.235 264.462 148.99 263.122C149.708 262.576 150.471 262.092 151.271 261.674L159.768 260.469C160.654 260.414 161.542 260.407 162.429 260.45C163.777 260.561 165.101 259.761 165.934 259.143C167.694 259.813 169.673 260.545 170.614 260.812C172.523 261.353 181.295 263.711 183.347 262.974C183.773 262.804 184.152 262.533 184.452 262.185L186.409 262.247L185.492 262.431C185.492 262.431 187.277 262.46 189.703 262.493L189.601 262.552L192.645 262.525C197.098 262.566 202.102 262.579 202.76 262.431C203.79 262.201 209.141 262.363 210.718 262.431H211.157C211.157 262.431 217.037 261.255 214.611 255.276C212.745 250.684 207.011 249.349 204.466 248.981C205.183 248.838 205.801 248.727 206.21 248.663C207.987 248.392 211.438 246.771 211.718 246.218C211.999 245.664 214.891 244.056 215.638 243.14C216.385 242.224 218.517 235.732 216.746 230.931ZM168.045 244.367L167.756 244.461L167.562 244.526L167.19 244.894C166.893 244.694 166.575 244.483 166.244 244.267C166.829 244.302 167.43 244.337 168.045 244.367Z" fill="url(#paint0_linear)"/>
<path d="M185.233 215.88C185.233 215.88 189.358 226.687 191.704 225.606C194.049 224.525 193.413 219.932 193.86 218.673C194.308 217.414 194.804 207.867 194.804 207.867C194.804 207.867 195.03 201.112 195.478 199.745C195.893 198.489 196.23 192.153 196.287 191.156C196.287 191.07 196.287 191.024 196.287 191.024L195.842 183.189L193.324 182.56L187.484 184.721L186.676 189.349L186.36 191.156L186.225 191.926L185.233 215.88Z" fill="#BE6F72"/>
<path opacity="0.1" d="M186.592 214.07C186.592 214.07 190.528 217.298 191.714 217.582C192.9 217.866 193.628 220.384 193.628 220.384" fill="black"/>
<path d="M152.977 216.353C152.977 216.353 148.852 227.159 146.507 226.079C144.161 224.998 144.798 220.405 144.35 219.146C143.903 217.887 143.407 208.339 143.407 208.339C143.407 208.339 143.18 201.585 142.733 200.218C142.317 198.962 141.98 192.626 141.924 191.629C141.924 191.543 141.924 191.497 141.924 191.497L142.371 183.662L144.889 183.032L150.729 185.194L151.537 189.822L151.853 191.629L151.988 192.399L152.977 216.353Z" fill="#BE6F72"/>
<path d="M179.835 158.52H170.629V172.901H179.835V158.52Z" fill="#3E373A"/>
<path opacity="0.1" d="M179.835 158.52H170.629V172.901H179.835V158.52Z" fill="black"/>
<path d="M151.36 227.117C151.36 227.117 148.213 230.583 149.381 231.213C150.548 231.842 158.099 243.641 158.099 243.641C158.099 243.641 182.902 246.702 187.579 242.109C192.256 237.516 192.162 229.311 192.162 229.311C192.162 229.311 188.404 230.121 187.994 229.681C187.584 229.241 185.333 227.117 185.333 227.117C185.333 227.117 153.516 225.183 151.36 227.117Z" fill="#4B4B5B"/>
<path opacity="0.02" d="M151.36 227.117C151.36 227.117 148.213 230.583 149.381 231.213C150.548 231.842 158.099 243.641 158.099 243.641C158.099 243.641 182.902 246.702 187.579 242.109C192.256 237.516 192.162 229.311 192.162 229.311C192.162 229.311 188.404 230.121 187.994 229.681C187.584 229.241 185.333 227.117 185.333 227.117C185.333 227.117 153.516 225.183 151.36 227.117Z" fill="black"/>
<path d="M196.01 183.303L187.922 189.787L185.477 189.965L184.579 190.03L169.501 191.138L153.865 189.992L151.538 189.822L148.573 189.606L142.372 183.662C142.372 183.662 146.761 178.95 150.605 175.77C152.12 174.514 153.552 173.498 154.595 173.098L154.773 173.036C155.429 172.78 156.015 172.37 156.482 171.842C159.518 168.705 162.324 160.965 162.324 160.965C162.324 160.965 175.715 154.032 174.097 163.126C172.48 172.22 180.117 169.972 180.117 169.972L182.635 171.123L183.63 171.58L186.167 172.744L191.89 175.376C196.382 177.448 196.01 183.303 196.01 183.303Z" fill="#BE6F72"/>
<path opacity="0.1" d="M168.872 168.371C175.523 168.371 180.914 162.967 180.914 156.302C180.914 149.637 175.523 144.233 168.872 144.233C162.221 144.233 156.829 149.637 156.829 156.302C156.829 162.967 162.221 168.371 168.872 168.371Z" fill="black"/>
<path opacity="0.1" d="M196.028 191.899H141.924C141.924 191.813 141.924 191.767 141.924 191.767L142.371 183.932C142.371 183.932 146.76 179.22 150.605 176.04L184.573 174.689L186.153 173.02L191.876 175.651C196.37 177.721 196.009 183.575 196.009 183.575C196.009 183.575 196.624 190.359 196.028 191.899Z" fill="black"/>
<path d="M196.028 191.629H141.924C141.924 191.543 141.924 191.497 141.924 191.497L142.371 183.662C142.371 183.662 146.76 178.95 150.605 175.77L184.573 174.419L186.153 172.75L191.876 175.381C196.37 177.451 196.009 183.305 196.009 183.305C196.009 183.305 196.624 190.089 196.028 191.629Z" fill="#E7C7CA"/>
<path opacity="0.1" d="M160.199 169.659C160.199 169.659 168.734 180.558 180.103 169.435C191.471 158.312 181.362 194.245 181.362 194.245L156.829 197.163L160.199 169.659Z" fill="black"/>
<path d="M160.199 170.199C160.199 170.199 168.734 181.098 180.103 169.975C191.471 158.852 181.362 194.785 181.362 194.785L156.829 197.703L160.199 170.199Z" fill="#E7C7CA"/>
<path opacity="0.1" d="M183.616 172.112L184.519 185.915L185.487 190.508L186.226 194.021C186.226 194.021 188.113 221.038 187.574 222.389C187.034 223.739 187.843 224.82 187.956 225.539C188.07 226.257 187.843 228.062 187.932 228.873C188.021 229.683 187.932 230.043 185.867 229.754C183.802 229.464 180.923 228.962 180.923 228.962C180.923 228.962 173.644 229.502 171.129 228.603C168.613 227.703 163.85 227.7 163.85 227.7C163.85 227.7 156.66 227.881 154.325 227.611C151.99 227.341 150.729 230.494 149.203 229.591C147.677 228.689 150.998 219.957 152.077 217.434C153.155 214.91 150.64 208.518 150.64 208.518L153.875 190.533L154.595 186.456V173.639L154.773 173.577C155.429 173.32 156.015 172.911 156.482 172.382L157.29 185.28L182.632 186.183V171.667" fill="black"/>
<path d="M183.616 171.572L184.519 185.375L185.487 189.968L186.226 193.48C186.226 193.48 188.113 220.497 187.574 221.848C187.034 223.199 187.843 224.28 187.956 224.998C188.07 225.717 187.843 227.522 187.932 228.332C188.021 229.143 187.932 229.502 185.867 229.213C183.802 228.924 180.923 228.421 180.923 228.421C180.923 228.421 173.644 228.962 171.129 228.062C168.613 227.162 163.85 227.16 163.85 227.16C163.85 227.16 156.66 227.341 154.325 227.071C151.99 226.8 150.729 229.953 149.203 229.051C147.677 228.149 150.998 219.417 152.077 216.893C153.155 214.37 150.64 207.977 150.64 207.977L153.875 189.992L154.595 185.915V173.098L154.773 173.036C155.429 172.78 156.015 172.37 156.482 171.842L157.29 184.74L182.632 185.642V171.126" fill="#E7C7CA"/>
<path opacity="0.1" d="M186.53 142.766C186.376 142.202 186.163 141.615 185.721 141.237C185.299 140.933 184.811 140.733 184.297 140.654C183.068 140.33 181.818 140.089 180.556 139.935C180.375 139.335 180.102 138.767 179.747 138.252C177.105 134.513 173.196 130.987 168.597 130.19C166.189 129.771 163.399 130.147 161.857 132.049C161.01 133.094 160.646 134.48 159.792 135.507C158.145 137.501 155.171 137.747 153.095 139.289C151.987 140.1 151.184 141.275 150.399 142.415C149.55 143.65 148.676 144.936 148.407 146.411C147.868 149.359 149.811 152.168 150.17 155.143C150.979 161.797 143.862 167.7 145.207 174.266C145.991 178.094 149.52 180.79 153.171 182.157C154.456 182.641 155.926 183.122 156.527 184.359C156.797 184.9 156.842 185.524 157.096 186.07C157.948 187.89 160.749 187.961 162.253 186.634C163.757 185.308 164.232 183.162 164.41 181.16C165.132 172.418 161.638 163.78 162.045 155.016C162.167 152.366 162.911 149.359 165.281 148.159C168.47 146.538 172.306 149.24 175.816 148.724C177.477 152.774 177.83 157.244 176.824 161.505C176.266 163.837 175.301 166.098 175.231 168.503C175.126 172.164 177.097 175.508 178.8 178.745C179.166 179.35 179.411 180.021 179.52 180.72C179.547 181.429 179.415 182.135 179.135 182.787C178.172 185.383 176.512 187.793 176.323 190.557C176.268 190.88 176.34 191.211 176.525 191.481C176.715 191.661 176.96 191.772 177.221 191.794C180.132 192.294 182.65 189.709 184.071 187.112C185.655 184.245 186.578 181.058 186.772 177.786C187.066 172.285 185.098 166.874 185.219 161.368C185.36 155.108 188.182 148.805 186.53 142.766Z" fill="black"/>
<path d="M186.799 142.496C186.645 141.932 186.433 141.345 185.99 140.967C185.568 140.663 185.081 140.463 184.567 140.384C183.337 140.059 182.087 139.819 180.825 139.665C180.645 139.065 180.372 138.497 180.016 137.982C177.374 134.243 173.465 130.717 168.866 129.92C166.459 129.501 163.668 129.877 162.126 131.779C161.28 132.824 160.916 134.21 160.061 135.237C158.414 137.231 155.44 137.476 153.365 139.019C152.257 139.83 151.453 141.005 150.669 142.145C149.819 143.38 148.946 144.666 148.676 146.141C148.137 149.088 150.081 151.898 150.44 154.873C151.248 161.527 144.131 167.43 145.476 173.996C146.261 177.824 149.79 180.52 153.44 181.887C154.726 182.371 156.195 182.852 156.796 184.089C157.066 184.63 157.112 185.254 157.365 185.799C158.217 187.62 161.018 187.691 162.523 186.364C164.027 185.038 164.501 182.892 164.679 180.89C165.402 172.148 161.908 163.51 162.315 154.746C162.436 152.096 163.18 149.088 165.55 147.889C168.739 146.268 172.576 148.97 176.086 148.454C177.747 152.504 178.099 156.974 177.094 161.235C176.536 163.567 175.571 165.828 175.501 168.233C175.395 171.894 177.366 175.238 179.07 178.475C179.436 179.08 179.68 179.751 179.79 180.45C179.817 181.159 179.685 181.865 179.404 182.517C178.442 185.113 176.781 187.523 176.592 190.287C176.537 190.61 176.61 190.941 176.795 191.211C176.985 191.391 177.23 191.502 177.49 191.524C180.402 192.024 182.92 189.439 184.34 186.842C185.925 183.975 186.848 180.788 187.042 177.516C187.336 172.015 185.368 166.604 185.489 161.098C185.629 154.838 188.452 148.535 186.799 142.496Z" fill="#3E373A"/>
<path d="M180.845 262.12L191.539 262.463L190.005 254.515L181.813 255.295L180.845 262.12Z" fill="#C3C7D9"/>
<path d="M213.984 243.281C213.264 244.18 210.479 245.801 210.209 246.342C209.94 246.882 206.616 248.503 204.906 248.773C203.197 249.043 197.808 250.216 196.819 250.845C196.11 251.299 190.419 252.737 186.679 253.534C185.667 253.774 184.642 253.959 183.609 254.087C181.991 254.177 164.29 248.144 164.29 248.144L167.703 244.631L167.892 244.567C168.857 244.24 173.316 242.729 175.791 242.011C178.578 241.2 181.813 237.869 181.813 237.869C181.813 237.869 186.574 236.248 187.205 236.067C187.836 235.886 185.588 229.764 185.588 229.764C185.588 229.764 195.921 228.327 199.965 227.108C204.009 225.89 213.355 226.341 215.062 231.115C216.768 235.889 214.714 242.381 213.984 243.281Z" fill="#4B4B5B"/>
<path d="M166.894 258.499C166.894 258.499 164.829 260.661 162.761 260.482C160.693 260.304 153.463 261.023 153.463 261.023C152.153 261.547 150.926 262.259 149.821 263.138C148.13 264.473 147.233 263.408 147.065 263.181L147.036 263.138C146.135 265.978 144.07 263.814 144.07 263.814C144.07 263.814 144.968 255.168 144.693 254.087C144.418 253.007 146.47 251.151 146.47 251.151L148.896 250.532L155.043 248.954L163.85 252.015L166.894 258.499Z" fill="#E7C7CA"/>
<path opacity="0.1" d="M148.885 250.532L147.065 263.182L147.036 263.138C146.135 265.978 144.07 263.814 144.07 263.814C144.07 263.814 144.968 255.168 144.693 254.088C144.418 253.007 146.47 251.151 146.47 251.151L148.885 250.532Z" fill="black"/>
<path opacity="0.1" d="M161.604 214.551C161.604 214.551 166.365 216.172 170.501 214.551H161.604Z" fill="black"/>
<path opacity="0.1" d="M177.857 217.614C177.857 217.614 179.834 218.603 181.362 217.614H177.857Z" fill="black"/>
<path opacity="0.1" d="M177.857 219.96C177.857 219.96 181.182 220.406 181.812 219.506L177.857 219.96Z" fill="black"/>
<path opacity="0.1" d="M176.779 224.998C176.779 224.998 183.023 224.188 184.573 223.107L176.779 224.998Z" fill="black"/>
<path opacity="0.1" d="M157.728 223.107C157.728 223.107 161.232 225.087 163.839 224.998L157.728 223.107Z" fill="black"/>
<path opacity="0.1" d="M186.676 253.534C185.663 253.774 184.638 253.959 183.605 254.088C181.987 254.177 164.286 248.144 164.286 248.144L167.699 244.632L167.888 244.567C168.427 244.948 168.869 245.275 169.185 245.523C170.67 246.696 172.104 245.164 172.643 245.164C173.183 245.164 177.855 249.036 177.855 249.036C177.855 249.036 182.168 250.027 182.888 250.927C183.608 251.826 186.123 251.648 186.57 252.278C186.705 252.472 186.721 252.95 186.676 253.534Z" fill="black"/>
<path d="M153.463 230.132C153.463 230.132 149.101 230.383 146.585 229.321C144.07 228.26 135.713 225.809 133.287 227.53C130.86 229.251 125.018 230.772 127.714 237.618C130.41 244.465 131.669 244.643 131.669 244.643C132.503 245.27 133.231 246.027 133.826 246.885C134.635 248.147 142.183 251.027 144.07 251.027C145.957 251.027 149.281 251.027 153.953 254.269C158.625 257.511 162.85 257.873 162.85 257.873C162.85 257.873 168.781 260.305 170.628 260.845C172.474 261.385 180.912 263.725 182.891 263.006C184.87 262.288 186.126 257.781 186.126 257.781C186.126 257.781 187.024 253.729 186.574 253.099C186.124 252.47 183.608 252.648 182.891 251.748C182.174 250.849 177.858 249.857 177.858 249.857C177.858 249.857 173.197 245.983 172.658 245.983C172.118 245.983 170.684 247.512 169.199 246.342C166.24 244.146 163.131 242.16 159.895 240.398C156.482 238.596 153.463 230.132 153.463 230.132Z" fill="#4B4B5B"/>
<path opacity="0.1" d="M144.693 232.745C145.47 232.586 146.273 232.608 147.039 232.811C147.806 233.014 148.515 233.392 149.112 233.914C151.269 235.716 158.526 239.334 158.526 239.334" fill="black"/>
<path opacity="0.1" d="M198.616 232.63C198.616 232.63 189 234.089 187.204 236.07L198.616 232.63Z" fill="black"/>
<path d="M209.669 262.463H209.246C207.726 262.409 202.574 262.247 201.582 262.463C200.414 262.733 184.956 262.463 184.956 262.463L187.978 261.833C187.978 261.833 186.857 257.894 187.568 257.567C187.568 257.567 183.525 254.898 186.574 253.096C189.623 251.294 192.909 252.053 192.909 252.053L200.563 249.454L202.032 248.954C202.032 248.954 210.659 249.405 212.993 255.349C215.328 261.293 209.669 262.463 209.669 262.463Z" fill="#E7C7CA"/>
<path opacity="0.1" d="M209.669 262.463H209.246C211.756 260.388 217.433 254.072 200.562 249.468L202.032 248.968C202.032 248.968 210.659 249.419 212.993 255.363C215.328 261.307 209.669 262.463 209.669 262.463Z" fill="black"/>
<path d="M193.81 255.46C194.07 255.46 194.281 255.249 194.281 254.987C194.281 254.726 194.07 254.515 193.81 254.515C193.549 254.515 193.338 254.726 193.338 254.987C193.338 255.249 193.549 255.46 193.81 255.46Z" fill="#4B4B5B"/>
<path d="M191.067 256.242C191.328 256.242 191.539 256.03 191.539 255.769C191.539 255.508 191.328 255.296 191.067 255.296C190.807 255.296 190.596 255.508 190.596 255.769C190.596 256.03 190.807 256.242 191.067 256.242Z" fill="#4B4B5B"/>
<g opacity="0.1">
<path opacity="0.1" d="M177.71 155.856C177.814 152.884 177.287 149.924 176.162 147.173C172.657 147.697 168.819 144.987 165.627 146.608C163.265 147.808 162.524 150.815 162.391 153.465C162.359 154.165 162.354 154.864 162.367 155.564C162.367 155.316 162.367 155.064 162.391 154.816C162.516 152.165 163.257 149.158 165.627 147.959C168.819 146.338 172.652 149.04 176.162 148.523C177.115 150.854 177.639 153.338 177.71 155.856Z" fill="black"/>
<path opacity="0.1" d="M150.551 155.362C150.598 154.773 150.586 154.181 150.516 153.595C150.231 151.217 148.934 148.945 148.699 146.627C148.397 149.423 150.174 152.109 150.516 154.946C150.551 155.091 150.551 155.221 150.551 155.362Z" fill="black"/>
<path opacity="0.1" d="M164.755 179.607C164.588 181.612 164.117 183.754 162.599 185.083C161.081 186.413 158.285 186.34 157.442 184.519C157.172 183.978 157.131 183.349 156.87 182.808C156.271 181.571 154.8 181.09 153.514 180.607C149.861 179.237 146.337 176.554 145.553 172.715C145.483 172.367 145.435 172.015 145.41 171.661C145.343 172.465 145.392 173.275 145.553 174.066C146.337 177.894 149.866 180.588 153.514 181.957C154.8 182.441 156.271 182.922 156.87 184.159C157.14 184.7 157.185 185.324 157.442 185.869C158.291 187.69 161.092 187.761 162.599 186.434C164.106 185.108 164.575 182.962 164.755 180.958C164.838 179.903 164.865 178.844 164.839 177.786C164.839 178.399 164.804 179.004 164.755 179.607Z" fill="black"/>
<path opacity="0.1" d="M185.578 159.817C185.578 160.208 185.578 160.597 185.578 160.987C185.729 155.961 187.568 150.909 187.387 145.989C187.247 150.539 185.681 155.191 185.578 159.817Z" fill="black"/>
<path opacity="0.1" d="M179.793 180.144C179.86 179.824 179.88 179.496 179.855 179.169C179.747 178.47 179.502 177.799 179.135 177.194C177.577 174.222 175.801 171.18 175.59 167.881C175.59 168.022 175.571 168.152 175.569 168.303C175.461 171.961 177.432 175.308 179.135 178.545C179.425 179.046 179.646 179.584 179.793 180.144Z" fill="black"/>
<path opacity="0.1" d="M187.129 176.235C186.928 179.508 185.998 182.695 184.409 185.562C182.985 188.158 180.47 190.743 177.556 190.244C177.295 190.221 177.049 190.109 176.86 189.928C176.805 189.866 176.762 189.794 176.733 189.717C176.701 189.928 176.674 190.141 176.658 190.357C176.602 190.679 176.675 191.01 176.86 191.278C177.049 191.46 177.295 191.572 177.556 191.594C180.47 192.094 182.985 189.509 184.409 186.912C185.998 184.046 186.928 180.859 187.129 177.586C187.161 176.954 187.164 176.324 187.145 175.695C187.14 175.876 187.14 176.054 187.129 176.235Z" fill="black"/>
</g>
<path opacity="0.1" d="M187.568 257.568C187.568 257.568 194.392 260.437 198.891 254.088" stroke="black" stroke-miterlimit="10"/>
<path opacity="0.1" d="M188.911 262.582C188.911 262.582 194.484 258.951 201.582 262.463" stroke="black" stroke-miterlimit="10"/>
<path opacity="0.1" d="M151.61 261.758C151.61 261.758 153.95 256.468 160.199 260.502" stroke="black" stroke-miterlimit="10"/>
<path opacity="0.1" d="M144.024 183.527L148.796 179.204C148.796 179.204 167.298 177.989 168.064 184.292C168.064 184.292 174.623 176.819 188.418 178.483L194.254 183.141L178.122 190.235L162.446 195.685L150.899 190.506L144.024 183.527Z" fill="black"/>
<path d="M144.024 183.797L148.796 179.474C148.796 179.474 167.298 178.259 168.064 184.562C168.064 184.562 174.623 177.089 188.418 178.753L194.254 183.411L178.122 190.505L162.446 195.955L150.899 190.776L144.024 183.797Z" fill="#D5D6DB"/>
<path opacity="0.1" d="M141.913 184.337L144.024 209.644L166.4 210.771L165.429 185.572L165.411 185.147L141.913 184.337Z" fill="black"/>
<path d="M141.913 183.797L144.024 209.104L166.4 210.231L165.429 185.032L165.411 184.607L141.913 183.797Z" fill="#6C63FF"/>
<path opacity="0.1" d="M195.279 183.797L172.196 187.266V212.686L194.753 209.42L195.279 183.797Z" fill="black"/>
<path d="M195.279 183.257L172.196 186.726V212.146L194.753 208.88L195.279 183.257Z" fill="#6C63FF"/>
<path opacity="0.3" d="M189.836 189.46L177.367 190.849L177.639 195.107L189.828 193.772L189.836 189.46Z" fill="white"/>
<path d="M145.237 222.656L146.507 226.079C146.507 226.079 148.394 227.7 150.459 226.89C152.524 226.079 154.325 225.677 155.223 224.888C156.12 224.099 157.379 220.135 157.379 220.135C157.379 220.135 158.638 215.813 159.895 214.732C161.151 213.651 164.478 198.762 159.895 200.218C155.312 201.675 151.807 215.183 151.807 215.183C151.807 215.183 150.998 216.172 149.831 216.264C148.664 216.356 146.326 216.083 145.876 217.074C145.426 218.066 143.889 220.676 145.237 222.656Z" fill="#BE6F72"/>
<path opacity="0.1" d="M172.196 187.264C171.014 187.53 169.787 187.516 168.611 187.223C167.436 186.929 166.345 186.364 165.427 185.572L166.4 210.769C166.4 210.769 168.691 213.254 172.196 212.687V187.264Z" fill="black"/>
<path d="M172.196 186.723C171.014 186.99 169.787 186.976 168.611 186.682C167.436 186.389 166.345 185.823 165.427 185.032L166.4 210.228C166.4 210.228 168.691 212.714 172.196 212.146V186.723Z" fill="#6C63FF"/>
<path opacity="0.1" d="M172.196 186.723C171.014 186.99 169.787 186.976 168.611 186.682C167.436 186.389 166.345 185.823 165.427 185.032L166.4 210.228C166.4 210.228 168.691 212.714 172.196 212.146V186.723Z" fill="black"/>
<path opacity="0.1" d="M172.735 183.884C172.735 183.884 182.125 181.006 184.573 181.412L172.735 183.884Z" fill="black"/>
<path opacity="0.1" d="M162.232 182.627C162.232 182.627 153.131 180.466 151.61 181.079L162.232 182.627Z" fill="black"/>
<path opacity="0.1" d="M178.655 184.243C178.655 184.243 184.934 181.936 187.204 183.033L178.655 184.243Z" fill="black"/>
<path opacity="0.1" d="M175.493 242.122C176.466 241.389 177.502 240.745 178.588 240.195C180.206 239.414 183.171 237.388 183.171 237.388" fill="black"/>
<path opacity="0.1" d="M151.611 214.551C151.611 214.551 147.672 217.779 146.488 218.063C145.305 218.347 144.574 220.865 144.574 220.865" fill="black"/>
<path d="M192.962 222.175L191.706 225.606C191.706 225.606 189.819 227.227 187.751 226.417C185.683 225.606 183.888 225.203 182.987 224.415C182.087 223.626 180.831 219.662 180.831 219.662C180.831 219.662 179.574 215.339 178.315 214.259C177.056 213.178 173.732 198.289 178.315 199.745C182.898 201.201 186.403 214.71 186.403 214.71C186.403 214.71 187.212 215.699 188.379 215.791C189.546 215.883 191.884 215.61 192.334 216.601C192.784 217.593 194.31 220.203 192.962 222.175Z" fill="#BE6F72"/>
<path opacity="0.1" d="M190.76 215.864C190.76 215.864 193.334 217.523 193.324 219.506L190.76 215.864Z" fill="black"/>
<path d="M168.916 167.778C175.567 167.778 180.958 162.375 180.958 155.71C180.958 149.044 175.567 143.641 168.916 143.641C162.265 143.641 156.873 149.044 156.873 155.71C156.873 162.375 162.265 167.778 168.916 167.778Z" fill="#BE6F72"/>
<path d="M161.354 152.47C162.815 152.241 164.095 151.39 165.492 150.901C168.616 149.801 172.073 150.555 175.235 151.546C176.448 151.927 177.68 152.357 178.952 152.357C180.225 152.357 181.576 151.835 182.225 150.736C182.824 149.725 182.708 148.412 182.204 147.351C181.7 146.289 180.856 145.435 180.004 144.63C177.2 141.977 173.722 139.497 169.875 139.767C168.328 139.878 166.848 140.431 165.424 141.045C163.632 141.819 161.888 142.699 160.2 143.682C158.903 144.435 156.501 145.443 155.754 146.821C154.056 149.925 158.712 152.886 161.354 152.47Z" fill="#3E373A"/>
<path opacity="0.1" d="M182.224 149.602C181.575 150.701 180.224 151.223 178.952 151.223C177.679 151.223 176.447 150.809 175.231 150.428C172.069 149.437 168.616 148.68 165.488 149.783C164.095 150.272 162.811 151.134 161.35 151.35C159.22 151.685 155.791 149.826 155.419 147.462C155.001 150.193 158.978 152.533 161.35 152.16C162.811 151.931 164.095 151.08 165.488 150.593C168.616 149.491 172.069 150.247 175.231 151.239C176.447 151.62 177.676 152.049 178.952 152.033C180.227 152.017 181.575 151.514 182.224 150.412C182.561 149.813 182.694 149.119 182.602 148.437C182.56 148.848 182.431 149.245 182.224 149.602Z" fill="black"/>
<path d="M61.198 330.624C60.6456 329.377 60.1219 327.942 60.6744 326.695C61.035 325.96 61.6545 325.382 62.4155 325.07C63.1686 324.765 63.9624 324.571 64.7719 324.493C67.3127 324.162 69.8838 324.127 72.4328 324.389C72.6187 325.85 72.2259 327.331 71.8882 328.743C71.5819 330.042 71.4064 330.234 70.0554 330.302C69.181 330.349 61.4049 331.084 61.198 330.624Z" fill="#FBBEBE"/>
<path d="M84.5127 322.209C105.19 322.209 121.953 317.554 121.953 311.812C121.953 306.071 105.19 301.416 84.5127 301.416C63.8349 301.416 47.0723 306.071 47.0723 311.812C47.0723 317.554 63.8349 322.209 84.5127 322.209Z" fill="#464353"/>
<path opacity="0.1" d="M84.5127 322.209C105.19 322.209 121.953 317.554 121.953 311.812C121.953 306.071 105.19 301.416 84.5127 301.416C63.8349 301.416 47.0723 306.071 47.0723 311.812C47.0723 317.554 63.8349 322.209 84.5127 322.209Z" fill="black"/>
<path d="M91.2267 256.93C89.9433 259.392 87.8118 261.314 85.2205 262.346C83.6906 262.9 82.0805 263.203 80.4527 263.246C78.675 263.326 76.8605 263.212 75.1901 262.609C72.9489 261.803 71.0874 260.155 69.6919 258.235C68.2964 256.314 67.3355 254.12 66.5003 251.908C66.0604 250.757 65.6415 249.53 65.8483 248.314C67.1967 248.01 68.6734 247.563 69.3698 246.375C69.9642 245.356 69.7992 244.135 69.4562 242.97C69.3594 242.64 69.2468 242.313 69.1342 241.998C68.8724 241.244 67.9691 239.812 68.6106 239.168C69.0111 238.76 70.6894 238.552 71.268 238.287C73.051 237.47 74.6953 236.29 76.6537 235.903C78.3477 235.568 80.0967 235.882 81.788 236.231C82.0124 236.263 82.2279 236.34 82.4216 236.457C82.6426 236.642 82.806 236.885 82.8929 237.159C83.3747 238.323 83.6574 239.61 84.0449 240.823C84.4481 242.094 84.9665 243.287 85.9379 244.189C86.6945 244.893 87.6581 245.335 88.6006 245.764L90.9203 246.819C91.333 246.973 91.7072 247.213 92.0174 247.524C92.3207 247.938 92.502 248.427 92.541 248.938C92.9567 251.673 92.4969 254.468 91.2267 256.93Z" fill="#FBBEBE"/>
<path opacity="0.1" d="M84.0346 240.823C82.1873 242.733 79.754 243.979 77.1161 244.368C74.4783 244.756 71.7851 244.265 69.459 242.97C69.3621 242.64 69.2496 242.313 69.137 241.998C68.8752 241.244 67.9719 239.812 68.6133 239.168C69.0139 238.76 70.6922 238.552 71.2708 238.287C73.0538 237.47 74.6981 236.29 76.6565 235.903C78.3505 235.568 80.0994 235.882 81.7908 236.231C82.0151 236.263 82.2306 236.34 82.4244 236.457C82.6453 236.642 82.8088 236.885 82.8957 237.159C83.3643 238.323 83.6471 239.61 84.0346 240.823Z" fill="black"/>
<path d="M75.3494 243.976C82.001 243.976 87.3932 238.623 87.3932 232.02C87.3932 225.417 82.001 220.064 75.3494 220.064C68.6978 220.064 63.3057 225.417 63.3057 232.02C63.3057 238.623 68.6978 243.976 75.3494 243.976Z" fill="#FBBEBE"/>
<path d="M112.043 270.821L111.054 264.869C110.554 261.883 110.038 258.84 108.64 256.15C107.721 254.387 106.262 252.708 104.296 252.36C103.909 252.326 103.528 252.238 103.165 252.1C102.589 251.825 102.275 251.206 101.832 250.749C100.691 249.574 98.832 249.556 97.303 248.958C95.952 248.438 94.8471 247.437 93.6165 246.673C92.386 245.909 90.8543 245.374 89.4928 245.862C89.2729 248.189 89.0399 250.567 88.045 252.685C87.3974 254.064 86.4475 255.282 85.2648 256.25C84.0821 257.217 82.6965 257.91 81.2093 258.278C79.722 258.646 78.1708 258.679 76.669 258.375C75.1673 258.071 73.7529 257.438 72.5294 256.521C70.1966 254.777 68.7016 252.087 68.0052 249.272C67.835 248.586 67.6412 247.799 67.005 247.484C66.3164 247.141 65.4891 247.557 64.9104 248.061C63.8632 248.994 63.007 250.33 61.6298 250.645C61.1324 250.759 60.5825 250.736 60.1689 251.035C59.8939 251.286 59.6638 251.583 59.4881 251.91C59.1868 252.333 58.7841 252.675 58.3165 252.904C57.8489 253.134 57.331 253.244 56.8097 253.226C56.3306 253.202 55.7624 253.093 55.4351 253.439C55.1916 253.699 55.1733 254.104 54.9115 254.346C54.558 254.686 53.9846 254.52 53.4924 254.502C52.5603 254.463 51.6937 255.055 51.1596 255.801C50.6255 256.547 50.3741 257.47 50.1123 258.364C52.974 264.69 55.5922 271.024 58.4539 277.35C58.588 277.589 58.6592 277.857 58.6608 278.13C58.6034 278.413 58.4816 278.68 58.3047 278.91C56.9013 281.148 56.9458 283.962 57.1003 286.593C57.2548 289.223 57.4433 292.001 56.2599 294.359C55.9378 295.006 55.5189 295.599 55.2126 296.246C54.4952 297.712 54.236 302.4 54.6549 303.975H113.847C112.719 300.895 113.148 294.715 113.384 291.445C113.549 289.158 113.122 286.873 112.939 284.586C112.538 279.916 112.821 275.484 112.043 270.821Z" fill="#6C63FF"/>
<path d="M45.5776 277.631C45.4728 278.383 45.4623 279.145 45.5461 279.9L46.2976 290.627C46.3683 291.638 46.4389 292.646 46.5332 293.655C46.7139 295.612 46.9835 297.553 47.3187 299.492C47.3262 299.767 47.4435 300.029 47.6447 300.218C47.846 300.408 48.1148 300.51 48.3921 300.503C51.7042 301.2 55.1262 301.171 58.5063 300.981C63.6642 300.696 68.8142 300.043 73.9799 300.155C75.31 300.184 76.8599 300.155 77.6664 299.115C78.4728 298.076 78.0041 296.394 76.9516 295.555C75.8991 294.715 74.4695 294.515 73.1185 294.515C71.3303 294.497 69.542 294.749 67.759 294.645C66.1227 294.549 64.5229 294.156 62.9363 293.764L58.4853 292.664C58.6555 291.326 59.1687 290.065 59.6557 288.794C60.5302 286.541 61.347 284.212 61.3628 281.798C61.3785 279.383 60.4621 276.844 58.4696 275.461C56.8306 274.325 54.7203 274.115 52.7227 274.161C51.2695 274.203 48.7587 273.857 47.4312 274.421C46.3813 274.879 45.7739 276.61 45.5776 277.631Z" fill="#FBBEBE"/>
<path d="M115.073 302.157C115.945 301.826 116.906 301.946 117.841 302.071C120.849 302.479 123.902 302.897 126.69 304.09C127.999 304.646 129.246 305.39 130.131 306.484C130.916 307.469 131.374 308.675 131.809 309.863L132.814 312.597C133.197 313.637 133.584 314.697 133.691 315.802C134.006 319.074 131.751 322.159 128.916 323.859C126.08 325.559 122.742 326.164 119.49 326.799C116.238 327.433 112.974 328.134 109.735 328.878C108.224 329.267 106.692 329.566 105.145 329.774C101.679 330.164 98.055 329.59 94.7612 330.728C93.4521 331.183 92.1666 331.859 90.8077 332.173C89.9051 332.362 88.9925 332.5 88.0743 332.587L81.8404 333.294C80.5727 333.462 79.2965 333.559 78.0178 333.585C75.2948 333.585 72.6164 332.945 69.972 332.306C69.6909 332.257 69.4232 332.15 69.1865 331.992C68.7676 331.664 68.676 331.084 68.6158 330.559C68.3487 328.236 68.1148 325.91 67.9141 323.581C67.8513 322.825 67.8041 322.006 68.2204 321.369C68.7441 320.589 69.7652 320.345 70.6973 320.194C74.6496 319.552 78.6535 319.277 82.6572 319.37C84.1784 317.86 86.6867 317.852 88.6791 317.031C89.4121 316.697 90.1215 316.314 90.8025 315.885C94.3666 313.821 98.3496 312.571 102.461 312.228C103.267 312.204 104.067 312.09 104.847 311.89C106.389 311.415 107.795 310.12 109.379 310.437C109.575 309.899 109.711 309.179 110.164 308.81C110.389 308.62 110.667 308.493 110.874 308.29C111.311 307.851 111.35 307.16 111.285 306.546C111.219 305.933 111.073 305.304 111.232 304.706C111.299 304.48 111.397 304.264 111.523 304.064C112.308 302.718 113.495 302.027 115.073 302.157Z" fill="#464353"/>
<path opacity="0.05" d="M115.073 302.157C115.945 301.826 116.906 301.946 117.841 302.071C120.849 302.479 123.902 302.897 126.69 304.09C127.999 304.646 129.246 305.39 130.131 306.484C130.916 307.469 131.374 308.675 131.809 309.863L132.814 312.597C133.197 313.637 133.584 314.697 133.691 315.802C134.006 319.074 131.751 322.159 128.916 323.859C126.08 325.559 122.742 326.164 119.49 326.799C116.238 327.433 112.974 328.134 109.735 328.878C108.224 329.267 106.692 329.566 105.145 329.774C101.679 330.164 98.055 329.59 94.7612 330.728C93.4521 331.183 92.1666 331.859 90.8077 332.173C89.9051 332.362 88.9926 332.5 88.0743 332.587L81.8404 333.294C80.5727 333.462 79.2965 333.559 78.0178 333.585C75.2948 333.585 72.6164 332.945 69.972 332.306C69.6909 332.257 69.4232 332.15 69.1865 331.992C68.7676 331.664 68.676 331.084 68.6158 330.559C68.3487 328.236 68.1148 325.91 67.9141 323.581C67.8513 322.825 67.8041 322.006 68.2204 321.369C68.7441 320.589 69.7652 320.345 70.6973 320.194C74.6496 319.552 78.6535 319.277 82.6572 319.37C84.1784 317.86 86.6867 317.852 88.6791 317.031C89.4121 316.697 90.1215 316.314 90.8025 315.885C94.3666 313.821 98.3496 312.571 102.461 312.228C103.267 312.204 104.067 312.09 104.847 311.89C106.389 311.415 107.795 310.12 109.379 310.437C109.575 309.899 109.711 309.179 110.164 308.81C110.389 308.62 110.667 308.493 110.874 308.29C111.311 307.851 111.35 307.16 111.285 306.546C111.219 305.933 111.073 305.304 111.232 304.706C111.299 304.48 111.397 304.264 111.523 304.064C112.308 302.718 113.495 302.027 115.073 302.157Z" fill="black"/>
<path d="M63.6057 332.23C61.985 334.094 60.5581 334.759 58.0211 334.7C56.4606 334.663 54.9019 334.583 53.3449 334.458C52.2807 334.344 51.2105 334.294 50.1402 334.31C46.9094 334.435 43.7911 335.903 40.5681 335.646C40.0915 335.608 39.6202 335.521 39.1621 335.386C38.4309 335.186 37.7701 334.788 37.2534 334.237C36.6355 333.543 36.3396 332.623 36.1695 331.713C35.3081 327.051 37.6697 321.972 41.8038 319.599C42.3432 319.253 42.9564 319.037 43.5947 318.967C44.2206 318.965 44.8393 319.1 45.4065 319.362L45.4458 319.378C47.1254 320.064 48.6508 321.075 49.9334 322.351C50.128 322.573 50.3602 322.758 50.6194 322.9C50.878 322.997 51.1519 323.048 51.4284 323.05L54.8687 323.266C55.4516 323.283 56.0309 323.363 56.5967 323.503C57.2205 323.719 57.8278 323.98 58.4138 324.282C60.2649 325.104 62.3175 325.322 64.3179 325.639C64.5106 325.65 64.6946 325.723 64.8415 325.847C64.9213 325.946 64.9769 326.061 65.0038 326.185C65.2849 327.229 65.3045 328.326 65.0608 329.38C64.8171 330.434 64.3176 331.412 63.6057 332.23Z" fill="#3F3D56"/>
<path opacity="0.1" d="M45.4458 319.38C44.111 320.646 42.9531 322.083 42.0028 323.653C40.478 326.245 39.5199 329.127 39.1909 332.111C39.0661 333.199 39.0564 334.298 39.1621 335.388C38.4309 335.188 37.7701 334.791 37.2534 334.239C36.6355 333.545 36.3396 332.625 36.1695 331.716C35.3081 327.053 37.6697 321.974 41.8038 319.601C42.3432 319.256 42.9564 319.039 43.5947 318.97C44.2206 318.967 44.8393 319.102 45.4065 319.365L45.4458 319.38Z" fill="black"/>
<path d="M112.078 325.847C114.002 325.795 116.162 325.699 117.576 326.986C118.925 328.202 119.103 330.208 119.192 332.015L119.294 334.112C119.325 334.752 119.351 335.412 119.092 336.004C118.631 337.044 117.367 337.546 116.212 337.486C115.057 337.426 113.997 336.925 112.942 336.472C110.077 335.247 107.095 334.315 104.04 333.689C104.14 332.238 104.305 330.795 104.537 329.359C104.697 328.363 104.723 326.697 105.394 325.871C106.103 324.997 107.027 325.47 107.991 325.631C109.343 325.836 110.712 325.909 112.078 325.847Z" fill="#FBBEBE"/>
<path d="M61.2208 304.771C61.2208 305.031 60.8098 304.771 60.7731 304.493C60.4851 302.39 58.8042 300.656 56.8458 299.814C54.8874 298.972 52.6567 298.928 50.5359 299.128C47.3286 299.43 43.7286 300.649 42.5556 303.624C42.2781 304.321 42.1524 305.075 41.812 305.743C41.435 306.476 40.8197 307.06 40.4113 307.773C39.707 309.005 39.6782 310.515 39.9322 311.908C40.6155 315.624 43.1761 318.803 46.2787 321.005C49.3813 323.206 53.0075 324.521 56.6233 325.706C66.1841 328.837 75.9934 331.162 85.9472 332.659C87.5601 332.901 89.1886 333.124 90.7333 333.639C92.1157 334.099 93.4091 334.788 94.7601 335.328C97.902 336.581 101.282 337.028 104.631 337.467C105.202 337.54 105.856 337.592 106.278 337.207C106.822 336.706 106.642 335.832 106.487 335.112C105.919 332.375 106.396 329.526 107.825 327.118C108.385 326.182 109.113 325.223 109.008 324.139C108.883 322.876 107.616 321.982 106.354 321.779C105.092 321.576 103.809 321.875 102.541 322.039C102.104 322.096 101.628 322.133 101.245 321.912C101.057 321.785 100.886 321.635 100.738 321.465C99.8645 320.629 98.7473 320.089 97.546 319.922C96.3447 319.755 95.121 319.97 94.0506 320.537C93.5819 320.797 92.8724 320.217 92.3854 319.999L86.8793 317.524C80.5537 314.684 74.1967 311.83 67.5045 310.031C66.9706 309.927 66.4631 309.718 66.0122 309.415C65.6797 309.155 65.4414 308.802 65.1351 308.513C64.4674 307.887 63.538 307.637 62.7368 307.193C61.9356 306.749 61.0376 305.662 61.2208 304.771Z" fill="#464353"/>
<path d="M146.107 338.739C145.227 340.358 143.52 341.367 141.688 341.782C141.228 341.886 140.76 341.952 140.289 341.98C137.972 342.123 135.684 341.486 133.451 340.857L130.419 340.01C129.898 339.847 129.363 339.729 128.822 339.656C128.084 339.608 127.344 339.633 126.612 339.732C123.029 340.063 119.416 339.902 115.877 339.254C115.581 339.222 115.297 339.121 115.047 338.96C114.829 338.747 114.635 338.511 114.469 338.256C113.644 337.27 112.756 336.696 113.733 335.397C114.296 334.643 115.34 334.266 115.778 333.4C116.215 332.535 115.935 331.306 115.676 330.411C115.322 329.177 114.16 328.644 113.743 327.511C113.432 326.656 113.955 325.663 114.744 325.198C115.532 324.732 116.506 324.696 117.414 324.816C118.323 324.935 119.213 325.19 120.127 325.26C122.813 325.473 125.559 324.098 128.138 324.873C128.706 325.044 129.243 325.317 129.819 325.468C130.942 325.717 132.115 325.617 133.178 325.18C133.555 325.039 133.925 324.87 134.291 324.704C134.998 324.339 135.751 324.068 136.53 323.901C139.046 323.472 141.379 325.2 143.277 326.887C143.928 327.424 144.505 328.045 144.992 328.732C145.515 329.543 145.793 330.487 146.039 331.417C146.733 333.821 147.306 336.53 146.107 338.739Z" fill="#3F3D56"/>
<path opacity="0.1" d="M146.106 338.738C145.227 340.358 143.52 341.366 141.687 341.782C142.4 340.407 142.721 338.865 142.616 337.322C142.459 334.85 141.365 332.521 139.969 330.468C139.111 329.204 138.134 328.023 137.053 326.941C136.22 326.109 135.196 325.449 134.301 324.688C135.008 324.322 135.761 324.052 136.539 323.885C139.055 323.456 141.388 325.184 143.286 326.871C143.938 327.408 144.515 328.028 145.001 328.716C145.525 329.527 145.803 330.471 146.049 331.401C146.732 333.821 147.305 336.529 146.106 338.738Z" fill="black"/>
<path d="M49.9635 258.557C49.7085 258.822 49.5107 259.136 49.3823 259.48C47.2659 264.214 46.0158 269.286 45.6906 274.456C45.6963 274.708 45.6378 274.957 45.5204 275.181C45.4047 275.329 45.2759 275.468 45.1355 275.594C45.0081 275.744 44.913 275.918 44.8561 276.106C44.7992 276.294 44.7817 276.492 44.8048 276.686C44.8279 276.881 44.891 277.069 44.9902 277.239C45.0894 277.409 45.2226 277.557 45.3816 277.673C45.8137 276.865 46.8478 276.602 47.7668 276.532C52.1681 276.186 56.4672 278.219 60.8815 278.066C60.5699 276.997 60.1222 275.971 59.8682 274.89C58.745 270.089 61.5465 264.862 59.8289 260.238C59.486 259.313 58.9126 258.404 58.0093 257.998C57.6353 257.848 57.2439 257.745 56.8442 257.691C55.7288 257.491 53.5086 256.636 52.4299 256.979C52.0319 257.107 51.8748 257.478 51.5449 257.702C51.0448 258.021 50.3798 258.138 49.9635 258.557Z" fill="#6C63FF"/>
<path d="M115.546 268.018H61.3338C60.1813 268.018 59.2471 268.945 59.2471 270.089V302.853C59.2471 303.997 60.1813 304.925 61.3338 304.925H115.546C116.699 304.925 117.633 303.997 117.633 302.853V270.089C117.633 268.945 116.699 268.018 115.546 268.018Z" fill="#3F3D56"/>
<path d="M88.3102 288.031C89.1778 288.031 89.8811 287.332 89.8811 286.471C89.8811 285.61 89.1778 284.912 88.3102 284.912C87.4426 284.912 86.7393 285.61 86.7393 286.471C86.7393 287.332 87.4426 288.031 88.3102 288.031Z" fill="white"/>
<path d="M67.0279 212.615C66.1482 213.247 65.546 214.154 64.9334 215.025C63.8049 216.633 62.5272 218.24 60.7233 219.136C60.0399 219.477 59.2597 219.734 58.8067 220.327C58.5379 220.728 58.3634 221.183 58.2962 221.66C57.9506 223.337 57.77 225.043 57.7568 226.754C57.7568 227.607 57.7935 228.485 58.1731 229.26C58.5318 229.988 59.1785 230.604 59.3121 231.396C59.4142 232.015 59.1838 232.631 59.1026 233.252C59.0214 233.873 59.1628 234.609 59.7414 234.905C60.0532 235.021 60.3788 235.097 60.7102 235.131C62.4513 235.516 63.0352 237.543 63.2996 239.22C63.8913 239.186 64.1584 238.513 64.2814 237.964L66.0958 229.956C66.2922 229.088 66.6195 228.082 67.4913 227.778C68.0752 227.578 68.7141 227.765 69.3241 227.817C71.7198 228.012 73.7463 226.175 76.0896 225.668C76.8396 225.518 77.6065 225.467 78.37 225.517C80.2185 225.608 82.368 226.362 82.7608 228.075C82.8262 228.353 82.8655 228.685 83.1273 228.823C83.3891 228.961 83.664 228.844 83.9389 228.823C85.1119 228.706 85.8031 230.016 86.1409 231.087L87.3714 234.986C87.5547 235.576 87.8637 236.27 88.5077 236.345C89.1021 236.418 89.6074 235.859 89.6964 235.305C89.7854 234.752 89.5917 234.177 89.4634 233.621C88.8848 231.061 89.7697 228.441 90.3091 225.876C90.8484 223.311 90.9453 220.363 89.1361 218.388C88.4789 217.673 87.6149 217.14 87.0023 216.387C86.4315 215.68 86.1094 214.811 85.5177 214.118C83.8813 212.202 79.6844 210.723 77.1107 210.479C74.1704 210.162 69.4053 210.902 67.0279 212.615Z" fill="#3F3D56"/>
<g opacity="0.1">
<path opacity="0.1" d="M88.518 234.526C87.874 234.448 87.565 233.746 87.3817 233.166C86.9716 231.865 86.5614 230.566 86.1512 229.268C85.8134 228.194 85.1222 226.884 83.9493 227.004C83.6744 227.033 83.3785 227.139 83.1376 227.004C82.8967 226.869 82.8365 226.533 82.7711 226.255C82.3783 224.54 80.2288 223.789 78.3803 223.698C77.6169 223.648 76.8502 223.698 76.0999 223.846C73.7566 224.366 71.7301 226.185 69.3344 225.995C68.7165 225.946 68.0777 225.759 67.5017 225.959C66.6193 226.261 66.3025 227.259 66.1062 228.137L64.2917 236.142C64.1687 236.693 63.9016 237.366 63.3099 237.398C63.0481 235.724 62.4616 233.697 60.7205 233.312C60.3896 233.276 60.0643 233.2 59.7518 233.086C59.524 232.962 59.3456 232.765 59.2464 232.527C59.1993 232.769 59.1443 233.01 59.1129 233.252C59.0344 233.871 59.1731 234.609 59.7518 234.905C60.0635 235.022 60.3891 235.098 60.7205 235.131C62.4616 235.516 63.0455 237.543 63.3099 239.22C63.9016 239.186 64.1687 238.513 64.2917 237.964L66.1062 229.956C66.3025 229.088 66.6298 228.083 67.5017 227.778C68.0855 227.578 68.7244 227.765 69.3344 227.817C71.7301 228.012 73.7566 226.175 76.0999 225.668C76.8499 225.518 77.6168 225.467 78.3803 225.517C80.2288 225.608 82.3783 226.362 82.7711 228.075C82.8365 228.353 82.8758 228.686 83.1376 228.823C83.3994 228.961 83.6744 228.844 83.9493 228.823C85.1222 228.706 85.8134 230.016 86.1512 231.087C86.5596 232.388 86.9698 233.688 87.3817 234.986C87.565 235.576 87.874 236.27 88.518 236.345C89.1124 236.418 89.6177 235.859 89.7067 235.305C89.7469 234.84 89.6936 234.37 89.5496 233.925C89.4562 234.115 89.3085 234.273 89.125 234.38C88.9416 234.487 88.7304 234.537 88.518 234.526Z" fill="black"/>
<path opacity="0.1" d="M59.315 229.577C59.1815 228.785 58.5295 228.169 58.1761 227.441C57.9488 226.95 57.8173 226.421 57.7886 225.881C57.7886 226.172 57.7624 226.464 57.7598 226.757C57.7598 227.61 57.7964 228.488 58.1761 229.263C58.4667 229.853 58.9458 230.373 59.1867 230.973C59.3137 230.519 59.3572 230.046 59.315 229.577Z" fill="black"/>
<path opacity="0.1" d="M90.32 224.046C89.8435 226.313 89.0999 228.621 89.3303 230.892C89.4796 229.216 89.9718 227.529 90.32 225.866C90.6105 224.603 90.7128 223.304 90.6237 222.011C90.5669 222.695 90.4654 223.375 90.32 224.046Z" fill="black"/>
</g>
<g opacity="0.1">
<path opacity="0.1" d="M51.0733 239.61C51.0733 239.61 31.497 231.438 28.9311 246.183C28.9311 246.183 27.5932 248.481 29.4548 250.378C29.4548 250.378 29.8553 249.359 31.7457 250.412C32.4209 250.782 33.1381 251.072 33.8822 251.275C34.8871 251.55 35.9548 251.493 36.9245 251.114C36.9245 251.114 43.3627 250.768 48.7772 242.407C48.7772 242.407 51.0995 240.982 51.2147 240.447L47.3345 240.707C47.3345 240.707 47.633 243.527 46.0254 245.219C46.0254 245.219 47.4497 240.842 46.7664 240.72C46.6276 240.694 44.7163 240.943 44.7163 240.943C44.7163 240.943 45.2112 245.848 42.6218 248.384C42.6218 248.384 45.0253 243.397 43.9806 241.032L41.1163 241.58C41.1163 241.58 41.9017 246.739 39.0688 249.739C39.0688 249.739 41.399 244.436 40.4984 241.744L37.7571 242.659C37.7571 242.659 38.4169 247.703 36.0474 250.196C36.0474 250.196 38.1158 243.8 37.1418 242.919C37.1418 242.919 34.6755 243.911 34.1492 244.478C34.1492 244.478 34.5393 248.117 33.0339 249.429C33.0339 249.429 33.9581 245.011 33.4999 244.829C33.4999 244.829 30.6356 246.971 29.7611 248.819C29.7611 248.819 30.8503 245.996 33.1412 244.4C33.1412 244.4 31.2168 244.078 29.7375 244.876C29.7375 244.876 30.7272 243.002 33.835 243.891C33.835 243.891 36.1364 242.308 36.5972 242.331C36.5972 242.331 33.657 241.032 31.5336 241.193C31.5336 241.193 33.8115 239.893 37.3146 242.063L40.0507 241.084C40.0507 241.084 36.2543 239.152 34.3534 239.16C34.3534 239.16 36.8826 238.188 40.7602 240.891L43.5617 240.325C43.5617 240.325 40.4198 238.414 38.3017 237.97C38.3017 237.97 40.8414 237.57 44.3707 240.192L46.2846 240.034C46.2846 240.034 43.9675 238.677 43.2658 238.347C42.5641 238.017 42.5956 237.804 42.5956 237.804C44.2607 238.087 45.8141 238.823 47.0832 239.93C47.0832 239.93 51.0576 239.852 51.0733 239.61Z" fill="#6C63FF"/>
</g>
<g opacity="0.1">
<path opacity="0.1" d="M50.3511 224.961C50.3511 224.961 43.4181 209.036 33.4296 216.34C33.4296 216.34 31.3193 216.948 31.335 219.121C31.335 219.121 32.1572 218.741 32.6782 220.439C32.8692 221.041 33.133 221.617 33.4637 222.157C33.9007 222.889 34.5674 223.46 35.3619 223.781C35.3619 223.781 39.386 227.217 47.4056 225.312C47.4056 225.312 49.6049 225.777 49.9793 225.528L47.5287 223.482C47.5287 223.482 46.0861 225.327 44.1538 225.416C44.1538 225.416 47.513 223.622 47.1778 223.162C47.1098 223.069 45.8295 222.138 45.8295 222.138C45.8295 222.138 43.3108 225.33 40.3312 225.379C40.3312 225.379 44.6225 223.773 45.3582 221.78L43.3422 220.48C43.3422 220.48 40.7999 223.992 37.3962 224.173C37.3962 224.173 41.8236 222.341 42.8342 220.231L40.6794 219.225C40.6794 219.225 38.1764 222.604 35.3461 222.731C35.3461 222.731 40.2474 220.101 40.1715 219.027C40.1715 219.027 38.1372 218.222 37.4905 218.268C37.4905 218.268 35.6394 220.647 33.9873 220.579C33.9873 220.579 37.0742 218.476 36.9066 218.11C36.9066 218.11 33.9742 217.762 32.3954 218.37C32.3954 218.37 34.6628 217.309 36.938 217.658C36.938 217.658 35.9798 216.376 34.6471 216.02C34.6471 216.02 36.3123 215.467 37.6476 217.749C37.6476 217.749 39.9202 218.112 40.1872 218.383C40.1872 218.383 39.1897 215.942 37.8308 214.843C37.8308 214.843 39.9254 215.363 40.7632 218.63L42.9521 219.594C42.9521 219.594 41.8053 216.298 40.669 215.23C40.669 215.23 42.7295 216.083 43.4836 219.882L45.4734 221.127C45.4734 221.127 44.7036 218.216 43.7009 216.753C43.7009 216.753 45.4394 217.954 46.0285 221.507L47.259 222.494C47.259 222.494 46.6594 220.379 46.4317 219.786C46.2039 219.194 46.3453 219.084 46.3453 219.084C47.1723 220.199 47.6701 221.52 47.7827 222.9C47.7827 222.9 50.2019 225.094 50.3511 224.961Z" fill="#6C63FF"/>
</g>
<path d="M92.946 25.568C92.862 25.484 92.706 25.37 92.478 25.226C92.262 25.082 91.992 24.944 91.668 24.812C91.356 24.668 91.014 24.548 90.642 24.452C90.27 24.356 89.892 24.308 89.508 24.308C88.824 24.308 88.314 24.434 87.978 24.686C87.642 24.938 87.474 25.292 87.474 25.748C87.474 26.012 87.534 26.234 87.654 26.414C87.786 26.582 87.972 26.732 88.212 26.864C88.452 26.996 88.752 27.116 89.112 27.224C89.484 27.332 89.91 27.446 90.39 27.566C91.014 27.734 91.578 27.914 92.082 28.106C92.598 28.298 93.03 28.538 93.378 28.826C93.738 29.114 94.014 29.462 94.206 29.87C94.398 30.266 94.494 30.758 94.494 31.346C94.494 32.03 94.362 32.618 94.098 33.11C93.846 33.59 93.498 33.98 93.054 34.28C92.622 34.58 92.118 34.802 91.542 34.946C90.978 35.078 90.384 35.144 89.76 35.144C88.8 35.144 87.852 35 86.916 34.712C85.98 34.424 85.14 34.016 84.396 33.488L85.494 31.346C85.602 31.454 85.794 31.598 86.07 31.778C86.358 31.946 86.694 32.12 87.078 32.3C87.462 32.468 87.888 32.612 88.356 32.732C88.824 32.852 89.304 32.912 89.796 32.912C91.164 32.912 91.848 32.474 91.848 31.598C91.848 31.322 91.77 31.088 91.614 30.896C91.458 30.704 91.236 30.536 90.948 30.392C90.66 30.248 90.312 30.116 89.904 29.996C89.496 29.876 89.04 29.744 88.536 29.6C87.924 29.432 87.39 29.252 86.934 29.06C86.49 28.856 86.118 28.622 85.818 28.358C85.518 28.082 85.29 27.77 85.134 27.422C84.99 27.062 84.918 26.636 84.918 26.144C84.918 25.496 85.038 24.92 85.278 24.416C85.518 23.912 85.848 23.492 86.268 23.156C86.7 22.82 87.198 22.568 87.762 22.4C88.326 22.22 88.932 22.13 89.58 22.13C90.48 22.13 91.308 22.274 92.064 22.562C92.82 22.838 93.48 23.168 94.044 23.552L92.946 25.568ZM101.684 34.514C101.36 34.658 100.964 34.802 100.496 34.946C100.028 35.09 99.5356 35.162 99.0196 35.162C98.6836 35.162 98.3656 35.12 98.0656 35.036C97.7776 34.952 97.5196 34.82 97.2916 34.64C97.0756 34.448 96.9016 34.208 96.7696 33.92C96.6376 33.62 96.5716 33.26 96.5716 32.84V27.422H95.3296V25.568H96.5716V22.508H98.9836V25.568H100.964V27.422H98.9836V32.03C98.9836 32.366 99.0676 32.606 99.2356 32.75C99.4156 32.882 99.6316 32.948 99.8836 32.948C100.136 32.948 100.382 32.906 100.622 32.822C100.862 32.738 101.054 32.666 101.198 32.606L101.684 34.514ZM105.82 35.18C104.848 35.18 104.11 34.868 103.606 34.244C103.102 33.62 102.85 32.696 102.85 31.472V25.568H105.262V30.95C105.262 32.402 105.784 33.128 106.828 33.128C107.296 33.128 107.746 32.99 108.178 32.714C108.622 32.426 108.982 31.994 109.258 31.418V25.568H111.67V32.228C111.67 32.48 111.712 32.66 111.796 32.768C111.892 32.876 112.042 32.936 112.246 32.948V35C112.006 35.048 111.802 35.078 111.634 35.09C111.478 35.102 111.334 35.108 111.202 35.108C110.77 35.108 110.416 35.012 110.14 34.82C109.876 34.616 109.72 34.34 109.672 33.992L109.618 33.236C109.198 33.884 108.658 34.37 107.998 34.694C107.338 35.018 106.612 35.18 105.82 35.18ZM117.973 35.18C117.325 35.18 116.725 35.054 116.173 34.802C115.621 34.55 115.147 34.202 114.751 33.758C114.355 33.314 114.043 32.798 113.815 32.21C113.599 31.61 113.491 30.968 113.491 30.284C113.491 29.6 113.593 28.964 113.797 28.376C114.013 27.788 114.307 27.272 114.679 26.828C115.051 26.384 115.495 26.036 116.011 25.784C116.527 25.532 117.091 25.406 117.703 25.406C118.399 25.406 119.023 25.574 119.575 25.91C120.139 26.246 120.577 26.684 120.889 27.224V21.86H123.301V32.228C123.301 32.48 123.343 32.66 123.427 32.768C123.511 32.876 123.655 32.936 123.859 32.948V35C123.439 35.084 123.097 35.126 122.833 35.126C122.401 35.126 122.047 35.018 121.771 34.802C121.495 34.586 121.339 34.304 121.303 33.956L121.249 33.362C120.901 33.962 120.427 34.418 119.827 34.73C119.239 35.03 118.621 35.18 117.973 35.18ZM118.603 33.128C118.831 33.128 119.065 33.092 119.305 33.02C119.545 32.936 119.767 32.822 119.971 32.678C120.175 32.534 120.355 32.366 120.511 32.174C120.679 31.982 120.805 31.772 120.889 31.544V29.294C120.793 29.03 120.655 28.79 120.475 28.574C120.307 28.346 120.109 28.154 119.881 27.998C119.665 27.83 119.431 27.698 119.179 27.602C118.939 27.506 118.699 27.458 118.459 27.458C118.099 27.458 117.763 27.536 117.451 27.692C117.151 27.848 116.893 28.064 116.677 28.34C116.461 28.604 116.293 28.91 116.173 29.258C116.053 29.606 115.993 29.966 115.993 30.338C115.993 30.734 116.059 31.1 116.191 31.436C116.323 31.772 116.503 32.066 116.731 32.318C116.959 32.57 117.229 32.768 117.541 32.912C117.865 33.056 118.219 33.128 118.603 33.128ZM130.042 35.18C129.286 35.18 128.602 35.054 127.99 34.802C127.378 34.538 126.856 34.184 126.424 33.74C125.992 33.296 125.656 32.78 125.416 32.192C125.188 31.604 125.074 30.986 125.074 30.338C125.074 29.666 125.188 29.036 125.416 28.448C125.644 27.848 125.974 27.326 126.406 26.882C126.838 26.426 127.36 26.066 127.972 25.802C128.596 25.538 129.292 25.406 130.06 25.406C130.828 25.406 131.512 25.538 132.112 25.802C132.724 26.066 133.24 26.42 133.66 26.864C134.092 27.308 134.416 27.824 134.632 28.412C134.86 29 134.974 29.612 134.974 30.248C134.974 30.404 134.968 30.554 134.956 30.698C134.956 30.842 134.944 30.962 134.92 31.058H127.63C127.666 31.43 127.756 31.76 127.9 32.048C128.044 32.336 128.23 32.582 128.458 32.786C128.686 32.99 128.944 33.146 129.232 33.254C129.52 33.362 129.82 33.416 130.132 33.416C130.612 33.416 131.062 33.302 131.482 33.074C131.914 32.834 132.208 32.522 132.364 32.138L134.434 32.714C134.086 33.434 133.528 34.028 132.76 34.496C132.004 34.952 131.098 35.18 130.042 35.18ZM132.49 29.492C132.43 28.784 132.166 28.22 131.698 27.8C131.242 27.368 130.684 27.152 130.024 27.152C129.7 27.152 129.394 27.212 129.106 27.332C128.83 27.44 128.584 27.596 128.368 27.8C128.152 28.004 127.972 28.25 127.828 28.538C127.696 28.826 127.618 29.144 127.594 29.492H132.49ZM145.21 35H142.798V29.708C142.798 28.952 142.666 28.4 142.402 28.052C142.138 27.704 141.772 27.53 141.304 27.53C141.064 27.53 140.818 27.578 140.566 27.674C140.314 27.77 140.074 27.908 139.846 28.088C139.63 28.256 139.432 28.46 139.252 28.7C139.072 28.94 138.94 29.204 138.856 29.492V35H136.444V25.568H138.622V27.314C138.97 26.714 139.474 26.246 140.134 25.91C140.794 25.574 141.538 25.406 142.366 25.406C142.954 25.406 143.434 25.514 143.806 25.73C144.178 25.946 144.466 26.228 144.67 26.576C144.874 26.924 145.012 27.32 145.084 27.764C145.168 28.208 145.21 28.658 145.21 29.114V35ZM152.871 34.514C152.547 34.658 152.151 34.802 151.683 34.946C151.215 35.09 150.723 35.162 150.207 35.162C149.871 35.162 149.553 35.12 149.253 35.036C148.965 34.952 148.707 34.82 148.479 34.64C148.263 34.448 148.089 34.208 147.957 33.92C147.825 33.62 147.759 33.26 147.759 32.84V27.422H146.517V25.568H147.759V22.508H150.171V25.568H152.151V27.422H150.171V32.03C150.171 32.366 150.255 32.606 150.423 32.75C150.603 32.882 150.819 32.948 151.071 32.948C151.323 32.948 151.569 32.906 151.809 32.822C152.049 32.738 152.241 32.666 152.385 32.606L152.871 34.514Z" fill="white"/>
<defs>
<linearGradient id="paint0_linear" x1="171.369" y1="264.603" x2="171.369" y2="128.998" gradientUnits="userSpaceOnUse">
<stop stop-color="#808080" stop-opacity="0.25"/>
<stop offset="0.54" stop-color="#808080" stop-opacity="0.12"/>
<stop offset="1" stop-color="#808080" stop-opacity="0.1"/>
</linearGradient>
</defs>
</svg>
