<svg width="196" height="170" viewBox="0 0 196 170" fill="none" xmlns="http://www.w3.org/2000/svg">
<g clip-path="url(#clip0)">
<path d="M176.824 61.1309H165.569V66.9631H176.824V61.1309Z" fill="#F9BF64"/>
<path d="M177.689 68.2593H166.435V74.0915H177.689V68.2593Z" fill="#F9BF64"/>
<path d="M168.383 18.793H157.128V24.6252H168.383V18.793Z" fill="#F9BF64"/>
<path d="M176.391 25.4893H165.136V31.3215H176.391V25.4893Z" fill="#F9BF64"/>
<path d="M154.747 19.2249H143.492V25.0571H154.747V19.2249Z" fill="#F9BF64"/>
<path d="M190.893 32.1855H179.638V38.0178H190.893V32.1855Z" fill="#F9BF64"/>
<path d="M177.257 32.6177H166.002V38.45H177.257V32.6177Z" fill="#F9BF64"/>
<path d="M162.755 25.9211H151.5V31.7534H162.755V25.9211Z" fill="#F9BF64"/>
<path d="M190.243 77.1157H178.988V82.948H190.243V77.1157Z" fill="#F9BF64"/>
<path d="M176.607 77.5476H165.353V83.3799H176.607V77.5476Z" fill="#F9BF64"/>
<path d="M28.5879 59.6187C28.5879 59.6187 44.4509 75.45 35.4967 98.9325C26.5426 122.415 50.8445 161.498 50.8445 161.498C50.8445 161.498 50.5848 161.459 50.1021 161.375C17.5235 155.635 1.33589 118.449 19.4606 90.8321C26.1876 80.5522 31.7155 68.5053 28.5879 59.6187Z" fill="#000066"/>
<path d="M28.5885 59.6187C28.5885 59.6187 37.5427 79.025 28.5885 94.8542C19.6344 110.683 27.054 155.121 50.8473 161.498" stroke="#535461" stroke-width="2" stroke-miterlimit="10"/>
<path d="M0.333984 123.649C0.333984 123.649 18.4349 120.771 20.0842 136.961C21.7335 153.151 54.8922 155.396 54.8922 155.396C54.8922 155.396 54.6757 155.542 54.271 155.808C26.8934 173.737 0.723577 167.233 4.66929 143.418C6.13459 134.564 6.01339 125.67 0.333984 123.649Z" fill="#000066"/>
<path opacity="0.2" d="M0.333984 123.649C0.333984 123.649 18.4349 120.771 20.0842 136.961C21.7335 153.151 54.8922 155.396 54.8922 155.396C54.8922 155.396 54.6757 155.542 54.271 155.808C26.8934 173.737 0.723577 167.233 4.66929 143.418C6.13459 134.564 6.01339 125.67 0.333984 123.649Z" fill="#F5F5F5"/>
<path d="M0.333984 123.648C0.333984 123.648 14.3831 126.727 13.2295 139.476C12.0759 152.224 34.0944 167.516 54.8922 155.395" stroke="#535461" stroke-width="2" stroke-miterlimit="10"/>
<path d="M11.6802 61.3469H0.425293V67.1792H11.6802V61.3469Z" fill="#F9BF64"/>
<path d="M19.6885 68.0432H8.43359V73.8755H19.6885V68.0432Z" fill="#F9BF64"/>
<path d="M80.5078 0H69.2529V5.83227H80.5078V0Z" fill="#F9BF64"/>
<path d="M169.249 107.573H157.994V113.405H169.249V107.573Z" fill="#F9BF64"/>
<path d="M20.5537 75.1716H9.29883V81.0039H20.5537V75.1716Z" fill="#F9BF64"/>
<path d="M88.5161 6.69629H77.2612V12.5286H88.5161V6.69629Z" fill="#F9BF64"/>
<path d="M47.3926 46.2261H36.1377V52.0584H47.3926V46.2261Z" fill="#F9BF64"/>
<path d="M55.4009 52.9226H44.146V58.7549H55.4009V52.9226Z" fill="#F9BF64"/>
<path d="M76.8282 49.2502H65.5732V55.0825H76.8282V49.2502Z" fill="#F9BF64"/>
<path d="M56.2666 60.0508H45.0117V65.8831H56.2666V60.0508Z" fill="#F9BF64"/>
<path d="M184.399 107.573H173.145V113.405H184.399V107.573Z" fill="#F9BF64"/>
<path d="M156.266 84.4836C155.538 80.436 155.091 76.3429 154.929 72.2337C154.785 68.8495 153.596 65.5925 151.524 62.9094C149.453 60.2263 146.6 58.2484 143.358 57.2469C142.176 56.884 140.875 56.5448 139.438 56.2403C126.841 53.5704 123.015 55.9011 122.58 56.2079C122.211 55.5394 121.891 54.8457 121.621 54.132C121.599 54.0586 121.58 53.9851 121.558 53.916C124.051 51.2626 125.57 47.8447 125.867 44.2193C127.969 42.0938 129.196 39.5276 129.196 36.7648C129.196 34.3887 128.287 32.1595 126.696 30.2305V26.4762C126.696 22.1469 124.973 17.9948 121.906 14.9335C118.838 11.8722 114.678 10.1523 110.34 10.1523H109.013C106.865 10.1523 104.738 10.5746 102.754 11.3949C100.769 12.2153 98.9662 13.4177 97.4474 14.9335C95.9286 16.4493 94.7238 18.2488 93.9018 20.2294C93.0798 22.2099 92.6567 24.3325 92.6567 26.4762V30.5221C91.2131 32.3819 90.3949 34.5053 90.3949 36.7605C90.3949 39.4649 91.5724 41.9793 93.5939 44.0789C93.8701 47.8371 95.4587 51.3794 98.0829 54.0888C98.1716 54.7023 98.2625 55.3611 98.3513 56.0567L75.8198 60.8067C75.8198 60.8067 67.1319 61.1631 61.5347 72.6873C56.8012 82.4488 47.3817 107.528 44.5918 114.993C44.0875 116.345 43.8018 117.121 43.8018 117.121C43.8018 117.121 43.8948 117.028 44.0701 116.868L43.8018 117.596C43.8018 117.596 43.9381 117.458 44.1978 117.231C43.8039 120.354 43.7476 125.718 47.847 126.385C51.2841 126.945 60.1409 127.176 66.831 127.269H67.2942C71.7291 127.327 75.1034 127.327 75.1034 127.327V127.269H147.057V126.532C147.058 125.864 146.923 125.203 146.661 124.588L146.76 124.467C147.145 124.975 147.402 125.567 147.507 126.195C147.499 126.256 147.487 126.317 147.472 126.377L147.516 126.266C147.533 126.463 147.518 126.66 147.472 126.852C147.472 126.852 156.704 103.114 156.604 88.9399C156.631 87.4472 156.518 85.9553 156.266 84.4836ZM98.7257 59.2644C98.6065 58.5873 98.5299 57.9033 98.4963 57.2166C98.4963 57.2166 98.4963 57.2037 98.4963 57.1972C98.5764 57.8647 98.6543 58.5559 98.7257 59.2644ZM70.7573 110.251V115.909L67.2076 116.667L70.7573 110.251Z" fill="url(#paint0_linear)"/>
<path d="M109.312 12.4358C113.65 12.4358 117.81 14.1556 120.878 17.2169C123.945 20.2783 125.668 24.4303 125.668 28.7597V35.7238H92.9556V28.7597C92.9556 24.4303 94.6788 20.2783 97.7462 17.2169C100.814 14.1556 104.974 12.4358 109.312 12.4358Z" fill="#E14B5A"/>
<path d="M109.426 50.7927C119.723 50.7927 128.071 45.0684 128.071 38.0071C128.071 30.9458 119.723 25.2214 109.426 25.2214C99.1295 25.2214 90.7822 30.9458 90.7822 38.0071C90.7822 45.0684 99.1295 50.7927 109.426 50.7927Z" fill="#E14B5A"/>
<path d="M97.4749 50.3929C97.4749 50.3929 101.371 70.713 97.4749 76.1932C93.5789 81.6733 109.379 83.8421 109.379 83.8421L125.733 77.9061L128.021 63.293C128.021 63.293 118.065 57.6984 120.128 46.3967L97.4749 50.3929Z" fill="#F7C4A7"/>
<path d="M145.745 118.89C145.745 118.89 146.776 123.342 141.17 124.141C137.86 124.627 134.494 124.587 131.196 124.022L129.96 112.839H143.001L145.745 118.89Z" fill="#F7C4A7"/>
<path d="M46.7586 113.191C46.7586 113.191 44.2825 123.234 49.8883 124.141C55.4942 125.048 76.0777 125.055 76.0777 125.055V113.174L66.7577 115.161L58.0092 106.789L46.7586 113.191Z" fill="#F7C4A7"/>
<path opacity="0.1" d="M98.6778 56.9576L76.7719 61.5802C76.7719 61.5802 68.4216 61.9237 63.0452 72.9964C57.6688 84.069 46.0005 115.693 46.0005 115.693C46.0005 115.693 55.9568 105.646 67.6207 116.378L75.3996 102.337L73.6832 124.599H133.958V114.094C133.958 114.094 146.539 120.83 145.626 124.597C145.626 124.597 156.394 96.9087 154.067 84.3261C153.367 80.4362 152.937 76.5026 152.781 72.5535C152.644 69.301 151.501 66.1707 149.51 63.5922C147.519 61.0137 144.777 59.1134 141.661 58.1521C140.527 57.8044 139.28 57.4782 137.895 57.1866C124.969 54.4476 121.662 57.1866 121.662 57.1866C121.662 57.1866 119.157 65.3172 119.203 69.0023C119.259 73.7394 112.454 76.8802 112.454 76.8802C112.454 76.8802 102.388 74.4825 101.931 72.5427C101.474 70.603 97.8727 59.2408 98.6778 56.9576Z" fill="black"/>
<path d="M98.678 56.5018L76.7721 61.1244C76.7721 61.1244 68.4218 61.4679 63.0454 72.5406C57.669 83.6132 45.9985 115.241 45.9985 115.241C45.9985 115.241 55.9548 105.195 67.6188 115.926L75.3977 101.886L73.6813 124.141H133.958V113.639C133.958 113.639 146.54 120.374 145.626 124.141C145.626 124.141 156.394 96.4529 154.067 83.8703C153.367 79.9804 152.937 76.0468 152.782 72.0977C152.644 68.8452 151.502 65.7149 149.51 63.1364C147.519 60.5579 144.777 58.6576 141.661 57.6963C140.527 57.3486 139.28 57.0224 137.895 56.7308C124.969 53.9918 121.662 56.7308 121.662 56.7308C121.662 56.7308 119.158 64.8614 119.203 68.5465C119.259 73.2836 112.454 76.4244 112.454 76.4244C112.454 76.4244 102.388 74.0267 101.931 72.0869C101.474 70.1472 97.8729 58.785 98.678 56.5018Z" fill="#575988"/>
<path opacity="0.1" d="M121.063 55.5319C120.142 52.932 119.936 50.1336 120.465 47.4272L97.8125 51.4213C97.8125 51.4213 98.1393 53.1299 98.5094 55.6896C99.9731 57.2054 101.73 58.4082 103.674 59.2249C105.618 60.0416 107.709 60.4552 109.818 60.4404C111.927 60.4257 114.011 59.9829 115.943 59.1391C117.876 58.2953 119.616 57.068 121.058 55.5319H121.063Z" fill="black"/>
<path d="M124.926 43.8869C124.908 47.9606 123.287 51.8641 120.412 54.7558C117.537 57.6475 113.638 59.2957 109.557 59.345C105.475 59.3943 101.538 57.8408 98.5933 55.0194C95.6489 52.198 93.9335 48.3348 93.8169 44.2628C93.8169 44.1375 93.8169 44.0122 93.8169 43.8869C93.8162 40.9798 94.6332 38.1309 96.1748 35.6644C97.7165 33.1978 99.9209 31.2127 102.537 29.9348C103.003 29.7073 103.482 29.5028 103.974 29.3213C106.534 28.3824 109.294 28.1263 111.983 28.5783C115.429 29.1639 118.576 30.8915 120.917 33.4822C123.258 36.0729 124.656 39.3754 124.885 42.8565C124.912 43.1978 124.926 43.5413 124.926 43.8869Z" fill="#F7C4A7"/>
<g opacity="0.1">
<path opacity="0.1" d="M103.951 29.6863L103.972 29.6733C103.48 29.8548 103.001 30.0593 102.535 30.2868C99.9189 31.5647 97.7145 33.5498 96.1728 36.0164C94.6312 38.4829 93.8142 41.3318 93.8149 44.2389C93.8149 44.3642 93.8149 44.4895 93.8149 44.6148C94.2986 44.6017 94.7742 44.4877 95.211 44.2799C99.003 42.513 101.271 37.1084 102.172 33.339C102.496 31.989 102.802 30.4683 103.951 29.6863Z" fill="black"/>
<path opacity="0.1" d="M115.857 30.1204C114.626 29.5559 113.326 29.1557 111.989 28.9302C113.085 29.1818 114.064 29.7953 114.766 30.6712C115.111 31.1387 115.396 31.6465 115.617 32.1833C113.547 31.2799 111.304 30.8361 109.045 30.8827C106.786 30.9294 104.564 31.4652 102.533 32.4533C103.509 34.5896 106.537 35.7539 108.559 36.5337C110.772 37.3863 113.009 38.166 115.269 38.8731L113.269 37.253L117.786 37.9702C117.834 37.073 117.727 36.1742 117.47 35.3133C118.336 36.0088 119.483 36.2421 120.422 36.8253C122.182 37.9335 122.915 40.0655 123.874 41.9124C124.127 42.4006 124.426 42.8995 124.883 43.2084C124.698 40.4181 123.762 37.7292 122.174 35.4256C120.585 33.122 118.403 31.2891 115.857 30.1204Z" fill="black"/>
</g>
<path d="M103.951 29.3342L103.972 29.3213C103.48 29.5027 103.001 29.7072 102.535 29.9348C99.9189 31.2126 97.7145 33.1977 96.1728 35.6643C94.6312 38.1309 93.8142 40.9798 93.8149 43.8869C93.8149 44.0121 93.8149 44.1374 93.8149 44.2627C94.2986 44.2497 94.7742 44.1356 95.211 43.9279C99.003 42.1609 101.271 36.7564 102.172 32.987C102.496 31.6456 102.802 30.1184 103.951 29.3342Z" fill="#632652"/>
<path d="M115.857 29.7705C114.626 29.206 113.325 28.8058 111.989 28.5803C113.085 28.8319 114.063 29.4454 114.766 30.3214C115.11 30.7888 115.396 31.2966 115.617 31.8334C113.546 30.93 111.304 30.4863 109.045 30.5329C106.786 30.5795 104.564 31.1154 102.533 32.1034C103.509 34.2398 106.537 35.4041 108.558 36.1839C110.772 37.0364 113.008 37.8162 115.268 38.5233L113.268 36.9032L117.785 37.6203C117.834 36.7232 117.727 35.8243 117.469 34.9634C118.335 35.659 119.482 35.8923 120.422 36.4755C122.181 37.5836 122.915 39.7156 123.874 41.5625C124.127 42.0507 124.426 42.5497 124.882 42.8586C124.698 40.0682 123.762 37.3794 122.173 35.0758C120.585 32.7722 118.402 30.9393 115.857 29.7705Z" fill="#632652"/>
<path opacity="0.1" d="M92.0396 41.327C92.0396 41.327 108.056 21.4541 126.586 41.327L124.984 36.875C124.984 36.875 116.29 24.2039 110.115 26.9386C103.939 29.6733 97.8748 31.6195 97.8748 31.6195L92.0396 41.327Z" fill="black"/>
<path d="M92.0396 40.9749C92.0396 40.9749 108.056 21.102 126.586 40.9749L124.984 36.523C124.984 36.523 116.29 23.8518 110.115 26.5865C103.939 29.3212 97.8748 31.2675 97.8748 31.2675L92.0396 40.9749Z" fill="#E14B5A"/>
<path opacity="0.1" d="M78.8846 83.7861C78.8846 83.7861 75.454 92.919 80.2568 101.138C85.0596 109.357 76.0254 112.783 76.0254 112.783" fill="black"/>
<path opacity="0.1" d="M134.477 75.5669C134.477 75.5669 140.425 83.1013 136.536 89.8365C132.646 96.5717 132.876 112.783 132.876 112.783" fill="black"/>
<path d="M73.6232 119.518H139.739C141.196 119.518 142.592 120.096 143.622 121.123C144.652 122.151 145.23 123.545 145.23 124.998H68.1343C68.1343 123.545 68.7125 122.152 69.7418 121.124C70.7711 120.097 72.1673 119.519 73.6232 119.518Z" fill="#535461"/>
<path d="M80.3499 81.844H133.014C134.123 81.844 135.22 82.0619 136.245 82.4853C137.269 82.9086 138.199 83.5292 138.983 84.3114C139.767 85.0937 140.389 86.0224 140.813 87.0445C141.237 88.0666 141.455 89.1621 141.455 90.2684V120.773H71.9087V90.2684C71.9087 88.0341 72.798 85.8913 74.3811 84.3114C75.9641 82.7316 78.1111 81.844 80.3499 81.844Z" fill="#535461"/>
<path d="M106.624 107.132C108.899 107.132 110.743 105.292 110.743 103.022C110.743 100.752 108.899 98.9111 106.624 98.9111C104.349 98.9111 102.505 100.752 102.505 103.022C102.505 105.292 104.349 107.132 106.624 107.132Z" fill="white"/>
<path opacity="0.1" d="M92.9556 32.0127C92.9556 32.0127 108.695 16.3131 125.671 31.7254" stroke="black" stroke-miterlimit="10"/>
<path d="M129.646 31.0125H128.066V39.9531H129.646V31.0125Z" fill="#6A5C99"/>
<path d="M125.958 36.7974C127.402 36.7974 128.787 37.37 129.809 38.3892C130.83 39.4084 131.404 40.7908 131.404 42.2322V42.5821C131.404 44.0235 130.83 45.4059 129.809 46.4251C128.787 47.4443 127.402 48.0169 125.958 48.0169V36.7974Z" fill="#FFD037"/>
<path d="M127.363 37.4994C127.363 36.8218 126.813 36.2725 126.134 36.2725C125.455 36.2725 124.904 36.8218 124.904 37.4994V47.3171C124.904 47.9947 125.455 48.544 126.134 48.544C126.813 48.544 127.363 47.9947 127.363 47.3171V37.4994Z" fill="#6A5C99"/>
<path d="M88.817 40.1282H90.397V31.1875H88.817V40.1282Z" fill="#6A5C99"/>
<path d="M92.5054 48.1919C91.0611 48.1919 89.676 47.6193 88.6547 46.6001C87.6335 45.5808 87.0597 44.1985 87.0597 42.7571V42.4071C87.0597 41.6934 87.2006 40.9867 87.4742 40.3273C87.7479 39.6679 88.1491 39.0688 88.6547 38.5641C89.1604 38.0595 89.7607 37.6591 90.4214 37.386C91.0821 37.1129 91.7902 36.9723 92.5054 36.9723V48.1919Z" fill="#FFD037"/>
<path d="M91.1003 47.4899C91.1003 48.1675 91.6507 48.7168 92.3297 48.7168C93.0087 48.7168 93.5591 48.1675 93.5591 47.4899V37.6722C93.5591 36.9946 93.0087 36.4453 92.3297 36.4453C91.6507 36.4453 91.1003 36.9946 91.1003 37.6722V47.4899Z" fill="#6A5C99"/>
<path d="M127.88 21.4562C125.74 17.015 121.078 11.645 111.028 11.2151V11.2021H110.907L107.347 11.3706V11.3879C97.3645 11.8459 92.7241 17.1964 90.59 21.6225C89.1686 24.623 88.414 27.8946 88.3779 31.2133L89.6073 31.1831L90.8367 31.155C90.8897 28.2004 91.5707 25.2907 92.8344 22.6183C95.5443 17.0625 100.531 14.1096 107.654 13.8353L110.803 13.6603C117.931 13.9325 122.92 16.8897 125.627 22.4433C126.893 25.1167 127.576 28.028 127.629 30.9844L128.859 31.0124L130.088 31.0427C130.053 27.7258 129.3 24.4556 127.88 21.4562Z" fill="#FFD037"/>
<path d="M184.045 125.07H16.3662V170H184.045V125.07Z" fill="#D6D6E3"/>
<path opacity="0.1" d="M184.045 128.094H16.3662V133.926H184.045V128.094Z" fill="black"/>
<path d="M195.288 124.422H5.11719V130.254H195.288V124.422Z" fill="#D6D6E3"/>
</g>
<defs>
<linearGradient id="paint0_linear" x1="100.204" y1="127.338" x2="100.204" y2="10.1523" gradientUnits="userSpaceOnUse">
<stop stop-color="#808080" stop-opacity="0.25"/>
<stop offset="0.54" stop-color="#808080" stop-opacity="0.12"/>
<stop offset="1" stop-color="#808080" stop-opacity="0.1"/>
</linearGradient>
<clipPath id="clip0">
<rect width="195" height="170" fill="white" transform="translate(0.288574)"/>
</clipPath>
</defs>
</svg>
