<svg width="252" height="404" viewBox="0 0 252 404" fill="none" xmlns="http://www.w3.org/2000/svg">
<rect width="252" height="404" rx="16" fill="#F9BF64"/>
<path opacity="0.1" d="M186 360C220.242 360 248 357.314 248 354C248 350.686 220.242 348 186 348C151.758 348 124 350.686 124 354C124 357.314 151.758 360 186 360Z" fill="#6C63FF"/>
<g opacity="0.35">
<path opacity="0.2" d="M131.325 108.437V107H108.699C107.658 107 108.293 108.446 108.293 108.446H96V140.676H149.974V108.437H131.325Z" fill="#6C63FF"/>
</g>
<path d="M190.192 145.068C190.192 145.068 196.995 133.006 207.248 129.531C211.555 128.101 215.282 125.31 217.868 121.579C219.083 119.799 220.132 117.911 221.001 115.939" stroke="#535461" stroke-width="2" stroke-miterlimit="10"/>
<path d="M227.434 113.709C226.268 114.843 220.832 116.017 220.832 116.017C220.832 116.017 222.164 110.614 223.332 109.478C223.893 108.933 224.646 108.634 225.427 108.646C226.208 108.658 226.953 108.979 227.497 109.54C228.041 110.102 228.34 110.856 228.328 111.638C228.316 112.419 227.995 113.164 227.434 113.709Z" fill="#6C63FF"/>
<path d="M224.361 123.481C222.765 123.798 217.564 121.825 217.564 121.825C217.564 121.825 221.619 118.016 223.214 117.698C223.594 117.623 223.984 117.623 224.364 117.699C224.743 117.774 225.104 117.924 225.425 118.139C225.746 118.354 226.022 118.631 226.237 118.953C226.452 119.275 226.601 119.636 226.676 120.016C226.752 120.395 226.751 120.786 226.676 121.166C226.6 121.545 226.451 121.906 226.236 122.228C226.021 122.55 225.744 122.826 225.423 123.041C225.101 123.256 224.74 123.405 224.361 123.481Z" fill="#6C63FF"/>
<path d="M213.161 134.069C211.624 133.538 208.131 129.207 208.131 129.207C208.131 129.207 213.552 127.965 215.089 128.498C215.455 128.625 215.792 128.823 216.081 129.08C216.37 129.337 216.606 129.648 216.775 129.997C216.944 130.345 217.042 130.723 217.065 131.109C217.088 131.496 217.035 131.883 216.908 132.249C216.782 132.615 216.584 132.952 216.327 133.241C216.071 133.531 215.759 133.767 215.411 133.936C215.064 134.105 214.686 134.204 214.3 134.227C213.914 134.249 213.527 134.196 213.161 134.069Z" fill="#6C63FF"/>
<path d="M202.887 140.165C201.283 139.904 197.107 136.23 197.107 136.23C197.107 136.23 202.241 134.091 203.848 134.355C204.229 134.418 204.595 134.555 204.923 134.76C205.252 134.964 205.537 135.232 205.762 135.546C205.987 135.861 206.148 136.217 206.236 136.594C206.324 136.971 206.336 137.362 206.273 137.744C206.21 138.126 206.073 138.492 205.868 138.82C205.664 139.149 205.397 139.434 205.083 139.66C204.768 139.885 204.412 140.047 204.036 140.134C203.659 140.222 203.269 140.235 202.887 140.172V140.165Z" fill="#6C63FF"/>
<path d="M213.03 117.609C213.03 119.239 215.973 123.96 215.973 123.96C215.973 123.96 218.922 119.241 218.922 117.612C218.933 117.218 218.865 116.826 218.721 116.458C218.578 116.091 218.363 115.757 218.088 115.474C217.814 115.192 217.485 114.968 217.122 114.814C216.76 114.661 216.37 114.582 215.976 114.582C215.583 114.582 215.193 114.661 214.83 114.814C214.467 114.968 214.139 115.192 213.864 115.474C213.59 115.757 213.375 116.091 213.231 116.458C213.088 116.826 213.02 117.218 213.03 117.612V117.609Z" fill="#6C63FF"/>
<path d="M201.106 124.892C201.592 126.445 205.813 130.078 205.813 130.078C205.813 130.078 207.214 124.691 206.728 123.137C206.628 122.751 206.45 122.389 206.205 122.073C205.961 121.758 205.655 121.496 205.306 121.302C204.957 121.109 204.573 120.988 204.176 120.948C203.779 120.907 203.378 120.948 202.998 121.068C202.617 121.187 202.265 121.382 201.962 121.642C201.659 121.902 201.412 122.221 201.236 122.579C201.06 122.937 200.958 123.327 200.938 123.726C200.917 124.125 200.977 124.523 201.115 124.898L201.106 124.892Z" fill="#6C63FF"/>
<path d="M190.484 133.562C190.7 135.176 194.25 139.463 194.25 139.463C194.25 139.463 196.54 134.391 196.325 132.777C196.297 132.375 196.187 131.982 196.001 131.624C195.816 131.266 195.559 130.949 195.247 130.694C194.935 130.44 194.573 130.251 194.185 130.142C193.798 130.032 193.391 130.003 192.992 130.057C192.592 130.111 192.208 130.246 191.863 130.454C191.518 130.663 191.219 130.94 190.985 131.268C190.751 131.596 190.587 131.969 190.503 132.364C190.418 132.758 190.416 133.166 190.495 133.562H190.484Z" fill="#6C63FF"/>
<path opacity="0.25" d="M227.434 113.709C226.268 114.843 220.832 116.017 220.832 116.017C220.832 116.017 222.164 110.614 223.332 109.478C223.893 108.933 224.646 108.634 225.427 108.646C226.208 108.658 226.953 108.979 227.497 109.54C228.041 110.102 228.34 110.856 228.328 111.638C228.316 112.419 227.995 113.164 227.434 113.709Z" fill="black"/>
<path opacity="0.25" d="M224.361 123.481C222.765 123.798 217.564 121.825 217.564 121.825C217.564 121.825 221.619 118.016 223.214 117.698C223.594 117.623 223.984 117.623 224.364 117.699C224.743 117.774 225.104 117.924 225.425 118.139C225.746 118.354 226.022 118.631 226.237 118.953C226.452 119.275 226.601 119.636 226.676 120.016C226.752 120.395 226.751 120.786 226.676 121.166C226.6 121.545 226.451 121.906 226.236 122.228C226.021 122.55 225.744 122.826 225.423 123.041C225.101 123.256 224.74 123.405 224.361 123.481Z" fill="black"/>
<path opacity="0.25" d="M213.161 134.069C211.624 133.538 208.131 129.207 208.131 129.207C208.131 129.207 213.552 127.965 215.089 128.498C215.455 128.625 215.792 128.823 216.081 129.08C216.37 129.337 216.606 129.648 216.775 129.997C216.944 130.345 217.042 130.723 217.065 131.109C217.088 131.496 217.035 131.883 216.908 132.249C216.782 132.615 216.584 132.952 216.327 133.241C216.071 133.531 215.759 133.767 215.411 133.936C215.064 134.105 214.686 134.204 214.3 134.227C213.914 134.249 213.527 134.196 213.161 134.069Z" fill="black"/>
<path opacity="0.25" d="M202.887 140.165C201.283 139.904 197.107 136.23 197.107 136.23C197.107 136.23 202.241 134.091 203.848 134.355C204.229 134.418 204.595 134.555 204.923 134.76C205.252 134.964 205.537 135.232 205.762 135.546C205.987 135.861 206.148 136.217 206.236 136.594C206.324 136.971 206.336 137.362 206.273 137.744C206.21 138.126 206.073 138.492 205.868 138.82C205.664 139.149 205.397 139.434 205.083 139.66C204.768 139.885 204.412 140.047 204.036 140.134C203.659 140.222 203.269 140.235 202.887 140.172V140.165Z" fill="black"/>
<path opacity="0.25" d="M213.03 117.609C213.03 119.239 215.973 123.96 215.973 123.96C215.973 123.96 218.922 119.241 218.922 117.612C218.933 117.218 218.865 116.826 218.721 116.458C218.578 116.091 218.363 115.757 218.088 115.474C217.814 115.192 217.485 114.968 217.122 114.814C216.76 114.661 216.37 114.582 215.976 114.582C215.583 114.582 215.193 114.661 214.83 114.814C214.467 114.968 214.139 115.192 213.864 115.474C213.59 115.757 213.375 116.091 213.231 116.458C213.088 116.826 213.02 117.218 213.03 117.612V117.609Z" fill="black"/>
<path opacity="0.25" d="M201.106 124.892C201.592 126.445 205.813 130.078 205.813 130.078C205.813 130.078 207.214 124.691 206.728 123.137C206.628 122.751 206.45 122.389 206.205 122.073C205.961 121.758 205.655 121.496 205.306 121.302C204.957 121.109 204.573 120.988 204.176 120.948C203.779 120.907 203.378 120.948 202.998 121.068C202.617 121.187 202.265 121.382 201.962 121.642C201.659 121.902 201.412 122.221 201.236 122.579C201.06 122.937 200.958 123.327 200.938 123.726C200.917 124.125 200.977 124.523 201.115 124.898L201.106 124.892Z" fill="black"/>
<path opacity="0.25" d="M190.484 133.562C190.7 135.176 194.25 139.463 194.25 139.463C194.25 139.463 196.54 134.391 196.325 132.777C196.297 132.375 196.187 131.982 196.001 131.624C195.816 131.266 195.559 130.949 195.247 130.694C194.935 130.44 194.573 130.251 194.185 130.142C193.798 130.032 193.391 130.003 192.992 130.057C192.592 130.111 192.208 130.246 191.863 130.454C191.518 130.663 191.219 130.94 190.985 131.268C190.751 131.596 190.587 131.969 190.503 132.364C190.418 132.758 190.416 133.166 190.495 133.562H190.484Z" fill="black"/>
<path d="M190.585 144.829C190.585 144.829 191.919 131.042 199.869 123.71C203.227 120.657 205.504 116.594 206.356 112.134C206.746 110.013 206.941 107.861 206.937 105.705" stroke="#535461" stroke-width="2" stroke-miterlimit="10"/>
<path d="M211.938 101.055C211.329 102.567 206.834 105.843 206.834 105.843C206.834 105.843 205.864 100.359 206.473 98.8463C206.618 98.4872 206.832 98.1601 207.103 97.8837C207.374 97.6073 207.696 97.387 208.052 97.2354C208.408 97.0838 208.79 97.0039 209.177 97.0001C209.564 96.9964 209.948 97.069 210.307 97.2137C210.665 97.3584 210.992 97.5725 211.268 97.8436C211.544 98.1148 211.765 98.4377 211.916 98.794C212.067 99.1502 212.147 99.5329 212.151 99.92C212.155 100.307 212.082 100.691 211.938 101.05V101.055Z" fill="#6C63FF"/>
<path d="M213.084 111.241C211.754 112.179 206.201 112.483 206.201 112.483C206.201 112.483 208.36 107.356 209.694 106.42C210.011 106.197 210.368 106.039 210.745 105.954C211.122 105.87 211.513 105.86 211.894 105.926C212.275 105.993 212.639 106.133 212.966 106.341C213.292 106.548 213.575 106.817 213.798 107.134C214.02 107.451 214.178 107.808 214.263 108.186C214.347 108.563 214.357 108.954 214.291 109.335C214.224 109.717 214.084 110.081 213.877 110.408C213.67 110.735 213.4 111.018 213.084 111.241Z" fill="#6C63FF"/>
<path d="M207.13 125.458C205.509 125.594 200.562 123.053 200.562 123.053C200.562 123.053 205.016 119.719 206.638 119.583C207.023 119.55 207.411 119.594 207.78 119.712C208.148 119.83 208.49 120.019 208.785 120.269C209.081 120.519 209.324 120.824 209.502 121.169C209.679 121.513 209.787 121.888 209.819 122.274C209.851 122.66 209.808 123.048 209.69 123.417C209.572 123.786 209.383 124.128 209.133 124.423C208.884 124.719 208.578 124.963 208.235 125.14C207.891 125.318 207.516 125.426 207.13 125.458Z" fill="#6C63FF"/>
<path d="M200.206 135.197C198.632 135.608 193.325 133.938 193.325 133.938C193.325 133.938 197.153 129.899 198.723 129.49C199.097 129.393 199.487 129.371 199.87 129.424C200.253 129.478 200.622 129.607 200.955 129.803C201.289 129.999 201.58 130.259 201.813 130.568C202.046 130.877 202.216 131.229 202.313 131.604C202.41 131.979 202.433 132.369 202.379 132.752C202.325 133.136 202.197 133.505 202.001 133.838C201.805 134.172 201.545 134.464 201.236 134.697C200.928 134.93 200.576 135.1 200.202 135.197H200.206Z" fill="#6C63FF"/>
<path d="M200.346 110.463C201.005 111.952 205.608 115.075 205.608 115.075C205.608 115.075 206.392 109.564 205.733 108.076C205.418 107.359 204.832 106.797 204.103 106.514C203.374 106.23 202.563 106.248 201.847 106.563C201.131 106.878 200.57 107.465 200.286 108.194C200.003 108.924 200.021 109.736 200.336 110.453L200.346 110.463Z" fill="#6C63FF"/>
<path d="M192.392 121.968C193.472 123.191 198.791 124.794 198.791 124.794C198.791 124.794 197.891 119.301 196.818 118.076C196.303 117.489 195.575 117.13 194.796 117.079C194.017 117.029 193.249 117.29 192.662 117.806C192.075 118.322 191.717 119.05 191.666 119.83C191.616 120.61 191.877 121.378 192.392 121.966V121.968Z" fill="#6C63FF"/>
<path d="M186.192 134.19C187.056 135.577 192.021 138.058 192.021 138.058C192.021 138.058 192.075 132.492 191.212 131.104C190.795 130.456 190.14 129.997 189.389 129.825C188.638 129.654 187.849 129.784 187.192 130.187C186.536 130.591 186.063 131.236 185.876 131.984C185.688 132.732 185.801 133.524 186.19 134.19H186.192Z" fill="#6C63FF"/>
<path d="M43.4002 200.6C43.4002 200.6 34.9802 190.156 35.5092 179.676C35.7607 175.282 34.5819 170.925 32.1498 167.259C30.9812 165.528 29.6565 163.908 28.1924 162.418" stroke="#535461" stroke-width="2" stroke-miterlimit="10"/>
<path d="M28.4874 155.812C29.0919 157.271 28.2089 162.593 28.2089 162.593C28.2089 162.593 23.8218 159.46 23.2173 158.001C22.9276 157.301 22.9276 156.515 23.2173 155.815C23.507 155.115 24.0626 154.558 24.7621 154.268C25.4615 153.978 26.2474 153.978 26.9468 154.268C27.6462 154.558 28.202 155.114 28.4917 155.814L28.4874 155.812Z" fill="#6C63FF"/>
<path d="M36.1966 162.081C35.9116 163.633 32.2781 167.616 32.2781 167.616C32.2781 167.616 30.2897 162.594 30.5833 161.046C30.6467 160.673 30.7836 160.317 30.9859 159.997C31.1882 159.677 31.452 159.401 31.7619 159.184C32.0718 158.967 32.4216 158.814 32.7911 158.734C33.1606 158.654 33.5423 158.648 33.9141 158.716C34.286 158.785 34.6405 158.927 34.9571 159.133C35.2737 159.34 35.5461 159.608 35.7584 159.921C35.9708 160.234 36.1189 160.586 36.1941 160.957C36.2693 161.328 36.2702 161.71 36.1966 162.081Z" fill="#6C63FF"/>
<path d="M41.711 175.959C40.6812 177.156 35.5342 178.757 35.5342 178.757C35.5342 178.757 36.3546 173.426 37.3844 172.229C37.8882 171.691 38.5803 171.369 39.3161 171.33C40.0519 171.291 40.7742 171.538 41.332 172.02C41.8898 172.502 42.2398 173.181 42.3088 173.915C42.3779 174.649 42.1606 175.381 41.7024 175.959H41.711Z" fill="#6C63FF"/>
<path d="M43.5247 187.401C42.713 188.754 37.9114 191.204 37.9114 191.204C37.9114 191.204 37.8186 185.802 38.6325 184.458C39.0269 183.818 39.6576 183.359 40.3876 183.182C41.1176 183.004 41.8881 183.122 42.532 183.509C43.1759 183.897 43.6412 184.523 43.8271 185.251C44.0129 185.98 43.9043 186.752 43.5247 187.401Z" fill="#6C63FF"/>
<path d="M26.8487 170.195C28.3147 170.777 33.6171 169.811 33.6171 169.811C33.6171 169.811 30.4218 165.467 28.9581 164.884C28.2593 164.627 27.4881 164.654 26.8086 164.958C26.1291 165.262 25.5951 165.82 25.3202 166.512C25.0452 167.204 25.0512 167.977 25.3367 168.665C25.6222 169.353 26.1647 169.902 26.8487 170.195Z" fill="#6C63FF"/>
<path d="M29.1417 183.555C30.7134 183.671 35.4847 181.163 35.4847 181.163C35.4847 181.163 31.1366 177.973 29.5648 177.856C29.191 177.828 28.8153 177.874 28.459 177.991C28.1028 178.107 27.7731 178.294 27.4887 178.538C27.2044 178.783 26.9709 179.081 26.8016 179.416C26.6324 179.75 26.5307 180.115 26.5023 180.489C26.474 180.864 26.5195 181.24 26.6364 181.596C26.7532 181.953 26.9391 182.283 27.1834 182.567C27.4277 182.852 27.7256 183.086 28.0601 183.255C28.3946 183.424 28.7592 183.526 29.133 183.555H29.1417Z" fill="#6C63FF"/>
<path d="M33.1492 196.224C34.6777 196.607 39.8053 194.928 39.8053 194.928C39.8053 194.928 36.0573 191.062 34.5287 190.686C33.7941 190.503 33.0169 190.619 32.368 191.01C31.7192 191.4 31.2519 192.033 31.069 192.768C30.886 193.503 31.0024 194.281 31.3925 194.93C31.7826 195.58 32.4145 196.048 33.1492 196.231V196.224Z" fill="#6C63FF"/>
<path d="M183.774 117.121H183.593C183.878 116.797 184.024 116.473 184.001 116.185L182.36 114.543L182.986 113.139H180.877L181.267 112.043H180.017L166.187 116.654C166.187 116.654 166.172 116.847 166.187 117.121H157.281V157.282H195.961V117.121H183.774Z" fill="url(#paint0_linear)"/>
<path d="M195.666 117.262H157.568V156.859H195.666V117.262Z" fill="#F6F7F9"/>
<path opacity="0.1" d="M183.668 117.262C181.863 119.922 169.807 123.425 169.807 123.425L169.883 120.652H167.653C167.714 120.385 167.687 120.106 167.575 119.855C167.464 119.605 167.275 119.398 167.035 119.265C166.388 118.908 166.325 117.752 166.334 117.262H183.668Z" fill="black"/>
<path d="M179.965 112.254L166.344 116.792C166.344 116.792 166.189 118.564 167.035 119.025C167.274 119.158 167.463 119.366 167.574 119.616C167.685 119.866 167.713 120.145 167.653 120.412H169.883L169.807 123.184C169.807 123.184 184.121 119.025 183.89 116.33L182.275 114.711L182.891 113.324H180.812L181.198 112.244L179.965 112.254Z" fill="#9D9CB5"/>
<g opacity="0.35">
<path opacity="0.2" d="M188.623 130.098H164.611V130.772H188.623V130.098Z" fill="#6C63FF"/>
</g>
<g opacity="0.35">
<path opacity="0.2" d="M188.623 133.652H164.611V134.326H188.623V133.652Z" fill="#6C63FF"/>
</g>
<g opacity="0.35">
<path opacity="0.2" d="M188.623 137.205H164.611V137.879H188.623V137.205Z" fill="#6C63FF"/>
</g>
<g opacity="0.35">
<path opacity="0.2" d="M188.623 140.757H164.611V141.432H188.623V140.757Z" fill="#6C63FF"/>
</g>
<g opacity="0.35">
<path opacity="0.2" d="M188.623 144.31H164.611V144.984H188.623V144.31Z" fill="#6C63FF"/>
</g>
<g opacity="0.35">
<path opacity="0.2" d="M188.623 147.865H164.611V148.539H188.623V147.865Z" fill="#6C63FF"/>
</g>
<path d="M63.3379 114.063H63.2473C63.9295 112.313 64.5599 110.606 64.5319 110.279C64.4714 109.631 63.1739 111.04 63.1134 110.688C63.053 110.335 63.1134 109 62.524 109C61.9346 109 61.5784 109.694 61.2286 109.694C60.8789 109.694 59.4561 109.46 59.4561 109.46L57.6447 114.063H44V156.955H77.8614V114.063H63.3379Z" fill="url(#paint1_linear)"/>
<path d="M78.0949 113H45V155.367H78.0949V113Z" fill="#F6F7F9"/>
<path opacity="0.1" d="M54.6395 114.104C53.9422 115.918 53.1563 117.828 52.9771 118.284C52.6295 119.148 52.4007 118.688 51.9948 118.573C51.5889 118.459 51.0729 118.688 50.8419 118.573C50.6109 118.459 49.255 118.573 49.255 118.573C49.2702 118.361 49.2702 118.148 49.255 117.936C49.2248 117.707 47.666 117.936 47.666 117.936L49.1514 114.104H54.6395Z" fill="black"/>
<path d="M50.8419 109.56L47.666 117.706C47.666 117.706 49.2248 117.475 49.2529 117.706C49.2692 117.918 49.2692 118.13 49.2529 118.342C49.2529 118.342 50.6109 118.225 50.8419 118.342C51.0729 118.458 51.591 118.225 51.9948 118.342C52.3985 118.458 52.6295 118.919 52.9771 118.052C53.3247 117.186 55.8636 111.003 55.8054 110.368C55.7471 109.733 54.4776 111.12 54.4193 110.772C54.361 110.424 54.4193 109.106 53.8428 109.106C53.2664 109.106 52.9188 109.791 52.5734 109.791C52.2279 109.791 50.8419 109.56 50.8419 109.56Z" fill="#9D9CB5"/>
<g opacity="0.35">
<path opacity="0.2" d="M72.0121 125H48V125.674H72.0121V125Z" fill="#6C63FF"/>
</g>
<g opacity="0.35">
<path opacity="0.2" d="M72.0121 127.543H48V128.217H72.0121V127.543Z" fill="#6C63FF"/>
</g>
<g opacity="0.35">
<path opacity="0.2" d="M72.0121 130.084H48V130.759H72.0121V130.084Z" fill="#6C63FF"/>
</g>
<g opacity="0.35">
<path opacity="0.2" d="M72.0121 132.628H48V133.302H72.0121V132.628Z" fill="#6C63FF"/>
</g>
<g opacity="0.35">
<path opacity="0.2" d="M72.0121 135.169H48V135.844H72.0121V135.169Z" fill="#6C63FF"/>
</g>
<g opacity="0.35">
<path opacity="0.2" d="M72.0121 137.71H48V138.385H72.0121V137.71Z" fill="#6C63FF"/>
</g>
<path d="M179.578 177.288H179.488C180.326 175.127 181.098 173.016 181.062 172.62C180.99 171.827 179.397 173.558 179.335 173.126C179.272 172.694 179.335 171.043 178.611 171.043C177.888 171.043 177.454 171.907 177.02 171.907C176.586 171.907 174.848 171.618 174.848 171.618L172.616 177.288H155.895V230.207H197.397V177.288H179.578Z" fill="url(#paint2_linear)"/>
<path d="M197.006 177.655H156.228V229.863H197.006V177.655Z" fill="#F6F7F9"/>
<path opacity="0.1" d="M179.499 177.655C178.648 179.872 177.694 182.193 177.472 182.751C177.04 183.818 176.761 183.248 176.263 183.107C175.764 182.967 175.125 183.248 174.84 183.107C174.555 182.967 172.884 183.107 172.884 183.107C172.902 182.846 172.902 182.584 172.884 182.323C172.847 182.04 170.928 182.323 170.928 182.323L172.748 177.655H179.499Z" fill="black"/>
<path d="M174.84 172.054L170.928 182.092C170.928 182.092 172.847 181.807 172.884 182.092C172.902 182.352 172.902 182.614 172.884 182.874C172.884 182.874 174.555 182.734 174.84 182.874C175.125 183.015 175.764 182.734 176.263 182.874C176.761 183.015 177.044 183.587 177.472 182.52C177.899 181.452 181.027 173.833 180.956 173.05C180.885 172.268 179.32 173.975 179.248 173.55C179.177 173.124 179.248 171.495 178.538 171.495C177.828 171.495 177.4 172.34 176.973 172.34C176.545 172.34 174.84 172.054 174.84 172.054Z" fill="#9D9CB5"/>
<g opacity="0.35">
<path opacity="0.2" d="M188.623 192.244H164.611V193.957H188.623V192.244Z" fill="#6C63FF"/>
</g>
<g opacity="0.35">
<path opacity="0.2" d="M188.623 203.375H164.611V205.088H188.623V203.375Z" fill="#6C63FF"/>
</g>
<g opacity="0.35">
<path opacity="0.2" d="M188.623 214.508H164.611V216.221H188.623V214.508Z" fill="#6C63FF"/>
</g>
<path d="M61.6376 179.096V172.707H52.6757V179.096H33.9639V229.442H77.9141V179.096H61.6376Z" fill="url(#paint3_linear)"/>
<path d="M77.4506 179.352H34.4287V229.113H77.4506V179.352Z" fill="#F6F7F9"/>
<path opacity="0.1" d="M61.5192 179.352H52.7451V186.13H61.5192V179.352Z" fill="black"/>
<path d="M61.5192 173.035H52.7451V185.899H61.5192V173.035Z" fill="#9D9CB5"/>
<g opacity="0.35">
<path opacity="0.2" d="M67.9447 191.388H43.9326V193.102H67.9447V191.388Z" fill="#6C63FF"/>
</g>
<g opacity="0.35">
<path opacity="0.2" d="M67.9447 194.796H43.9326V196.51H67.9447V194.796Z" fill="#6C63FF"/>
</g>
<g opacity="0.35">
<path opacity="0.2" d="M67.9447 198.206H43.9326V199.919H67.9447V198.206Z" fill="#6C63FF"/>
</g>
<g opacity="0.35">
<path opacity="0.2" d="M67.9447 201.613H43.9326V203.327H67.9447V201.613Z" fill="#6C63FF"/>
</g>
<g opacity="0.35">
<path opacity="0.2" d="M67.9468 205.408H61.5195V210.607H67.9468V205.408Z" fill="#6C63FF"/>
</g>
<g opacity="0.35">
<path opacity="0.2" d="M50.3599 211.839H43.9326V217.038H50.3599V211.839Z" fill="#6C63FF"/>
</g>
<path d="M123.362 179.016H123.302C124.001 176.278 124.528 174.098 124.528 174.098L121.544 175.502C121.544 175.502 119.426 172.693 118.643 173.162C117.859 173.631 116.138 174.8 116.138 174.8L113.854 173.629L112.98 179.016H94.9414V217.889L96.1008 218.583C97.0572 218.239 98.6311 217.656 98.6311 217.656L97.9078 219.665L98.3958 219.955L99.2183 219.209L99.5227 220.633L100.501 221.219L102.044 220.236L101.613 221.891L103.061 222.755L107.273 221.171L106.004 224.517L106.84 225.018L108.746 224.683C108.746 224.683 108.66 225.351 108.606 226.075L110.518 227.22C111.302 226.915 112.04 226.615 112.04 226.615C112.04 226.615 111.965 227.345 111.93 228.063L113.213 228.832C114.225 228.24 115.514 227.434 115.514 227.434L114.435 229.443H138.81V179.016H123.362Z" fill="url(#paint4_linear)"/>
<path d="M138.329 179.352V229.113H114.423L115.49 227.132C115.49 227.132 114.227 227.925 113.233 228.51L111.977 227.75C112.011 227.043 112.087 226.321 112.087 226.321C112.087 226.321 111.362 226.618 110.593 226.918L108.717 225.788C108.771 225.075 108.853 224.416 108.853 224.416L106.985 224.746L106.167 224.251L107.411 220.949L103.281 222.514L101.858 221.65L102.272 220.016L100.761 220.986L99.8024 220.409L99.5045 219.005L98.697 219.744L98.2177 219.456L98.928 217.475C98.928 217.475 97.3843 218.049 96.4452 218.389L95.3096 217.706V179.352H138.329Z" fill="#F6F7F9"/>
<g opacity="0.35">
<path opacity="0.2" d="M128.824 194.796H104.812V196.51H128.824V194.796Z" fill="#6C63FF"/>
</g>
<g opacity="0.35">
<path opacity="0.2" d="M128.824 199.919H104.812V201.633H128.824V199.919Z" fill="#6C63FF"/>
</g>
<g opacity="0.35">
<path opacity="0.2" d="M128.824 205.04H104.812V206.754H128.824V205.04Z" fill="#6C63FF"/>
</g>
<g opacity="0.35">
<path opacity="0.2" d="M109.622 210.164H104.812V211.878H109.622V210.164Z" fill="#6C63FF"/>
</g>
<path opacity="0.1" d="M123.177 179.351C122.007 183.971 120.302 190.372 119.857 190.26C119.166 190.072 118.087 188.747 118.087 188.747C118.087 188.747 115.548 191.135 114.317 189.903C113.086 188.671 111.392 189.516 111.392 189.516L113.032 179.349L123.177 179.351Z" fill="black"/>
<path d="M113.855 174.046L111.392 189.298C111.392 189.298 113.084 188.451 114.315 189.685C115.545 190.919 118.087 188.524 118.087 188.524C118.087 188.524 119.166 189.847 119.857 190.037C120.548 190.227 124.322 174.509 124.322 174.509L121.396 175.896C121.396 175.896 119.319 173.121 118.549 173.584C117.778 174.046 116.094 175.202 116.094 175.202L113.855 174.046Z" fill="#9D9CB5"/>
<path d="M133.977 107.502V106.04H111.066C110.014 106.04 110.658 107.502 110.658 107.502H98.209V140.12H152.853V107.49L133.977 107.502Z" fill="url(#paint5_linear)"/>
<path d="M152.525 107.658H98.5547V139.897H152.525V107.658Z" fill="#F6F7F9"/>
<path opacity="0.1" d="M133.882 112.916H112.467C112.467 112.916 112.236 110.431 112.987 109.97C113.739 109.51 110.85 107.889 110.85 107.889C110.818 107.814 110.79 107.737 110.766 107.658H133.882V108.41C133.882 108.41 136.827 111.01 133.882 112.916Z" fill="black"/>
<path d="M111.254 106.215H133.882V108.179C133.882 108.179 136.827 110.772 133.882 112.685H112.467C112.467 112.685 112.236 110.2 112.988 109.739C113.739 109.279 110.85 107.658 110.85 107.658C110.85 107.658 110.216 106.215 111.254 106.215Z" fill="#9D9CB5"/>
<g opacity="0.35">
<path opacity="0.2" d="M145.9 117.77H105.186V118.444H145.9V117.77Z" fill="#6C63FF"/>
</g>
<g opacity="0.35">
<path opacity="0.2" d="M129.506 120.311H105.186V120.985H129.506V120.311Z" fill="#6C63FF"/>
</g>
<g opacity="0.35">
<path opacity="0.2" d="M145.9 122.854H105.186V123.528H145.9V122.854Z" fill="#6C63FF"/>
</g>
<g opacity="0.35">
<path opacity="0.2" d="M145.9 125.395H105.186V126.069H145.9V125.395Z" fill="#6C63FF"/>
</g>
<g opacity="0.35">
<path opacity="0.2" d="M145.9 127.937H105.186V128.611H145.9V127.937Z" fill="#6C63FF"/>
</g>
<path d="M210.976 351.276C210.367 348.686 209.993 346.417 209.993 346.417C209.993 346.417 210.132 343.6 208.866 341.487V340.783V335.581C209.225 334.639 209.665 333.73 210.18 332.863C211.119 331.226 210.18 325.232 210.18 325.232C210.18 325.232 206.702 316.782 207.55 311.424C208.397 306.065 200.404 287.623 200.404 287.623C200.453 285.843 200.705 284.075 201.156 282.353C201.239 281.991 201.273 281.619 201.258 281.248C201.258 281.204 201.258 281.16 201.258 281.113V281.157C201.139 277.623 198.342 270.998 198.342 270.998L198.716 258.368C198.716 258.368 200.502 250.92 197.59 240.928C196.569 237.438 195.919 234.649 195.507 232.495C195.459 232.25 195.415 232.015 195.374 231.791C201.374 230.877 205.954 230.116 205.954 230.116C205.954 230.116 202.473 215.574 200.125 213.032C197.777 210.491 195.895 202.499 195.895 202.499C195.895 202.499 194.67 192.235 196.647 189.248C198.624 186.262 198.9 181.07 198.9 181.07C198.9 181.07 203.412 177.801 203.977 176.347C204.542 174.893 205.481 171.624 205.481 169.892C205.481 168.159 204.916 166.62 205.106 165.712C205.297 164.805 203.79 161.353 204.542 159.715C204.737 159.213 204.838 158.678 204.841 158.139C204.843 158.123 204.843 158.107 204.841 158.091C204.841 158.091 204.841 158.091 204.841 158.074C204.846 156.643 204.713 155.215 204.443 153.81C204.443 153.81 202.401 152.013 199.982 151.432L199.883 151.041L199.628 150.022C199.484 149.925 199.335 149.837 199.182 149.757V149.386L199.141 147.912L199.849 144.592C201.234 138.816 193.527 137.963 193.527 137.963C193.065 137.073 192.287 136.388 191.345 136.04C189.794 135.493 191.087 144.718 191.812 145.306C192.36 145.751 194.044 148.642 194.854 150.062L194.986 150.297C194.863 150.411 194.75 150.535 194.646 150.667L194.939 152.668L194.983 152.974C194.473 153.609 194.059 154.316 193.755 155.071C193.755 155.071 195.167 156.613 194.884 158.339C194.602 160.065 195.317 162.216 195.351 162.335C195.266 162.24 194.275 161.166 193.285 161.428C192.295 161.689 189.542 162.518 189.542 162.518C189.542 162.518 187.473 162.882 187.664 163.337C187.854 163.793 186.252 165.79 186.252 165.79L180.695 160.531C180.64 160.375 180.586 160.218 180.535 160.055C180.303 159.304 180.141 158.533 180.052 157.751C180.657 157.607 181.25 157.419 181.828 157.187C182.412 156.989 182.94 156.652 183.366 156.206C183.924 155.526 184.046 154.639 184.261 153.827C184.7 152.21 185.646 150.769 186.323 149.237C187.467 146.648 187.851 143.789 187.432 140.991C187.345 140.13 187.052 139.303 186.578 138.578C185.673 137.331 184.026 136.825 182.835 135.829C181.644 134.834 180.868 133.318 179.473 132.571C178.214 131.891 176.676 131.976 175.257 132.207C172.476 132.665 169.805 133.635 167.38 135.068C166.57 135.547 165.678 136.088 164.746 135.931C163.95 135.789 163.364 135.15 162.85 134.542C162.857 134.515 162.865 134.489 162.874 134.463L162.813 134.392C162.225 135.696 161.93 137.114 161.949 138.544C161.949 138.765 161.949 138.986 161.976 139.224C161.976 139.302 161.976 139.38 161.976 139.458C161.981 139.521 161.981 139.585 161.976 139.648C161.976 139.747 161.962 139.846 161.935 139.941C161.817 140.225 161.639 140.481 161.414 140.692C161.245 140.882 161.093 141.088 160.962 141.307C160.986 141.232 161.01 141.157 161.037 141.082C160.682 141.598 160.483 142.204 160.462 142.829C160.431 143.285 160.582 143.735 160.88 144.082C161.157 144.354 161.46 144.598 161.785 144.81C161.402 146.941 161.683 149.139 162.589 151.106C163.496 153.073 164.985 154.715 166.856 155.811C166.92 155.968 166.981 156.127 167.046 156.287C167.754 158.156 168.288 160.33 168.067 162.338C168.047 162.488 168.026 162.634 167.999 162.78C167.927 162.855 167.859 162.933 167.798 163.011C167.798 163.011 158.611 163.099 156.463 161.146C154.316 159.192 151.019 165.903 151.019 165.903C151.019 165.903 147.728 166.541 147.072 165.903C146.415 165.264 142.56 165.814 142.56 165.814C142.56 165.814 140.208 163.541 136.826 163.725C135.541 162.75 134.124 161.963 132.617 161.387L132.511 161.35C131.849 161.111 131.143 161.022 130.442 161.088C130.442 161.088 125.93 157.351 124.617 155.366C123.303 153.382 117.032 145.955 117.005 145.921L116.981 145.581L116.909 144.5C116.724 144.53 116.536 144.545 116.348 144.548L116.222 144.174C115.862 143.12 115.416 142.097 114.888 141.116C114.888 141.116 114.888 139.757 115.286 139.417C115.684 139.078 115.123 134.08 115.123 134.08C115.123 134.08 111.056 124.586 107.416 131.674C107.416 131.674 100.532 136.257 106.31 141.595C106.31 141.595 108.613 142.713 108.94 143.597C109.154 144.171 109.937 145.771 110.464 146.838C110.553 147.015 110.631 147.178 110.699 147.314L110.635 147.368L110.72 148.258L110.754 148.598C109.665 149.216 108.926 149.825 109.107 150.297C109.428 151.084 109.649 151.908 109.763 152.75C109.763 152.75 117.753 162.743 118.788 167.02C118.788 167.02 140.225 179.738 147.269 180.649L146.047 187.006C146.047 187.006 145.67 190.822 145.765 192.184C145.86 193.546 144.918 199.727 144.918 199.727C144.918 199.727 143.696 208.809 142.662 210.08C141.627 211.351 141.818 216.804 141.818 216.804C141.569 219.414 141.096 221.998 140.406 224.527C139.385 227.979 140.127 232.247 140.127 232.247C140.127 232.247 136.554 240.425 145.108 234.883C145.108 234.883 149.307 234.622 154.143 234.458C154.143 234.615 154.143 234.774 154.143 234.938C154.143 235.559 154.122 236.232 154.115 236.942C154.051 241.624 154.024 248.076 154.235 252.959C154.609 261.589 157.243 278.67 157.243 278.67V287.249C157.073 288.055 156.989 288.878 156.994 289.702C156.936 292.727 157.74 295.705 159.312 298.291L159.893 303.955C159.893 303.955 161.438 307.727 161.469 309.98C161.462 310.164 161.439 310.347 161.401 310.527C161.343 310.815 161.318 311.109 161.326 311.403C161.238 314.003 162.806 320.217 162.806 320.217C162.806 320.217 162.902 326.486 163.827 326.849C164.63 327.158 162.755 330.461 162.194 331.409C162.194 331.348 162.17 331.29 162.16 331.229C162.088 331.351 162.044 331.419 162.044 331.419C161.851 331.925 161.752 332.461 161.751 333.003C161.698 333.431 161.768 333.865 161.952 334.256C162.136 334.646 162.428 334.976 162.793 335.208C164.579 336.298 165.539 337.206 164.024 337.586C163.467 337.671 162.913 337.784 162.367 337.926C162.34 337.855 162.313 337.783 162.289 337.715C162.078 337.802 161.902 337.958 161.789 338.157C161.677 338.356 161.635 338.587 161.67 338.813C161.629 339.271 161.782 339.941 162.231 340.94C163.735 344.3 164.776 345.574 164.776 345.574L165.498 345.493C165.388 345.766 165.247 346.026 165.079 346.267C164.805 346.661 164.439 346.984 164.014 347.208C163.623 347.444 163.185 347.594 162.731 347.647C162.221 347.664 161.72 347.788 161.261 348.011C160.802 348.234 160.395 348.551 160.067 348.941C159.131 350.151 158.543 351.802 160.407 353.25L167.131 355.567C167.131 355.567 178.701 357.065 178.078 354.476C177.455 351.887 177.095 349.617 177.095 349.617C177.095 349.617 177.224 347.09 176.155 345.024C176.036 344.788 175.899 344.561 175.747 344.344L176.155 344.297C176.155 344.297 176.999 338.575 178.129 337.501C178.388 337.25 178.445 337.056 178.384 336.91C178.503 336.597 178.207 336.414 177.83 336.312L177.748 336.536C177.379 336.456 177.003 336.414 176.625 336.41C176.625 336.41 176.247 333.414 177.469 332.333C177.568 332.21 177.641 332.066 177.682 331.913C177.723 331.76 177.731 331.6 177.707 331.443C177.717 331.033 177.675 330.623 177.581 330.223C177.581 330.244 177.554 330.271 177.537 330.291C176.921 327.573 174.839 323.248 174.839 323.248C174.839 323.248 174.743 320.53 175.495 319.435C176.247 318.341 175.403 304.625 175.403 304.625C175.403 304.625 175.686 297.996 174.839 294.907C173.991 291.819 175.859 288.183 175.859 288.183C175.859 288.183 175.859 288.112 175.839 287.986L175.863 287.939C175.863 287.939 175.822 287.531 175.754 286.895C175.744 286.915 175.736 286.936 175.73 286.957C175.543 285.203 175.182 282.023 174.92 280.552C174.542 278.462 175.012 268.47 175.012 268.47L176.713 264.202L179.722 271.558L182.92 281.371C182.92 281.371 184.502 283.443 184.54 285.543C184.54 285.645 184.54 285.747 184.519 285.849C184.494 286.067 184.481 286.286 184.482 286.505C184.426 287.744 184.767 288.969 185.455 290.001C185.455 290.001 186.303 294.632 187.619 295.814C188.936 296.997 188.933 299.267 188.933 299.267C188.933 299.267 190.532 305.987 191.284 307.17C191.917 308.165 191.965 310.907 191.944 311.74C191.944 311.896 191.944 311.984 191.944 311.984C191.944 311.984 192.166 314.386 192.159 316.401C192.159 316.649 192.159 316.891 192.135 317.118V317.067C192.133 317.618 192.068 318.166 191.941 318.702C191.93 318.732 191.921 318.762 191.914 318.793C191.914 318.681 191.914 318.566 191.941 318.454C191.613 319.826 191.456 321.233 191.471 322.643C191.427 325.059 191.812 327.923 193.261 329.601C195.8 332.51 197.399 332.146 197.399 332.146C197.399 332.146 196.174 335.779 194.677 336.506C194.62 336.534 194.567 336.568 194.517 336.608C194.517 336.536 194.49 336.468 194.479 336.397C194.166 336.669 194.04 337.158 194.04 337.756C193.932 339.353 194.939 341.949 195.902 343.141C196.257 343.489 196.693 343.744 197.171 343.882C197.094 343.935 197.015 343.983 196.933 344.028C196.766 344.119 196.593 344.2 196.416 344.269C196.173 344.377 195.914 344.444 195.65 344.47C195.14 344.481 194.637 344.601 194.177 344.822C193.716 345.042 193.308 345.357 192.979 345.747C192.043 346.954 191.454 348.605 193.319 350.052L200.043 352.37C200.043 352.37 211.592 353.865 210.976 351.276Z" fill="url(#paint6_linear)"/>
<path d="M166.821 355.567L160.315 353.25C158.518 351.803 159.09 350.151 159.998 348.942C160.31 348.554 160.701 348.238 161.145 348.015C161.59 347.792 162.077 347.666 162.574 347.647C163.015 347.593 163.439 347.444 163.816 347.209C164.227 346.981 164.577 346.658 164.837 346.268C165.313 345.516 165.57 344.646 165.579 343.757C165.579 343.757 172.725 341.667 174.678 343.757C175.027 344.135 175.318 344.562 175.542 345.024C176.563 347.09 176.454 349.618 176.454 349.618C176.454 349.618 176.818 351.884 177.407 354.477C177.996 357.069 166.821 355.567 166.821 355.567Z" fill="#2D293D"/>
<path d="M198.66 352.367L192.154 350.049C190.361 348.602 190.932 346.951 191.837 345.744C192.148 345.356 192.539 345.04 192.984 344.816C193.428 344.593 193.916 344.468 194.413 344.45C194.671 344.425 194.923 344.357 195.158 344.249C195.33 344.18 195.497 344.099 195.659 344.008C197.479 343.009 197.432 340.556 197.432 340.556C197.432 340.556 204.577 338.467 206.531 340.556C206.792 340.839 207.02 341.15 207.211 341.484C208.436 343.597 208.3 346.417 208.3 346.417C208.3 346.417 208.664 348.687 209.256 351.276C209.848 353.865 198.66 352.367 198.66 352.367Z" fill="#2D293D"/>
<path opacity="0.1" d="M174.69 343.756C175.038 344.134 175.33 344.561 175.554 345.024L164.849 346.264C165.325 345.512 165.581 344.642 165.59 343.753C165.59 343.753 172.736 341.67 174.69 343.756Z" fill="black"/>
<path opacity="0.1" d="M207.215 341.484V343.485C205.551 346.224 197.497 345.626 195.159 344.249C195.331 344.18 195.498 344.099 195.659 344.008C197.48 343.009 197.432 340.556 197.432 340.556C197.432 340.556 204.578 338.467 206.531 340.556C206.794 340.838 207.023 341.15 207.215 341.484Z" fill="black"/>
<path d="M208.488 332.857C207.989 333.726 207.563 334.635 207.215 335.575V342.758C205.395 345.755 195.932 344.756 194.659 343.121C193.386 341.487 192.022 337.216 193.475 336.489C194.928 335.762 196.109 332.13 196.109 332.13C196.109 332.13 194.56 332.493 192.104 329.585C189.647 326.676 190.375 320.228 190.834 318.685C191.294 317.142 190.834 311.961 190.834 311.961C190.834 311.961 190.926 308.329 190.198 307.146C189.47 305.964 187.942 299.243 187.942 299.243C187.942 299.243 187.942 296.974 186.666 295.791C185.39 294.609 184.573 289.978 184.573 289.978C183.829 288.82 183.508 287.441 183.665 286.074C183.937 283.801 182.116 281.348 182.116 281.348L179.023 271.538L176.114 264.179L174.477 268.45C174.477 268.45 174.021 278.442 174.385 280.532C174.749 282.622 175.294 288.163 175.294 288.163C175.294 288.163 173.477 291.795 174.293 294.884C175.11 297.973 174.841 304.605 174.841 304.605C174.841 304.605 175.658 318.321 174.93 319.412C174.202 320.503 174.293 323.228 174.293 323.228C174.293 323.228 178.036 331.219 176.842 332.31C175.648 333.401 176.022 336.387 176.022 336.387C176.022 336.387 178.571 336.387 177.478 337.478C176.386 338.569 175.566 344.273 175.566 344.273L164.568 345.547C164.568 345.547 163.547 344.273 162.105 340.913C160.662 337.553 162.377 337.916 163.84 337.553C165.303 337.189 164.378 336.282 162.649 335.174C160.92 334.067 161.921 331.63 161.921 331.63C161.921 331.63 164.558 327.179 163.649 326.816C162.741 326.452 162.649 320.183 162.649 320.183C162.649 320.183 160.829 312.736 161.288 310.738C161.747 308.74 159.814 303.956 159.814 303.956L159.178 298.231C155.901 292.601 157.177 287.423 157.177 287.423V278.623C157.177 278.623 154.629 261.546 154.265 252.915C154.033 247.387 154.098 239.844 154.173 235.139C154.217 232.498 154.265 230.749 154.265 230.749L193.567 226.671C193.567 226.671 193.526 228.482 194.281 232.502C194.68 234.656 195.302 237.446 196.296 240.935C199.117 250.928 197.388 258.376 197.388 258.376L197.024 270.998C197.024 270.998 200.481 279.448 199.746 282.353C199.31 284.078 199.066 285.845 199.018 287.623C199.018 287.623 206.759 306.059 205.939 311.431C205.119 316.803 208.488 325.239 208.488 325.239C208.488 325.239 209.397 331.219 208.488 332.857Z" fill="#575988"/>
<path opacity="0.05" d="M186.015 285.526L197.979 283.936C197.979 283.936 191.2 290.84 186.015 285.526Z" fill="black"/>
<path opacity="0.1" d="M196.251 272.265C196.251 272.265 196.659 276.488 194.066 278.078C194.066 278.078 198.708 277.351 196.251 272.265Z" fill="black"/>
<path opacity="0.1" d="M195.518 258.82C195.518 258.82 185.517 267.039 181.879 266.359C178.242 265.68 195.518 258.82 195.518 258.82Z" fill="black"/>
<path opacity="0.1" d="M171.187 289.39C171.187 289.39 163.592 291.113 163.36 294.147C163.129 297.181 171.187 289.39 171.187 289.39Z" fill="black"/>
<path opacity="0.05" d="M172.857 327.268C172.857 327.268 162.121 329.269 165.17 330.631C168.219 331.994 173.221 333.081 173.221 333.081C173.221 333.081 176.678 333.265 172.857 327.268Z" fill="black"/>
<g opacity="0.05">
<path opacity="0.05" d="M163.004 332.793C162.734 332.624 162.505 332.397 162.335 332.128C162.164 331.86 162.057 331.556 162.021 331.24L161.912 331.43C161.912 331.43 160.912 333.883 162.64 334.974L163.202 335.341C163.518 335.283 163.862 335.239 164.195 335.154C165.658 334.79 164.733 333.883 163.004 332.793Z" fill="black"/>
<path opacity="0.05" d="M176.831 332.065C177.124 331.793 177.114 331.097 176.933 330.2C176.45 330.903 176.334 331.997 176.324 332.83C176.437 332.541 176.609 332.281 176.831 332.065Z" fill="black"/>
<path opacity="0.05" d="M175.178 286.872C174.78 287.945 174.536 289.07 174.453 290.212C174.658 289.423 174.936 288.655 175.283 287.918C175.283 287.918 175.243 287.507 175.178 286.872Z" fill="black"/>
<path opacity="0.05" d="M199.756 282.101C199.83 281.776 199.863 281.442 199.855 281.109C199.722 281.788 199.627 282.417 199.56 282.967C199.617 282.685 199.682 282.397 199.756 282.101Z" fill="black"/>
<path opacity="0.05" d="M174.92 319.167C175.07 318.942 175.151 318.195 175.192 317.148C174.852 317.811 174.712 318.881 174.668 319.697C174.731 319.511 174.815 319.333 174.92 319.167Z" fill="black"/>
<path opacity="0.05" d="M177.176 336.298C176.427 338.337 175.92 341.877 175.92 341.877L164.919 343.148C164.919 343.148 163.898 341.877 162.455 338.517C162.33 338.221 162.228 337.956 162.146 337.715C161.486 338.018 161.227 338.701 162.091 340.695C163.548 344.055 164.555 345.329 164.555 345.329L175.556 344.049C175.556 344.049 176.376 338.327 177.469 337.253C178.006 336.709 177.663 336.434 177.176 336.298Z" fill="black"/>
<path opacity="0.05" d="M162.638 319.983C162.638 319.983 162.73 326.252 163.639 326.615C164.098 325.579 164.404 324.576 163.979 324.43C163.07 324.07 162.978 317.801 162.978 317.801C162.978 317.801 161.158 310.35 161.617 308.352C162.077 306.354 160.161 301.54 160.161 301.54L159.525 295.818C156.248 290.185 157.524 285.007 157.524 285.007V276.2C157.524 276.2 154.975 259.119 154.611 250.489C154.38 244.964 154.444 237.421 154.519 232.716C154.519 231.863 154.55 231.109 154.563 230.473L154.247 230.504C154.247 230.504 154.199 232.254 154.155 234.894C154.08 239.599 154.016 247.125 154.247 252.67C154.611 261.301 157.16 278.378 157.16 278.378V287.191C157.16 287.191 155.884 292.369 159.161 297.999L159.797 303.725C159.797 303.725 161.706 308.539 161.253 310.52C160.801 312.501 162.638 319.983 162.638 319.983Z" fill="black"/>
<path opacity="0.05" d="M195.025 340.695C194.131 339.403 193.536 337.929 193.283 336.38C192.16 337.399 193.45 341.324 194.644 342.876C195.917 344.511 205.38 345.51 207.2 342.513V340.783C204.757 343.219 196.23 342.241 195.025 340.695Z" fill="black"/>
<path opacity="0.05" d="M208.855 330.431C208.354 331.299 207.927 332.209 207.579 333.149V334.423C207.787 333.958 208.083 333.336 208.491 332.605C208.753 332.133 208.862 331.301 208.889 330.353C208.876 330.383 208.865 330.41 208.855 330.431Z" fill="black"/>
<path opacity="0.05" d="M195.585 331.861C195.933 331.163 196.233 330.442 196.483 329.703C196.483 329.703 194.935 330.067 192.478 327.162C190.691 325.045 190.589 321.046 190.845 318.44C190.385 319.986 189.66 326.435 192.114 329.34C193.727 331.243 194.935 331.742 195.585 331.861Z" fill="black"/>
<path opacity="0.05" d="M190.84 311.716C191 313.507 191.06 315.305 191.02 317.102C191.067 316.818 191.129 316.536 191.207 316.259C191.667 314.717 191.207 309.539 191.207 309.539C191.207 309.539 191.299 305.903 190.571 304.724C189.843 303.545 188.281 296.821 188.281 296.821C188.281 296.821 188.281 294.548 187.008 293.369C185.736 292.19 184.916 287.555 184.916 287.555C184.171 286.396 183.85 285.016 184.007 283.648C184.279 281.378 182.459 278.925 182.459 278.925L179.366 269.112L176.456 261.756L174.816 266.024C174.816 266.024 174.792 266.561 174.762 267.403L176.092 263.934L179.002 271.294L182.095 281.103C182.095 281.103 183.915 283.556 183.643 285.829C183.486 287.196 183.807 288.575 184.552 289.733C184.552 289.733 185.372 294.368 186.644 295.547C187.917 296.726 187.941 298.999 187.941 298.999C187.941 298.999 189.489 305.723 190.217 306.902C190.945 308.081 190.84 311.716 190.84 311.716Z" fill="black"/>
</g>
<path d="M198.49 144.603L197.81 147.919L197.851 149.394L197.878 150.484L194.067 150.858L193.641 150.073C192.855 148.653 191.225 145.761 190.695 145.316C189.994 144.725 188.741 135.504 190.245 136.051C191.162 136.405 191.915 137.085 192.359 137.96C192.359 137.96 199.824 138.827 198.49 144.603Z" fill="#FFCDD3"/>
<path opacity="0.1" d="M197.862 150.467L194.065 150.858L193.64 150.073C194.184 149.513 195.739 148.238 197.832 149.394L197.862 150.467Z" fill="black"/>
<path d="M198.831 152.262L193.819 153.437L193.713 152.69L193.431 150.688C193.431 150.688 195.408 148.052 198.276 150.026L198.525 151.045L198.831 152.262Z" fill="#DCE6F2"/>
<path d="M117.734 144.942L112.399 147.81C112.399 147.81 112.195 147.389 111.916 146.791C111.405 145.727 110.65 144.123 110.442 143.549C110.126 142.666 107.894 141.551 107.894 141.551C102.303 136.214 108.965 131.627 108.965 131.627C112.491 124.542 116.424 134.032 116.424 134.032C116.424 134.032 116.969 139.034 116.584 139.37C116.2 139.706 116.2 141.069 116.2 141.069C116.71 142.052 117.14 143.075 117.486 144.127C117.646 144.636 117.734 144.942 117.734 144.942Z" fill="#FFCDD3"/>
<path opacity="0.1" d="M117.735 144.943L112.399 147.81C112.399 147.81 112.195 147.389 111.916 146.791C112.668 146.162 115.343 143.998 116.221 144.097C116.64 144.148 117.064 144.159 117.486 144.127C117.646 144.637 117.735 144.943 117.735 144.943Z" fill="black"/>
<path d="M118.283 146.56L112.277 149.516L112.158 148.225L112.06 147.321C112.06 147.321 115.537 144.345 116.565 144.46C117.085 144.537 117.614 144.537 118.134 144.46L118.202 145.541L118.283 146.56Z" fill="#DCE6F2"/>
<path d="M183.923 166.616C183.923 166.616 157.742 169.566 162.635 167.975C166.038 166.868 167.399 164.703 167.678 162.305C167.909 160.297 167.392 158.125 166.705 156.257C166.086 154.607 165.302 153.025 164.363 151.534C164.363 151.534 184.379 140.539 180.357 150.515C179.74 152.027 179.358 153.624 179.223 155.251C179.101 156.867 179.275 158.492 179.737 160.045C180.495 162.581 181.944 164.856 183.923 166.616Z" fill="#FFCDD3"/>
<path opacity="0.1" d="M180.373 150.535C179.757 152.047 179.374 153.644 179.24 155.271C177.355 156.851 175.286 156.749 172.632 156.749C170.59 156.749 168.334 157.242 166.704 156.26C166.086 154.611 165.302 153.028 164.363 151.537C164.363 151.537 184.379 140.542 180.373 150.535Z" fill="black"/>
<path d="M172.279 157.442C178.259 157.442 183.107 152.602 183.107 146.631C183.107 140.66 178.259 135.819 172.279 135.819C166.299 135.819 161.451 140.66 161.451 146.631C161.451 152.602 166.299 157.442 172.279 157.442Z" fill="#FFCDD3"/>
<path opacity="0.1" d="M183.923 166.616C183.923 166.616 157.742 169.565 162.635 167.975C166.038 166.867 167.399 164.703 167.678 162.304C168.981 160.898 171.601 159.878 173.282 159.338C174.824 158.82 176.488 158.792 178.046 159.26C178.657 159.442 179.238 159.712 179.771 160.062C180.523 162.587 181.959 164.856 183.923 166.616Z" fill="black"/>
<path opacity="0.1" d="M198.831 152.261L193.818 153.436L193.713 152.689C195.125 150.888 196.905 150.671 198.524 151.048L198.831 152.261Z" fill="black"/>
<path opacity="0.1" d="M118.282 146.56L112.276 149.516L112.157 148.225C114.304 146.961 117.901 145.659 118.214 145.547L118.282 146.56Z" fill="black"/>
<path opacity="0.1" d="M194.282 232.492C184.141 234.089 169.71 236.171 167.42 235.475C165.521 234.897 159.454 234.958 154.173 235.135C154.217 232.495 154.265 230.745 154.265 230.745L193.567 226.668C193.567 226.668 193.526 228.472 194.282 232.492Z" fill="black"/>
<path d="M204.395 230.113C204.395 230.113 171.007 235.838 167.42 234.747C163.834 233.656 145.442 234.839 145.442 234.839C137.163 240.377 140.62 232.202 140.62 232.202C140.62 232.202 139.892 227.935 140.892 224.482C141.56 221.95 142.015 219.367 142.253 216.759C142.253 216.759 142.073 211.323 143.073 210.039C144.074 208.754 145.255 199.683 145.255 199.683C145.255 199.683 146.167 193.505 146.075 192.143C145.983 190.78 146.347 186.965 146.347 186.965L147.534 180.618C140.729 179.711 119.972 166.993 119.972 166.993C118.971 162.722 111.237 152.723 111.237 152.723C111.124 151.882 110.911 151.059 110.601 150.269C110.053 148.815 118.243 145.91 118.243 145.91C118.243 145.91 124.338 153.358 125.61 155.356C126.883 157.354 131.252 161.081 131.252 161.081C131.93 161.011 132.616 161.101 133.253 161.343C133.29 161.343 133.321 161.363 133.358 161.373C133.396 161.383 133.358 161.373 133.358 161.373C135.4 162.083 137.442 163.707 137.442 163.707C140.719 163.527 142.992 165.797 142.992 165.797C142.992 165.797 146.735 165.253 147.358 165.889C147.98 166.524 151.179 165.889 151.179 165.889C151.179 165.889 154.364 159.165 156.457 161.132C158.549 163.099 167.427 162.994 167.427 162.994C168.611 161.424 171.49 160.3 173.29 159.718C174.832 159.2 176.496 159.173 178.054 159.64C178.726 159.831 179.359 160.137 179.926 160.544L185.312 165.811C185.312 165.811 186.861 163.813 186.673 163.357C186.486 162.902 188.494 162.542 188.494 162.542C188.494 162.542 191.131 161.723 192.132 161.451C193.132 161.18 194.051 162.26 194.132 162.355C194.098 162.24 193.414 160.041 193.68 158.363C193.945 156.684 192.587 155.091 192.587 155.091C195.772 147.276 202.959 153.82 202.959 153.82C202.959 153.82 203.779 158.091 203.051 159.725C202.323 161.36 203.779 164.822 203.596 165.719C203.412 166.616 203.96 168.172 203.96 169.898C203.96 171.624 203.051 174.896 202.503 176.354C201.955 177.811 197.573 181.06 197.573 181.06C197.573 181.06 197.297 186.238 195.388 189.235C193.479 192.231 194.66 202.486 194.66 202.486C194.66 202.486 196.48 210.48 198.743 213.019C201.006 215.557 204.395 230.113 204.395 230.113Z" fill="#656691"/>
<path opacity="0.1" d="M155.72 170.34C155.72 170.34 154.72 167.344 153.811 167.068C152.905 166.736 152.023 166.342 151.171 165.889L151.756 164.771C151.756 164.771 155.176 165.706 155.72 166.705C156.265 167.704 155.72 170.34 155.72 170.34Z" fill="black"/>
<path opacity="0.1" d="M137.433 163.708C137.253 164.618 129.154 165.434 129.154 165.434L133.238 161.336L133.34 161.37C135.409 162.083 137.433 163.708 137.433 163.708Z" fill="black"/>
<path d="M114.007 151.965C114.409 151.965 114.735 151.639 114.735 151.238C114.735 150.836 114.409 150.511 114.007 150.511C113.604 150.511 113.278 150.836 113.278 151.238C113.278 151.639 113.604 151.965 114.007 151.965Z" fill="#575988"/>
<path d="M114.937 153.42C115.339 153.42 115.665 153.095 115.665 152.693C115.665 152.291 115.339 151.966 114.937 151.966C114.535 151.966 114.209 152.291 114.209 152.693C114.209 153.095 114.535 153.42 114.937 153.42Z" fill="#575988"/>
<path d="M115.85 154.762C116.252 154.762 116.578 154.436 116.578 154.035C116.578 153.633 116.252 153.308 115.85 153.308C115.448 153.308 115.122 153.633 115.122 154.035C115.122 154.436 115.448 154.762 115.85 154.762Z" fill="#575988"/>
<path d="M116.803 156.213C117.206 156.213 117.532 155.887 117.532 155.486C117.532 155.084 117.206 154.759 116.803 154.759C116.401 154.759 116.075 155.084 116.075 155.486C116.075 155.887 116.401 156.213 116.803 156.213Z" fill="#575988"/>
<path d="M202.559 155.998C202.886 155.998 203.151 155.733 203.151 155.407C203.151 155.08 202.886 154.815 202.559 154.815C202.232 154.815 201.967 155.08 201.967 155.407C201.967 155.733 202.232 155.998 202.559 155.998Z" fill="#575988"/>
<path d="M202.652 157.337C202.979 157.337 203.244 157.072 203.244 156.745C203.244 156.419 202.979 156.154 202.652 156.154C202.325 156.154 202.06 156.419 202.06 156.745C202.06 157.072 202.325 157.337 202.652 157.337Z" fill="#575988"/>
<path d="M202.733 158.679C203.06 158.679 203.325 158.414 203.325 158.088C203.325 157.761 203.06 157.497 202.733 157.497C202.406 157.497 202.141 157.761 202.141 158.088C202.141 158.414 202.406 158.679 202.733 158.679Z" fill="#575988"/>
<path opacity="0.1" d="M155.764 194.957C155.682 194.852 176.181 220.712 192.109 205.768C192.109 205.762 166.956 209.176 155.764 194.957Z" fill="black"/>
<path opacity="0.1" d="M143.984 208.402C143.984 208.402 156.255 208.742 157.541 212.262V215.928C157.192 216.123 156.799 216.225 156.399 216.225C156 216.225 155.607 216.123 155.258 215.928C154.019 215.248 146.601 211.511 143.984 213.308V208.402Z" fill="black"/>
<path d="M144.213 208.402C144.213 208.402 155.949 208.721 157.178 212.082V215.578C156.844 215.764 156.468 215.862 156.085 215.862C155.703 215.862 155.327 215.764 154.993 215.578C153.812 214.942 146.714 211.354 144.213 213.081V208.402Z" fill="#656691"/>
<path opacity="0.1" d="M150.684 181.794C150.684 181.794 152.089 185.402 155.448 189.948C157.524 192.73 160.04 195.156 162.896 197.131C162.896 197.131 150.888 183.479 150.684 181.794Z" fill="black"/>
<path opacity="0.1" d="M146.669 167.554C146.669 167.554 148.711 176.388 153.992 179.378L146.669 167.554Z" fill="black"/>
<path opacity="0.1" d="M143.528 168.448C143.477 168.285 141.711 175.427 150.333 179.379C150.33 179.379 146.669 178.138 143.528 168.448Z" fill="black"/>
<path opacity="0.1" d="M197.129 162.529C196.993 162.529 201.383 165.318 202.574 166.606C202.574 166.616 199.708 162.345 197.129 162.529Z" fill="black"/>
<path d="M169.353 156.43C169.506 156.988 169.694 157.599 170.197 157.891C170.516 158.044 170.865 158.122 171.218 158.119C174.519 158.323 177.952 158.459 181.008 157.198C181.577 156.996 182.087 156.658 182.495 156.213C183.036 155.55 183.141 154.65 183.359 153.835C183.788 152.221 184.7 150.777 185.36 149.244C186.466 146.646 186.837 143.795 186.432 141.001C186.347 140.143 186.064 139.316 185.605 138.586C184.727 137.339 183.135 136.832 181.974 135.84C180.814 134.848 180.072 133.329 178.721 132.582C177.503 131.902 175.999 131.987 174.638 132.218C171.938 132.678 169.351 133.648 167.016 135.076C166.233 135.558 165.372 136.112 164.467 135.942C163.677 135.793 163.106 135.13 162.595 134.508C161.949 135.99 161.67 137.605 161.782 139.218C161.817 139.454 161.809 139.694 161.758 139.928C161.646 140.21 161.475 140.465 161.255 140.675C160.441 141.62 159.931 143.115 160.737 144.073C161.078 144.487 161.626 144.715 161.966 145.136C162.578 145.897 162.371 146.988 162.357 147.96C162.321 148.297 162.405 148.637 162.595 148.918C162.902 149.288 163.46 149.319 163.933 149.237C164.406 149.156 164.889 148.996 165.355 149.102C165.863 149.271 166.3 149.606 166.594 150.053C168.118 151.973 168.714 154.117 169.353 156.43Z" fill="#2D293D"/>
<g opacity="0.1">
<path opacity="0.1" d="M182.857 155.381C182.449 155.826 181.939 156.164 181.37 156.366C178.307 157.637 174.881 157.491 171.58 157.284C171.227 157.289 170.877 157.213 170.559 157.059C170.059 156.764 169.879 156.156 169.715 155.598C169.076 153.268 168.48 151.141 166.956 149.204C166.662 148.757 166.225 148.422 165.717 148.252C165.251 148.147 164.768 148.307 164.295 148.388C163.822 148.47 163.274 148.439 162.957 148.069C162.767 147.788 162.683 147.448 162.719 147.111C162.719 146.139 162.937 145.045 162.328 144.287C161.988 143.863 161.45 143.638 161.096 143.224C160.592 142.622 160.606 141.81 160.888 141.053C160.31 141.97 160.058 143.149 160.735 143.948C161.076 144.366 161.623 144.59 161.964 145.014C162.573 145.772 162.369 146.866 162.355 147.838C162.319 148.175 162.403 148.515 162.593 148.796C162.9 149.166 163.458 149.197 163.931 149.116C164.404 149.034 164.887 148.874 165.353 148.98C165.861 149.149 166.298 149.484 166.592 149.931C168.116 151.868 168.711 154.008 169.351 156.325C169.504 156.879 169.691 157.491 170.195 157.787C170.513 157.94 170.863 158.017 171.216 158.011C174.517 158.218 177.95 158.351 181.006 157.093C181.575 156.891 182.085 156.553 182.493 156.108C182.699 155.845 182.858 155.549 182.962 155.231C182.928 155.282 182.894 155.333 182.857 155.381Z" fill="black"/>
<path opacity="0.1" d="M161.791 139.629C161.942 139.473 162.058 139.286 162.131 139.082C162.182 138.849 162.19 138.608 162.155 138.372C162.065 137.048 162.238 135.719 162.662 134.461L162.604 134.39C161.957 135.871 161.678 137.487 161.791 139.099C161.808 139.275 161.808 139.453 161.791 139.629Z" fill="black"/>
</g>
<path opacity="0.1" d="M167.42 162.981C167.42 162.981 180.946 164.772 182.161 162.743L167.42 162.981Z" fill="black"/>
<path opacity="0.1" d="M193.728 157.395C193.728 157.395 201.241 157.395 202.895 160.215L193.728 157.395Z" fill="black"/>
<path d="M78.7661 160.693L74.9959 162.024L73.6274 159.766C72.5802 158.029 71.1279 155.652 70.0562 153.925C68.1642 150.885 70.6392 146.258 70.6392 146.258C70.6392 146.258 71.0721 141.63 72.6709 140.185C74.2698 138.739 74.7061 146.258 74.7061 146.258C81.098 149.152 77.6734 155.948 77.6734 155.948L78.2948 158.647L78.7661 160.693Z" fill="#A1616A"/>
<path opacity="0.1" d="M78.7666 160.693L74.9964 162.024L73.6279 159.766V159.568C73.6279 159.568 75.7888 158.091 78.3092 158.647L78.7666 160.693Z" fill="black"/>
<path d="M72.6719 175.911L74.5604 174.334L73.6144 160.012C73.6144 160.012 78.4842 156.688 82.1183 161.896C82.1183 161.896 81.9717 165.078 82.1183 165.947C82.2649 166.815 81.1024 167.684 82.1183 168.549C83.1341 169.414 82.1183 172.308 82.1183 172.308C82.1183 172.308 83.2668 174.334 83.9929 174.914C84.719 175.494 85.4486 180.264 83.9929 181.279C82.5372 182.293 79.7794 184.604 79.7794 185.618C79.7794 186.633 76.2885 189.093 76.2885 189.093L73.2339 185.041L72.6719 175.911Z" fill="#5A5773"/>
<path d="M31.8274 262.849C24.7827 259.875 26.3466 252.61 27.6732 248.952C27.9391 248.211 28.2504 247.487 28.6053 246.784L32.564 244.404C32.564 244.404 33.3704 246.45 34.2326 249.198C36.2259 255.56 38.5264 265.677 31.8274 262.849Z" fill="#A1616A"/>
<path d="M41.5122 329.135C41.0346 330.058 40.6824 331.041 40.4649 332.057C40.122 333.694 39.9756 335.367 40.0286 337.039C40.0565 338.196 40.1542 338.953 40.1542 338.953L32.3066 344.325C32.3066 344.325 32.352 343.696 32.4288 342.772C32.6313 340.312 33.0537 335.746 33.4517 335.156C33.7274 334.742 33.9194 333.096 34.0416 331.57C34.1638 330.045 34.2127 328.701 34.2127 328.701C34.2127 328.701 43.6382 325.174 41.5122 329.135Z" fill="#A1616A"/>
<path d="M60.0455 332.988C60.0455 332.988 60.0455 334.482 59.9896 336.22C59.9338 337.957 59.829 340.003 59.6091 340.962C59.4066 341.834 59.3927 343.446 59.4311 344.93C59.4834 346.667 59.6091 348.23 59.6091 348.23C59.6091 348.23 51.58 340.691 52.4143 340.093C52.6342 339.934 52.8507 339.291 53.0497 338.436C53.294 337.394 53.5139 336.004 53.678 334.819C53.8735 333.43 53.9957 332.283 53.9957 332.283L60.0455 332.988Z" fill="#A1616A"/>
<path d="M76.45 259.107C73.2523 266.056 71.9432 274.293 71.9432 274.293L70.7842 281.242C70.7842 281.242 71.3637 284.279 70.7842 285.436C70.2048 286.592 69.0388 288.472 69.0388 288.472C69.0388 288.472 69.9115 295.563 69.0388 296.282C68.1661 297.002 69.0388 301.348 69.0388 301.348L66.1309 315.957L62.0605 334.76C58.1367 337.943 52.9142 333.892 52.9142 333.892L54.0663 321.6C54.0663 321.6 55.8117 300.059 55.0856 299.176C54.3595 298.294 55.3754 295.563 55.3754 295.563C55.3754 295.563 56.3947 292.957 55.6686 291.943C54.9425 290.928 55.8117 288.76 55.8117 288.76C55.8117 288.76 55.522 279.939 56.3947 277.914C57.2674 275.888 56.3947 263.356 56.3947 263.356L56.0456 259.455L55.8466 257.294L55.8257 257.082C55.8257 257.082 55.693 257.95 55.4766 259.291C54.8343 263.374 53.4658 271.834 52.9247 273.574C52.5502 274.823 52.0447 276.03 51.4167 277.174C51.4167 277.174 52.1707 281.513 51.4167 282.67C50.6626 283.827 51.3014 285.13 51.3014 285.13C51.3014 285.13 52.0276 288.743 49.8457 290.192C47.6639 291.641 49.8457 292.36 49.8457 292.36C49.8457 292.36 48.2469 295.834 47.6674 297.279C47.0879 298.725 47.6674 300.754 47.6674 300.754L46.5294 312.466C46.5294 312.466 45.51 317.382 45.6566 320.71C45.8033 324.039 44.3301 331.72 44.3301 331.72C44.3301 331.72 33.1382 331.72 31.4137 330.418C29.6892 329.115 34.3112 316.371 34.3112 316.371C34.3112 316.371 35.6202 294.094 35.327 293.513C35.0338 292.933 35.327 288.597 36.3464 287.729C37.3657 286.86 36.3464 285.126 36.3464 285.126C36.3464 285.126 36.0566 281.652 36.3464 280.787C36.6361 279.922 36.301 277.024 36.301 277.024C36.301 277.024 35.327 269.937 35.1839 265.885C35.0408 261.834 34.3112 252.721 34.3112 252.721C34.3112 252.721 35.0722 247.086 35.1874 244.404C35.2293 243.417 35.6726 242.187 36.2172 241.027C36.8467 239.716 37.57 238.451 38.3816 237.243C38.3816 237.243 72.8264 227.119 74.2822 228.13C74.6661 228.398 75.2247 230.215 75.7763 232.848C77.3018 240.189 78.8029 253.979 76.45 259.107Z" fill="#605D82"/>
<path d="M48.2521 176.633C48.2521 176.633 38.9488 178.082 36.7704 179.527C34.5921 180.973 30.2285 183.714 30.2285 189.655C30.2285 195.596 29.2126 201.659 28.6296 203.396C28.0466 205.133 37.8003 219.152 37.8003 219.152L34.3093 240.415C34.3093 240.415 48.273 239.984 52.9229 240.415C57.5728 240.846 73.844 233.185 73.844 233.185C73.844 233.185 83.437 228.119 85.4722 227.973C87.5074 227.827 81.4018 216.835 81.4018 216.835C81.4018 216.835 71.9554 199.043 73.5542 196.149C75.1531 193.255 76.3155 189.061 76.3155 189.061L74.5701 174.306C74.5701 174.306 71.9554 173.44 69.7736 175.028C67.5917 176.616 60.1805 175.754 60.1805 175.754L48.2521 176.633Z" fill="#5A5773"/>
<path d="M32.2634 202.382L28.6293 203.396L27.6135 216.995C27.6135 216.995 28.9226 220.608 27.6135 221.768C26.3044 222.929 26.0146 247.659 26.0146 247.659C26.0146 247.659 30.2282 250.699 35.1713 248.382C35.1713 248.382 34.4452 245.633 36.6235 235.652C38.8019 225.67 38.8054 220.608 38.8054 220.608C38.8054 220.608 38.8054 208.17 39.8212 206.144C40.8371 204.119 39.8212 199.057 39.8212 199.057C39.8212 199.057 37.786 196.308 37.9326 195.294C38.0793 194.279 32.2634 202.382 32.2634 202.382Z" fill="#5A5773"/>
<path opacity="0.1" d="M69.4743 204.56C69.4743 204.56 67.5857 220.761 62.0596 223.797C62.0596 223.79 74.4139 220.32 69.4743 204.56Z" fill="black"/>
<path opacity="0.1" d="M41.7148 205.999C41.7148 205.999 48.5431 209.327 46.9512 211.641C45.3594 213.955 41.7148 205.999 41.7148 205.999Z" fill="black"/>
<path opacity="0.1" d="M41.7148 212.655C41.7148 212.655 46.075 217.137 45.2057 218.728C44.3365 220.32 41.7148 212.655 41.7148 212.655Z" fill="black"/>
<path opacity="0.1" d="M76.8984 175.477C76.8984 175.477 78.609 178.371 78.7731 180.251C78.9372 182.13 76.8984 175.477 76.8984 175.477Z" fill="black"/>
<path opacity="0.1" d="M44.5 363C67.4198 363 86 360.761 86 358C86 355.239 67.4198 353 44.5 353C21.5802 353 3 355.239 3 358C3 360.761 21.5802 363 44.5 363Z" fill="#6C63FF"/>
<path opacity="0.1" d="M76.8984 171.572C76.8984 171.572 77.7572 170.849 79.9495 171.572C82.1418 172.294 76.8984 171.572 76.8984 171.572Z" fill="black"/>
<path opacity="0.1" d="M39.8223 286.012C39.9863 285.901 47.4534 284.167 48.382 285.415L39.8223 286.012Z" fill="black"/>
<path d="M40.9151 343.783C39.808 346.295 39.2499 349.013 39.2778 351.757C39.3215 354.011 38.747 356.234 37.6161 358.187C37.4531 358.462 37.2687 358.723 37.0646 358.969C37.0646 358.969 31.6118 358.928 29.7022 357.35C29.4931 357.186 29.3206 356.98 29.1961 356.746C28.1034 354.578 31.322 346.278 31.322 346.278C33.0116 339.874 36.4432 336.459 36.4432 336.459C42.5488 334.885 40.9151 343.783 40.9151 343.783Z" fill="#5A5773"/>
<path d="M36.862 347.077L36.4814 361.089H38.3107C38.3107 361.089 38.6074 348.797 39.4243 347.077C40.2412 345.357 36.862 347.077 36.862 347.077Z" fill="#5A5773"/>
<path d="M60.8074 356.638C60.7452 356.661 60.6809 356.679 60.6154 356.69C59.6729 356.857 56.1994 356.76 54.255 356.69C53.9004 356.673 53.5656 356.523 53.3185 356.269C53.0715 356.016 52.9307 355.678 52.9249 355.325C52.9249 354.803 52.9249 354.168 52.883 353.49C52.7923 351.35 52.5339 348.803 51.7624 348.23C50.3975 347.188 49.3188 343.647 51.7624 339.169C51.7624 339.169 56.4473 335.611 59.8265 346.312C59.8265 346.312 60.1546 349.37 61.6278 350.454C63.1009 351.538 61.4637 356.311 60.8074 356.638Z" fill="#5A5773"/>
<path d="M52.3545 347.306L53.2307 358.969H54.3478V346.312L52.3545 347.306Z" fill="#5A5773"/>
<path d="M55.0846 144.357C51.9164 144.597 48.8509 145.583 46.1409 147.234C45.4427 147.654 44.7445 148.161 44.4547 148.919C44.2034 149.572 44.3081 150.308 44.3186 151.003C44.4128 156.986 37.7103 161.513 37.9198 167.492C38.0035 169.865 39.2009 172.075 39.4209 174.441C39.7874 178.388 37.4415 182.019 35.1934 185.288C37.5093 185.427 39.7903 184.674 41.5643 183.186C43.9419 191.058 44.252 199.405 42.4649 207.43H45.6801C45.9978 207.409 46.3165 207.449 46.6191 207.548C46.902 207.68 47.155 207.868 47.3627 208.1C50.3684 211.078 52.3826 215.48 51.2341 219.545L58.0763 216.991C59.7135 216.38 61.3752 215.758 62.7995 214.747C64.2238 213.736 65.4177 212.28 65.7179 210.577C65.9029 209.535 65.8436 208.291 66.7058 207.687C67.1293 207.459 67.5829 207.292 68.0533 207.19C69.9314 206.53 70.7623 204.369 71.1463 202.423C71.6139 200.036 71.7606 197.598 71.5826 195.172C71.2789 191.107 70.0711 186.98 71.066 183.012C71.628 180.785 72.8778 178.708 72.979 176.411C73.1431 172.617 70.1653 169.355 69.722 165.585C69.4113 162.955 70.3643 160.301 70.0536 157.674C69.8811 156.318 69.3827 155.024 68.6006 153.901C67.8184 152.778 66.7757 151.859 65.5608 151.222C64.7195 150.791 63.8154 150.503 62.9845 150.027C61.089 148.933 59.8776 146.959 58.1566 145.604C56.4356 144.249 53.5695 143.739 52.2744 145.503L55.0846 144.357Z" fill="#4A4347"/>
<path opacity="0.1" d="M31.4121 218.079C31.4121 218.079 34.0093 216.995 34.5888 218.079C35.1683 219.163 31.4121 218.079 31.4121 218.079Z" fill="black"/>
<path opacity="0.1" d="M32.3135 219.936C32.3135 219.936 34.9107 218.849 35.4937 219.936C36.0767 221.024 32.3135 219.936 32.3135 219.936Z" fill="black"/>
<path d="M91.332 35V22.22H96.75C97.338 22.22 97.878 22.346 98.37 22.598C98.874 22.838 99.306 23.162 99.666 23.57C100.026 23.966 100.308 24.422 100.512 24.938C100.716 25.442 100.818 25.952 100.818 26.468C100.818 27.008 100.722 27.536 100.53 28.052C100.338 28.556 100.068 29.006 99.72 29.402C99.372 29.798 98.952 30.116 98.46 30.356C97.968 30.596 97.428 30.716 96.84 30.716H93.816V35H91.332ZM93.816 28.538H96.696C97.152 28.538 97.53 28.352 97.83 27.98C98.142 27.608 98.298 27.104 98.298 26.468C98.298 26.144 98.25 25.856 98.154 25.604C98.058 25.34 97.932 25.118 97.776 24.938C97.62 24.758 97.434 24.626 97.218 24.542C97.014 24.446 96.804 24.398 96.588 24.398H93.816V28.538ZM107.929 27.656C107.197 27.668 106.543 27.812 105.967 28.088C105.391 28.352 104.977 28.754 104.725 29.294V35H102.313V25.568H104.527V27.584C104.695 27.26 104.893 26.972 105.121 26.72C105.349 26.456 105.595 26.228 105.859 26.036C106.123 25.844 106.387 25.7 106.651 25.604C106.927 25.496 107.191 25.442 107.443 25.442C107.575 25.442 107.671 25.442 107.731 25.442C107.803 25.442 107.869 25.448 107.929 25.46V27.656ZM113.155 35.18C112.387 35.18 111.697 35.048 111.085 34.784C110.473 34.52 109.951 34.166 109.519 33.722C109.099 33.266 108.775 32.744 108.547 32.156C108.319 31.568 108.205 30.95 108.205 30.302C108.205 29.642 108.319 29.018 108.547 28.43C108.775 27.842 109.099 27.326 109.519 26.882C109.951 26.426 110.473 26.066 111.085 25.802C111.697 25.538 112.387 25.406 113.155 25.406C113.923 25.406 114.607 25.538 115.207 25.802C115.819 26.066 116.335 26.426 116.755 26.882C117.187 27.326 117.517 27.842 117.745 28.43C117.973 29.018 118.087 29.642 118.087 30.302C118.087 30.95 117.973 31.568 117.745 32.156C117.517 32.744 117.193 33.266 116.773 33.722C116.353 34.166 115.837 34.52 115.225 34.784C114.613 35.048 113.923 35.18 113.155 35.18ZM110.689 30.302C110.689 30.722 110.749 31.106 110.869 31.454C111.001 31.79 111.175 32.084 111.391 32.336C111.619 32.588 111.883 32.786 112.183 32.93C112.483 33.062 112.807 33.128 113.155 33.128C113.503 33.128 113.827 33.062 114.127 32.93C114.427 32.786 114.685 32.588 114.901 32.336C115.129 32.084 115.303 31.784 115.423 31.436C115.555 31.088 115.621 30.704 115.621 30.284C115.621 29.876 115.555 29.498 115.423 29.15C115.303 28.802 115.129 28.502 114.901 28.25C114.685 27.998 114.427 27.806 114.127 27.674C113.827 27.53 113.503 27.458 113.155 27.458C112.807 27.458 112.483 27.53 112.183 27.674C111.883 27.818 111.619 28.016 111.391 28.268C111.175 28.52 111.001 28.82 110.869 29.168C110.749 29.516 110.689 29.894 110.689 30.302ZM120.151 35V27.908H118.909V26.072H120.151V25.496C120.151 24.32 120.433 23.39 120.997 22.706C121.561 22.022 122.329 21.68 123.301 21.68C124.069 21.68 124.843 21.866 125.623 22.238L125.137 24.056C124.957 23.96 124.741 23.882 124.489 23.822C124.249 23.75 124.027 23.714 123.823 23.714C122.983 23.714 122.563 24.278 122.563 25.406V26.072H124.867V27.908H122.563V35H120.151ZM130.136 35.18C129.38 35.18 128.696 35.054 128.084 34.802C127.472 34.538 126.95 34.184 126.518 33.74C126.086 33.296 125.75 32.78 125.51 32.192C125.282 31.604 125.168 30.986 125.168 30.338C125.168 29.666 125.282 29.036 125.51 28.448C125.738 27.848 126.068 27.326 126.5 26.882C126.932 26.426 127.454 26.066 128.066 25.802C128.69 25.538 129.386 25.406 130.154 25.406C130.922 25.406 131.606 25.538 132.206 25.802C132.818 26.066 133.334 26.42 133.754 26.864C134.186 27.308 134.51 27.824 134.726 28.412C134.954 29 135.068 29.612 135.068 30.248C135.068 30.404 135.062 30.554 135.05 30.698C135.05 30.842 135.038 30.962 135.014 31.058H127.724C127.76 31.43 127.85 31.76 127.994 32.048C128.138 32.336 128.324 32.582 128.552 32.786C128.78 32.99 129.038 33.146 129.326 33.254C129.614 33.362 129.914 33.416 130.226 33.416C130.706 33.416 131.156 33.302 131.576 33.074C132.008 32.834 132.302 32.522 132.458 32.138L134.528 32.714C134.18 33.434 133.622 34.028 132.854 34.496C132.098 34.952 131.192 35.18 130.136 35.18ZM132.584 29.492C132.524 28.784 132.26 28.22 131.792 27.8C131.336 27.368 130.778 27.152 130.118 27.152C129.794 27.152 129.488 27.212 129.2 27.332C128.924 27.44 128.678 27.596 128.462 27.8C128.246 28.004 128.066 28.25 127.922 28.538C127.79 28.826 127.712 29.144 127.688 29.492H132.584ZM140.101 35.18C139.309 35.18 138.535 35.054 137.779 34.802C137.023 34.55 136.375 34.19 135.835 33.722L136.735 32.21C137.311 32.618 137.869 32.93 138.409 33.146C138.961 33.35 139.507 33.452 140.047 33.452C140.527 33.452 140.905 33.362 141.181 33.182C141.457 33.002 141.595 32.744 141.595 32.408C141.595 32.072 141.433 31.826 141.109 31.67C140.785 31.514 140.257 31.334 139.525 31.13C138.913 30.962 138.391 30.8 137.959 30.644C137.527 30.488 137.179 30.314 136.915 30.122C136.651 29.918 136.459 29.69 136.339 29.438C136.219 29.174 136.159 28.862 136.159 28.502C136.159 28.022 136.249 27.59 136.429 27.206C136.621 26.822 136.885 26.498 137.221 26.234C137.557 25.958 137.947 25.748 138.391 25.604C138.847 25.46 139.339 25.388 139.867 25.388C140.575 25.388 141.235 25.49 141.847 25.694C142.471 25.898 143.041 26.228 143.557 26.684L142.585 28.142C142.105 27.782 141.637 27.518 141.181 27.35C140.737 27.182 140.293 27.098 139.849 27.098C139.441 27.098 139.099 27.182 138.823 27.35C138.547 27.518 138.409 27.788 138.409 28.16C138.409 28.328 138.439 28.466 138.499 28.574C138.571 28.682 138.679 28.778 138.823 28.862C138.967 28.946 139.153 29.03 139.381 29.114C139.621 29.186 139.915 29.264 140.263 29.348C140.911 29.516 141.463 29.684 141.919 29.852C142.387 30.02 142.765 30.212 143.053 30.428C143.353 30.644 143.569 30.896 143.701 31.184C143.845 31.46 143.917 31.796 143.917 32.192C143.917 33.116 143.575 33.848 142.891 34.388C142.207 34.916 141.277 35.18 140.101 35.18ZM149.049 35.18C148.257 35.18 147.483 35.054 146.727 34.802C145.971 34.55 145.323 34.19 144.783 33.722L145.683 32.21C146.259 32.618 146.817 32.93 147.357 33.146C147.909 33.35 148.455 33.452 148.995 33.452C149.475 33.452 149.853 33.362 150.129 33.182C150.405 33.002 150.543 32.744 150.543 32.408C150.543 32.072 150.381 31.826 150.057 31.67C149.733 31.514 149.205 31.334 148.473 31.13C147.861 30.962 147.339 30.8 146.907 30.644C146.475 30.488 146.127 30.314 145.863 30.122C145.599 29.918 145.407 29.69 145.287 29.438C145.167 29.174 145.107 28.862 145.107 28.502C145.107 28.022 145.197 27.59 145.377 27.206C145.569 26.822 145.833 26.498 146.169 26.234C146.505 25.958 146.895 25.748 147.339 25.604C147.795 25.46 148.287 25.388 148.815 25.388C149.523 25.388 150.183 25.49 150.795 25.694C151.419 25.898 151.989 26.228 152.505 26.684L151.533 28.142C151.053 27.782 150.585 27.518 150.129 27.35C149.685 27.182 149.241 27.098 148.797 27.098C148.389 27.098 148.047 27.182 147.771 27.35C147.495 27.518 147.357 27.788 147.357 28.16C147.357 28.328 147.387 28.466 147.447 28.574C147.519 28.682 147.627 28.778 147.771 28.862C147.915 28.946 148.101 29.03 148.329 29.114C148.569 29.186 148.863 29.264 149.211 29.348C149.859 29.516 150.411 29.684 150.867 29.852C151.335 30.02 151.713 30.212 152.001 30.428C152.301 30.644 152.517 30.896 152.649 31.184C152.793 31.46 152.865 31.796 152.865 32.192C152.865 33.116 152.523 33.848 151.839 34.388C151.155 34.916 150.225 35.18 149.049 35.18ZM158.788 35.18C158.02 35.18 157.33 35.048 156.718 34.784C156.106 34.52 155.584 34.166 155.152 33.722C154.732 33.266 154.408 32.744 154.18 32.156C153.952 31.568 153.838 30.95 153.838 30.302C153.838 29.642 153.952 29.018 154.18 28.43C154.408 27.842 154.732 27.326 155.152 26.882C155.584 26.426 156.106 26.066 156.718 25.802C157.33 25.538 158.02 25.406 158.788 25.406C159.556 25.406 160.24 25.538 160.84 25.802C161.452 26.066 161.968 26.426 162.388 26.882C162.82 27.326 163.15 27.842 163.378 28.43C163.606 29.018 163.72 29.642 163.72 30.302C163.72 30.95 163.606 31.568 163.378 32.156C163.15 32.744 162.826 33.266 162.406 33.722C161.986 34.166 161.47 34.52 160.858 34.784C160.246 35.048 159.556 35.18 158.788 35.18ZM156.322 30.302C156.322 30.722 156.382 31.106 156.502 31.454C156.634 31.79 156.808 32.084 157.024 32.336C157.252 32.588 157.516 32.786 157.816 32.93C158.116 33.062 158.44 33.128 158.788 33.128C159.136 33.128 159.46 33.062 159.76 32.93C160.06 32.786 160.318 32.588 160.534 32.336C160.762 32.084 160.936 31.784 161.056 31.436C161.188 31.088 161.254 30.704 161.254 30.284C161.254 29.876 161.188 29.498 161.056 29.15C160.936 28.802 160.762 28.502 160.534 28.25C160.318 27.998 160.06 27.806 159.76 27.674C159.46 27.53 159.136 27.458 158.788 27.458C158.44 27.458 158.116 27.53 157.816 27.674C157.516 27.818 157.252 28.016 157.024 28.268C156.808 28.52 156.634 28.82 156.502 29.168C156.382 29.516 156.322 29.894 156.322 30.302ZM170.964 27.656C170.232 27.668 169.578 27.812 169.002 28.088C168.426 28.352 168.012 28.754 167.76 29.294V35H165.348V25.568H167.562V27.584C167.73 27.26 167.928 26.972 168.156 26.72C168.384 26.456 168.63 26.228 168.894 26.036C169.158 25.844 169.422 25.7 169.686 25.604C169.962 25.496 170.226 25.442 170.478 25.442C170.61 25.442 170.706 25.442 170.766 25.442C170.838 25.442 170.904 25.448 170.964 25.46V27.656Z" fill="white"/>
<defs>
<linearGradient id="paint0_linear" x1="176.619" y1="157.282" x2="176.619" y2="112.043" gradientUnits="userSpaceOnUse">
<stop stop-color="#808080" stop-opacity="0.25"/>
<stop offset="0.54" stop-color="#808080" stop-opacity="0.12"/>
<stop offset="1" stop-color="#808080" stop-opacity="0.1"/>
</linearGradient>
<linearGradient id="paint1_linear" x1="9237.7" y1="19051.8" x2="9237.7" y2="8409.1" gradientUnits="userSpaceOnUse">
<stop stop-color="#808080" stop-opacity="0.25"/>
<stop offset="0.54" stop-color="#808080" stop-opacity="0.12"/>
<stop offset="1" stop-color="#808080" stop-opacity="0.1"/>
</linearGradient>
<linearGradient id="paint2_linear" x1="35330.5" y1="43650.1" x2="35330.5" y2="27448.6" gradientUnits="userSpaceOnUse">
<stop stop-color="#808080" stop-opacity="0.25"/>
<stop offset="0.54" stop-color="#808080" stop-opacity="0.12"/>
<stop offset="1" stop-color="#808080" stop-opacity="0.1"/>
</linearGradient>
<linearGradient id="paint3_linear" x1="9332.52" y1="40213" x2="9332.52" y2="25317.1" gradientUnits="userSpaceOnUse">
<stop stop-color="#808080" stop-opacity="0.25"/>
<stop offset="0.54" stop-color="#808080" stop-opacity="0.12"/>
<stop offset="1" stop-color="#808080" stop-opacity="0.1"/>
</linearGradient>
<linearGradient id="paint4_linear" x1="25130.1" y1="41373.1" x2="25130.1" y2="26687.9" gradientUnits="userSpaceOnUse">
<stop stop-color="#808080" stop-opacity="0.25"/>
<stop offset="0.54" stop-color="#808080" stop-opacity="0.12"/>
<stop offset="1" stop-color="#808080" stop-opacity="0.1"/>
</linearGradient>
<linearGradient id="paint5_linear" x1="33473.5" y1="10944.8" x2="33473.5" y2="5568.72" gradientUnits="userSpaceOnUse">
<stop stop-color="#808080" stop-opacity="0.25"/>
<stop offset="0.54" stop-color="#808080" stop-opacity="0.12"/>
<stop offset="1" stop-color="#808080" stop-opacity="0.1"/>
</linearGradient>
<linearGradient id="paint6_linear" x1="67026.1" y1="197616" x2="67026.1" y2="45996.1" gradientUnits="userSpaceOnUse">
<stop stop-color="#808080" stop-opacity="0.25"/>
<stop offset="0.54" stop-color="#808080" stop-opacity="0.12"/>
<stop offset="1" stop-color="#808080" stop-opacity="0.1"/>
</linearGradient>
</defs>
</svg>
